<?xml version="1.0" encoding="utf-8"?>
<svg xmlns="http://www.w3.org/2000/svg" xmlns:xlink="http://www.w3.org/1999/xlink" version= "1.1" width="1618px" height="1000px" viewBox="-350 195 1618 1000">
<g id="layer1">
<g style="fill:rgb(129,206,255); fill-opacity:1.0; stroke-linejoin: miter">
<path d="M-356.74106,183.66078L459.50204,183.66129L1275.7451,183.66179L1275.7451,1209.1298Q459.50204,1209.1304,-356.74106,1209.1309Q-356.74106,696.3958,-356.74106,183.66078"/>
</g>
<g>
<g style="fill:rgb(255,255,255); fill-opacity:1.0; stroke-linejoin: miter">
<path d="M592.6967,869.66595C592.6933,869.66565,592.7,869.6638,592.7194,869.6618L592.72015,869.6628C592.721,869.6617,592.7248,869.66156,592.7326,869.66144C592.7177,869.6643,592.70685,869.6658,592.70087,869.66595 Z M520.9931,852.0311C520.98663,852.029,520.9809,852.02686,520.9754,852.0249L520.9755,852.02637C520.86176,851.98334,520.8271,851.96136,520.8405,851.96136C520.85443,851.96136,520.9178,851.9837,520.9982,852.0311 Z M583.8304,840.7195C583.8305,840.7195,583.8305,840.7195,583.8305,840.7195L583.8305,840.72046 Z M544.0619,903.8029C551.52136,903.8029,559.5978,901.2294,567.01624,896.4292C573.9595,891.94385,582.31415,883.7082,588.85675,875.0274L588.86017,875.0229L588.86334,875.01874L588.8642,875.01746C590.72943,872.49414,592.3726,870.33044,592.8979,869.6691C593.34467,869.7106,594.2642,869.9068,595.2996,870.2319L595.2996,870.2336C597.77747,871.0131,601.2002,871.4216,604.364,871.42145C606.4011,871.42145,608.3718,871.2521,609.94543,870.8849L609.9498,870.8838C615.24475,869.61475,619.10803,867.36957,623.2792,863.1983C627.36145,859.11615,629.468,855.6935,631.2062,850.1306L631.2074,850.1268C632.0465,847.3888,632.21875,845.8165,632.21875,841.3997C632.21875,833.65967,630.6736,829.0045,625.8342,821.9614L625.8341,821.963C623.3519,818.34705,617.4586,812.54504,613.4016,809.6532L613.3999,809.65216C604.4083,803.28125,592.99335,799.4663,583.2526,799.46625C582.5855,799.46625,581.9306,799.48395,581.2796,799.5202L581.2791,799.5212C568.86127,800.21735,560.3775,806.57764,556.57587,818.026L556.57465,818.0296C555.8973,820.10394,555.20087,822.73663,555.0572,823.89185L555.05743,823.89325L554.7596,825.8482C554.72845,826.05304,554.7829,826.2619,554.91034,826.4254C555.03766,826.58905,555.2266,826.69305,555.4329,826.713L558.49506,827.0108L558.5007,827.0113C561.7072,827.2991,567.52606,829.0529,571.02545,830.84406L571.0291,830.84595C575.21185,832.9586,582.3289,838.36847,583.61884,840.40094L583.628,840.41504L583.62823,840.4155C583.7548,840.6052,583.80194,840.69556,583.81964,840.7382L583.8239,840.7397C583.7652,840.8862,583.4766,841.21356,582.3442,842.24524L582.3293,842.2591C581.23895,843.3076,579.3377,844.998,578.0738,846.0512L578.06757,846.0565L576.2745,847.58374L574.1716,845.68774C568.1894,840.25946,560.78326,837.4024,553.7133,837.4024C549.11945,837.40216,544.66327,838.6094,540.84503,841.10846L540.8398,841.11206L540.8382,841.1131L540.82916,841.1191C539.46844,842.05475,537.7502,843.36914,537.05035,844.1157L537.0483,844.11786C535.2652,846.03485,532.83014,850.30164,531.99066,852.95184C531.65594,854.0036,531.4766,854.3761,531.38007,854.50055L531.3752,854.502C531.358,854.4978,531.33624,854.49365,531.30927,854.4872L531.29193,854.48346C528.6204,853.92084,523.3195,852.65424,521.5401,852.18494L521.5451,852.18665C521.92816,850.7937,523.16754,847.41504,523.98615,845.77783C527.612,838.6113,533.14386,833.2085,540.2978,829.92267L540.29767,829.9241L543.91254,828.26404C544.158,828.15137,544.32465,827.91626,544.3494,827.6472L544.60455,824.883C545.0235,820.7032,546.74725,814.15717,548.32135,810.80164L548.32135,810.80316C550.4068,806.42334,552.64813,803.3514,556.19684,799.9697C562.52423,793.9762,570.2735,790.5887,580.3005,789.4559L580.304,789.4556C582.2358,789.2282,584.0251,788.9877,584.45245,788.86005L584.45306,788.86163C584.46893,788.8568,584.675,788.80054,584.83075,788.64575L584.83246,788.6473C585.1497,788.3379,585.0761,787.8852,585.0733,787.8852L585.0732,787.8867C585.024,787.4193,584.67206,786.5049,584.309,785.6798L584.30817,785.6778C582.0278,780.5365,580.8084,772.20654,581.43475,765.98553L581.4349,765.9837C582.35175,756.64795,586.76447,748.5578,593.5937,743.50854L593.5937,743.50995L596.4399,741.4269C596.67706,741.25323,596.7922,740.95764,596.73456,740.6694L596.3942,738.9682L596.3945,738.96985C596.2386,738.0895,596.0688,734.9396,596.0688,731.8863C596.06866,726.1895,596.86127,722.5277,598.79456,718.7024L598.7948,718.704L599.6354,717.1473C599.79333,716.855,599.7417,716.49396,599.5083,716.2577L595.9782,712.6852L595.97504,712.6819C591.0109,707.7178,585.9781,705.40094,579.79034,705.40094C575.27545,705.40094,569.8123,707.24854,565.4981,710.2117L565.49176,710.2162L563.493,711.6197C563.2707,711.7758,563.14923,712.03925,563.17523,712.30945L563.4726,715.41046C564.22015,723.6343,561.38934,733.6669,556.20465,741.23706C553.8388,744.6378,548.40375,749.89923,546.7952,750.8019L546.79047,750.8034C546.5739,750.4884,546.22406,749.97614,545.7734,749.31586C545.1928,748.46515,544.492,747.4381,543.70917,746.30096L540.84296,742.13214L541.67194,741.5042L541.6751,741.50165C549.8802,735.21704,554.2487,724.83154,552.9371,714.7766L552.936,714.7687C552.3295,710.4802,550.8576,705.87787,548.93134,702.5066L548.93036,702.5047C546.91095,698.9929,542.13983,694.1315,538.7011,692.1477L538.7016,692.1491C537.68854,691.528,536.9112,690.9957,536.5245,690.6912L536.52924,690.6929C536.8914,689.81384,537.68036,687.85693,538.55634,685.6836L538.55634,685.685L540.3448,681.3038L541.1645,681.66815L541.1645,681.66974C547.72235,684.6159,554.49115,690.9584,558.2889,697.7151L558.289,697.7167C558.90485,698.83826,559.56586,699.8922,559.84564,700.2147L559.84357,700.21625C559.8348,700.2147,560.0966,700.5312,560.482,700.5312C560.63336,700.5312,560.76605,700.48224,560.77277,700.4801L560.77313,700.4799C561.15424,700.3536,562.70404,699.5943,564.3919,698.75024L564.394,698.7493C569.77167,696.03973,573.22736,695.21515,579.5778,695.21515C583.5579,695.21515,585.77167,695.4284,587.66986,695.9534L587.6706,695.95355C593.4134,697.5349,600.048,701.4619,603.85706,705.60095L605.6007,707.5146C605.74915,707.6776,605.9535,707.7612,606.15906,707.7612C606.3259,707.7612,606.4938,707.70605,606.63306,707.5935L609.9503,704.9142L609.9524,704.9125C615.54333,700.3646,622.9513,697.0532,630.74915,695.62787L630.7495,695.6294L630.7529,695.6272C632.6405,695.28033,634.4169,694.8819,634.8274,694.7242L634.82764,694.724L634.8279,694.7256C634.83936,694.7206,635.0111,694.65967,635.1448,694.526C635.55786,694.1131,635.33435,693.56354,635.3126,693.50574C635.22327,693.268,635.0648,693.0282,634.8865,692.82025L634.88684,692.8218C633.50977,691.11237,631.3198,683.6851,630.89764,678.7029L630.8973,678.69916L630.5997,675.38184C630.5809,675.17255,630.47565,674.9805,630.3095,674.8521C630.17633,674.7492,630.01373,674.69434,629.8477,674.69434C629.80646,674.69434,629.76495,674.6977,629.7237,674.7048L628.1927,674.9598L628.1927,674.9613C624.1744,675.6296,620.3234,675.9657,616.74243,675.96564C613.33484,675.96564,610.182,675.6604,607.38245,675.0518L607.37915,675.0512C592.26105,671.8357,581.18585,661.78595,575.5673,646.1464L575.56696,646.1454C574.7719,643.94354,574.24384,642.6055,573.5313,642.1298C573.3023,641.97687,573.04694,641.89813,572.77826,641.89813C572.7183,641.89813,572.66156,641.902,572.6065,641.90845L572.606,641.9087L572.597,641.9097L572.58795,641.9109C570.6069,642.17505,568.67914,642.3071,566.80914,642.3071C560.38605,642.3071,554.58954,640.75244,549.34235,637.6299L549.3422,637.6314C547.8858,636.756,547.0208,636.2476,546.1546,636.2476C545.68585,636.2476,545.2674,636.3924,544.8526,636.55536L544.8426,636.55927C539.8968,638.58405,534.1495,639.71356,528.85956,639.71356C527.49445,639.71356,526.1674,639.6388,524.88947,639.48553L524.8829,639.4848C520.7154,639.0218,515.5173,637.80023,513.0539,636.7738L513.04767,636.7713L511.68674,636.2183C511.59402,636.1806,511.49783,636.16254,511.40292,636.16254C511.13596,636.16254,510.87943,636.3051,510.7427,636.5511L509.04398,639.6089C506.57974,643.97534,504.34494,649.86945,503.0126,655.4995L503.01157,655.50415C502.01566,659.8341,501.88657,661.25903,501.88657,668.30457C501.88657,674.7872,502.05704,677.0199,502.83908,680.6264C505.84738,694.6365,512.4279,706.50854,522.61615,716.35266L522.618,716.35455L525.23126,718.8633L522.79694,721.12616L522.79694,721.12756C516.9473,726.5459,511.3605,734.06433,508.0851,740.9589C498.03748,761.9163,501.5909,785.7486,517.4566,804.62646L519.1811,806.7028L517.1983,809.677C513.9244,814.5448,509.68326,823.4138,507.87595,829.1369L507.874,829.143C507.05667,831.8097,505.9434,836.4346,505.42746,839.44385L505.42618,839.4514C504.65146,844.27216,504.52286,846.0667,504.73642,853.3268C504.907,860.19836,505.16458,862.46643,506.03122,866.23627L506.03262,866.2424C508.8665,878.1358,513.6487,886.99426,521.0056,893.96185L521.0065,893.96265C526.4072,899.0608,531.3771,901.81683,537.86865,903.16846L537.86865,903.16974C539.8645,903.5945,541.93835,903.8029,544.0619,903.8029 Z"/>
</g>
<g style="fill:rgb(255,255,255); fill-opacity:1.0; stroke-linejoin: miter">
<path d="M642.224,829.3533L642.40674,829.3307C642.5342,829.2991,643.18115,829.1758,643.8856,829.093L643.9044,829.09045C646.96985,828.65247,650.7018,827.4776,654.11914,825.83386C657.1028,824.42914,658.53467,823.35046,661.1349,820.70685L661.1349,820.7084C666.15894,815.6386,668.5608,810.28577,669.42773,802.4836L669.42773,802.4851C670.59827,792.0328,666.88135,779.41437,660.3347,771.2636L660.32886,771.25635C659.77686,770.58606,659.2936,769.96893,658.9363,769.49677L658.9397,769.49835C659.6089,769.434,660.53455,769.3627,661.57764,769.30005L661.5785,769.30164C666.69727,768.9964,670.277,768.07776,675.25024,765.7425L675.25024,765.744C684.84766,761.2464,691.64954,754.5733,696.4027,744.98016L696.40405,744.9775C699.7705,738.11523,700.60583,734.6856,700.64905,726.9995L700.64905,727.00104C700.6918,721.7801,700.52075,720.2096,699.68396,717.3024L699.68396,717.30396C698.64,713.6075,696.3513,708.77014,694.21826,705.7229L694.2158,705.7195C693.4851,704.68774,692.7761,703.68677,692.6118,703.4403L692.6117,703.4402C692.35535,703.05585,691.9209,703.0389,691.80334,703.03577L691.8054,703.0373C691.7877,703.03534,691.7814,703.03534,691.76416,703.03534C691.0543,703.03534,689.60315,703.5767,688.0143,704.3199L688.0143,704.3215C680.3096,707.8144,674.3773,709.2285,667.2738,709.2285C662.50684,709.2284,659.7623,708.85913,650.7621,706.9063L650.7584,706.9056C646.40247,705.9835,642.65076,705.4977,639.1644,705.4977C633.23364,705.4977,628.13525,706.90466,622.19836,709.8594L622.19836,709.8609C615.1245,713.353,610.1704,717.8356,607.5239,723.1721L607.5239,723.17346L607.52185,723.17633C606.1356,725.9935,606.04175,726.5039,606.04175,731.0354C606.0419,735.2581,606.1753,736.1787,607.33435,738.8987C608.04004,740.5748,609.6426,743.3865,610.90125,745.1659L610.9136,745.1829L610.9153,745.1851L610.91516,745.1865C611.58545,746.10144,612.16187,746.91595,612.55774,747.4953L612.5619,747.4968C612.3873,747.50146,612.194,747.50507,611.9852,747.50507C602.68713,747.50507,594.1794,754.994,591.77325,765.0939C591.02167,768.1889,591.02216,774.2219,591.77277,777.3562L591.7735,777.35925C592.6524,780.9625,595.0905,785.6673,597.5134,788.39874L597.5148,788.40015C599.35156,790.4611,600.35,791.1165,603.4116,792.34094L603.4197,792.34424C609.19604,794.5788,617.2539,798.92804,621.0559,801.81085L621.06006,801.8139C625.5486,805.16974,631.05676,810.89136,633.93933,815.2361L633.9447,815.24396C635.19055,817.071,637.2986,820.90375,638.6953,823.7817L638.69727,823.78577C639.9369,826.30255,641.1476,828.5377,641.5725,829.0283L641.5718,829.0298C641.5665,829.0283,641.8224,829.3533,642.224,829.3533 Z"/>
</g>
<g style="fill:rgb(255,255,255); fill-opacity:1.0; stroke-linejoin: miter">
<path d="M644.5494,658.29816C644.528,658.2739,644.5092,658.2491,644.4926,658.2241L644.4926,658.22577L644.5534,658.29816 Z M545.8684,513.6036C545.86755,513.603,545.8667,513.6022,545.86584,513.6016L545.86523,513.601C545.8291,513.5719,545.81445,513.5567,545.81445,513.5539L545.8164,513.5554C545.82275,513.5568,545.8445,513.574,545.87317,513.6036 Z M549.56665,504.3429C549.55664,504.34265,549.5593,504.34094,549.5791,504.34094C549.58264,504.34125,549.5862,504.34125,549.58997,504.34137L549.5947,504.3429C549.58496,504.34247,549.577,504.34277,549.5714,504.3429 Z M666.16406,699.6184C668.06335,699.6184,669.947,699.497,671.44006,699.24493L671.43994,699.2465C681.7555,697.5037,691.9641,690.38776,698.3989,680.5844L698.4016,680.5799C702.5905,674.1024,705.34436,666.7311,706.8899,657.844L706.8904,657.842C707.96826,651.5465,708.05115,639.34875,707.10754,632.05743L707.10706,632.0535C703.5881,605.9201,690.21173,587.4678,668.11285,578.4215L668.1032,578.41766L668.0948,578.4144L668.0948,578.41583C666.1291,577.6349,664.17523,576.8843,663.2835,576.63184L663.2872,576.63336C663.52277,575.89465,663.9898,574.0081,664.4355,572.15125L664.4361,572.1491C665.22296,568.82623,665.3494,566.8381,665.392,559.8588L665.392,559.85394C665.392,552.40076,665.2659,551.08105,664.34406,547.7449C663.09174,543.2107,661.0605,538.70844,658.7519,535.35443L658.7519,535.356C656.9926,532.7203,652.6788,528.36523,650.0975,526.5714L650.0975,526.57294C647.50446,524.7696,642.65814,522.61066,639.02094,521.6148L639.018,521.614C636.45966,520.9244,632.7177,520.5938,628.9432,520.5938C625.2215,520.5938,621.39777,520.91437,618.5379,521.56433L618.529,521.56635C617.36847,521.84485,616.3272,522.0714,615.6247,522.2189L615.62054,522.2204C615.6723,521.41656,615.7751,520.1371,615.92596,518.678L615.9268,518.66956C616.74603,509.7876,615.19794,500.46057,611.68646,493.221L611.6855,493.2188C607.84296,485.35895,600.51044,479.55307,592.03595,477.6312L592.0264,477.62906C590.1602,477.23135,588.6257,477.04733,586.1502,477.04727C585.09406,477.04727,583.856,477.08102,582.3571,477.14505L582.3597,477.14658C575.9413,477.36026,571.7352,478.22684,565.9613,480.42383L564.09106,481.11652L561.62317,478.9103L561.62317,478.9119C554.23926,472.25662,547.2029,468.2322,539.3246,466.1544L539.32495,466.1559C537.14514,465.57632,534.6417,465.3638,530.6687,465.3638L530.6738,465.3654C530.475,465.36264,530.26135,465.3618,530.069,465.3618C524.084,465.3618,521.1449,466.01706,516.1421,468.413C505.62454,473.36746,498.26672,482.66052,494.77127,495.3405C493.93066,498.2603,493.80624,499.97455,493.80606,507.1131C493.76337,514.87573,493.8483,515.80676,494.97968,520.0273L494.97968,520.0287C496.4849,525.7044,498.93564,531.59705,501.78,536.38086L501.7816,536.3835C504.2144,540.4381,509.18997,547.2297,510.92575,548.87634L510.9451,548.8939L511.5068,549.39087L509.288,552.1028C502.02896,560.9509,497.62808,570.1267,495.8591,580.13684L495.85822,580.14136C494.90674,585.72125,495.20395,595.271,496.55255,600.3632L496.55255,600.3646C499.6988,612.388,506.4025,621.6049,515.64703,626.402C519.6088,628.46576,523.7823,629.4921,527.9903,629.4921C533.7575,629.4921,539.5511,627.56476,544.924,623.79877L547.0579,622.32965L547.76996,622.88336L547.76984,622.88495C551.1663,625.5907,556.4504,628.8186,559.4307,630.0037L559.43085,630.0051C562.57245,631.2871,563.3599,631.3777,568.0878,631.4209L568.09467,631.4223C572.84503,631.4209,573.5418,631.33655,575.9548,630.1528L575.9548,630.1543C580.1545,628.1191,583.1219,623.9924,584.35297,618.7603L584.35297,618.76196C585.0634,615.82263,585.0546,609.37946,584.3599,605.689L584.3599,605.6904C584.1468,604.4421,584.04425,603.3371,584.04767,602.92944L584.05194,602.93085C584.36554,602.6291,585.3381,601.924,586.587,601.2102L586.60077,601.20233C588.123,600.28906,590.8022,598.38824,592.5008,596.86383L592.5009,596.86536C600.234,590.2061,604.36194,582.23126,604.36194,573.67615C604.36194,566.7875,602.4452,562.30383,597.3384,557.1536C594.64056,554.41254,593.2912,553.46765,589.8958,551.85706C585.6917,549.84106,581.85223,548.6064,578.86847,548.384L578.8687,548.3854L577.29974,548.2567C577.27924,548.25494,577.2586,548.25415,577.2382,548.25415C576.9178,548.25415,576.62897,548.45776,576.5241,548.7655L575.2481,552.50793L575.24774,552.50934C571.6927,563.0071,565.6121,570.11804,556.27423,574.78723C553.6789,576.0849,549.7015,577.54645,547.48737,577.99744L547.47675,577.9998L546.8538,578.1359L546.2918,575.5568L546.2918,575.55835C545.9754,574.04584,545.5124,572.0051,545.1956,570.60864L545.1956,570.6085C545.1403,570.3651,545.05414,569.985,545.01447,569.8097L544.6204,568.0508L545.6645,567.77075L545.665,567.77216C546.71,567.4971,548.88666,566.6229,550.534,565.9048L550.5507,565.8972C564.82025,559.25806,570.27203,544.55096,563.75354,530.54065C563.6703,530.3615,563.5868,530.1868,563.49963,530.00775L563.4983,530.00464C560.40234,523.7257,555.7329,519.02356,548.9331,515.34216L548.92395,515.3372C547.7352,514.7146,546.74963,514.15625,546.2318,513.8406L546.2366,513.84216C546.8822,512.0749,549.2156,506.09796,549.9114,504.40527C550.29675,504.5075,550.9479,504.73254,551.75525,505.08563L551.7555,505.08722C563.4603,510.26923,573.28174,521.90607,575.8634,533.6898L575.86365,533.691L576.5866,536.9658C576.65533,537.2765,576.9112,537.51086,577.22687,537.5517L579.5234,537.8495L579.52716,537.8499C589.6038,539.1043,600.4386,544.8033,606.43066,551.9179C609.2125,555.23944,612.647,561.7762,613.723,565.791L613.724,565.79486C614.6715,569.2553,615.00806,577.47723,614.3474,581.11145L614.34705,581.11316C612.5963,590.86755,607.0503,599.76056,598.6903,606.07404L598.6903,606.07544L596.35114,607.81775C596.16,607.9602,596.0474,608.18463,596.0474,608.42303L596.0474,612.25073C596.0474,617.1488,595.1403,621.07715,592.8913,625.78467C591.3571,628.93585,590.4279,630.27454,587.5036,633.24066L587.50116,633.243L583.88617,636.943C583.6879,637.1459,583.6203,637.44275,583.71063,637.7116L585.0717,641.75183C587.4019,648.9123,590.40045,653.7078,595.06195,657.9336L595.0623,657.9341C600.56165,662.913,607.7737,665.3865,616.374,665.3865C622.986,665.38654,630.42365,663.92615,638.5651,661.0198L638.5788,661.0147L638.5789,661.01624C640.858,660.19257,643.2077,659.30176,644.0972,658.8784C643.9477,659.3484,643.7404,659.9378,643.4808,660.5781L643.47235,660.59985C640.71796,668.0449,639.8254,676.54596,641.3661,682.27576L641.3661,682.27734C643.6117,690.81726,650.47974,697.1412,659.3762,699.026L659.376,699.0275C661.2328,699.42224,663.74524,699.6182,666.16406,699.6184 Z"/>
</g>
<g style="fill:rgb(255,255,255); fill-opacity:1.0; stroke-linejoin: miter">
<path d="M641.4044,735.9029C632.2489,738.2865,626.28955,749.392,628.9984,759.0354C630.73193,764.9944,634.5243,769.2744,640.2667,771.6041C649.0432,775.1255,660.5282,770.46625,664.26636,761.85254L665.7291,758.43933L724.9967,758.6022L784.2643,758.7106L784.2643,801.1293C784.2643,827.35016,784.4811,844.25244,784.806,845.44446C785.0769,846.4738,785.83545,847.8826,786.4314,848.53265C787.5148,849.6702,787.73145,849.6702,806.8013,849.67035L826.08765,849.67004L827.6045,852.81256C829.12134,856.06305,833.13043,860.2887,836.16425,861.85986C838.5479,863.1056,844.1281,863.756,847.81195,863.26843C853.98785,862.40125,858.7553,858.7178,861.6265,852.5418C862.87274,849.88696,863.0893,848.7497,863.0893,844.578C863.0893,840.46063,862.87274,839.2144,861.68085,836.6683C859.9472,832.9848,857.23846,830.1674,853.446,828.163C850.84564,826.8086,850.1414,826.70044,844.66974,826.7004C839.4687,826.7,838.3852,826.86255,836.11005,828.0001C832.5345,829.788,829.12134,833.3638,827.5503,836.93896L826.25024,839.9727L809.8893,839.97504L793.5283,839.9726L793.3656,796.47064C793.20325,756.0559,793.14905,752.91364,792.2279,751.23425L791.2528,749.5007L728.51807,749.5003L665.7833,749.5006L664.04956,746.033C662.0991,742.07855,658.5779,738.5569,654.78564,736.87756C652.1311,735.6857,644.43823,735.1443,641.4044,735.9029 Z M651.2643,745.4374C652.1852,745.9247,653.702,747.00854,654.569,747.9293C655.86914,749.2833,656.1399,750.04205,656.3025,753.23846C656.57336,757.735,655.70654,759.631,652.45605,762.0147C650.34326,763.58594,649.9641,763.6944,646.7136,763.36926C641.13367,762.8818,638.09985,760.38983,637.6122,755.8389C637.01624,750.855,638.8583,747.00867,642.59644,745.3835C644.8175,744.40796,649.0973,744.4619,651.2643,745.4374 Z M848.3537,835.964C852.30853,837.9687,854.15045,840.7314,854.15045,844.578C854.15045,849.12854,851.3333,852.92096,846.9993,854.1125C844.3448,854.8172,842.0152,854.3837,839.36066,852.64996C836.5434,850.8076,835.189,848.42395,835.189,845.1734C835.189,837.85974,842.2861,832.876,848.3537,835.964 Z"/>
</g>
<g style="fill:rgb(255,255,255); fill-opacity:1.0; stroke-linejoin: miter">
<path d="M581.08295,416.8178C575.6654,418.60574,571.0065,422.56055,568.78516,427.3817C567.10583,431.06592,567.1599,439.13806,568.89355,442.71378C570.7356,446.45163,573.9319,449.8104,577.5616,451.70688C580.2161,453.11484,580.8663,453.7651,581.1374,455.11984C581.2996,456.04037,581.4622,462.37936,581.4622,469.0967L581.4622,481.39484L578.5368,482.64075C575.01526,484.10327,570.5729,488.54602,568.94775,492.22974C567.37646,495.69708,566.9972,501.76477,568.08093,505.50226C570.4104,513.46643,578.04926,518.7214,587.0423,518.55884C593.7601,518.3964,599.99005,514.38684,602.96967,508.21167C604.26996,505.55682,604.4322,504.5274,604.4865,500.03088C604.4865,495.58862,604.26984,494.45117,603.07806,491.8506C601.07367,487.5705,598.14813,484.59082,594.1392,482.6408L590.67206,481.01544L590.78046,467.36337L590.94293,453.71103L593.1099,452.73618C598.7983,450.08182,602.31964,446.0184,603.9991,440.22144C607.3038,428.46536,599.28595,417.08875,586.988,416.27585C584.7127,416.16757,582.4914,416.3301,581.08295,416.8178 Z M591.1054,426.84003C596.95636,429.81967,597.01056,440.3845,591.2139,443.25546C588.39655,444.718,583.196,444.5557,580.9205,442.98434C577.7242,440.81735,576.85724,439.13806,576.85724,435.12906C576.85724,431.06592,578.04913,428.73624,581.1374,426.83997C583.41266,425.43185,588.39655,425.43192,591.1054,426.84003 Z M591.1597,491.9588C594.4643,493.80084,595.27704,495.42578,595.27704,499.8684C595.27716,503.39008,595.11444,503.93152,593.5975,505.82788C592.6224,507.0194,590.83453,508.32007,589.37177,508.91553C587.1506,509.8907,586.55475,509.94507,584.33356,509.34906C581.0289,508.4278,578.9703,506.91107,577.67,504.3647C576.4239,501.87274,576.2614,497.91797,577.3448,495.80542C578.4284,493.7467,581.02875,491.41687,582.87067,490.82104C585.09186,490.11676,588.83,490.60413,591.1597,491.9588 Z"/>
</g>
<g style="fill:rgb(255,255,255); fill-opacity:1.0; stroke-linejoin: miter">
<path d="M720.4989,456.07895C717.3567,457.59586,712.42664,462.363,710.85583,465.50516C710.09753,466.9141,709.2844,469.29788,709.0134,470.7604C707.6051,478.12833,712.64355,487.28394,719.9031,490.64294L723.0995,492.1056L723.0995,526.39856L723.0995,560.6369L706.14246,585.23285C696.76996,598.72217,688.21014,611.1283,687.07306,612.8618L685.01434,615.9497L671.52435,615.9507L658.08905,615.9517L656.7889,612.9701C655.16327,609.3401,651.47943,605.656,647.36224,603.65173C644.6535,602.3513,643.6242,602.13464,639.3984,602.13464C635.49774,602.13464,633.9808,602.4058,631.86835,603.381C627.5341,605.38525,624.77106,607.986,622.767,612.04895C621.142,615.3538,620.9793,616.11224,620.97943,620.555C620.9793,624.67194,621.24994,625.91785,622.4417,628.5183C624.1214,632.1481,627.8051,635.94037,631.27264,637.6198C634.6313,639.2449,641.18634,639.67834,645.14154,638.54047C650.3963,636.9697,655.54315,632.0939,657.11395,627.16406L657.7099,625.159L669.6822,625.105C683.49725,625.10516,688.91486,624.7808,689.89044,623.96814C690.7027,623.3177,699.85785,610.5867,708.3093,598.3431C711.61414,593.57574,718.33215,583.8242,723.3163,576.67303L732.3092,563.6707L732.3093,554.19055C732.3093,548.98944,732.4719,532.84534,732.6886,518.3265L733.0137,491.94342L735.23456,491.1306C738.59357,489.83008,742.8735,485.82126,744.60724,482.2457C745.96124,479.48294,746.12396,478.61557,746.1241,473.46915C746.12396,468.37686,745.96124,467.51065,744.6612,465.0723C742.9278,461.7133,739.02716,458.02945,735.66815,456.51205C731.9303,454.8328,723.69556,454.61618,720.4989,456.07895 Z M733.23035,465.66806C734.0427,466.3179,735.34296,467.61832,735.99335,468.64743C737.72675,471.13968,737.5102,476.66556,735.6141,479.32004C730.41296,486.63385,718.22363,482.67914,718.2234,473.68564C718.22363,470.9233,719.4153,468.5934,722.01624,466.2098C724.29126,464.1511,724.34534,464.1511,728.0294,464.3677C730.68384,464.5303,732.1471,464.85538,733.23035,465.66806 Z M644.0036,612.2658C647.5252,614.1081,648.5545,615.8415,648.7712,620.33777L648.9876,624.12976L646.0081,627.16406L642.97406,630.1434L639.1822,629.9264C634.6856,629.7101,632.95197,628.6807,631.1641,625.1593C629.70135,622.3967,629.5391,618.2794,630.67645,616.058C633.0601,611.4533,639.0734,609.7734,644.0036,612.2658 Z"/>
</g>
<g style="fill:rgb(255,255,255); fill-opacity:1.0; stroke-linejoin: miter">
<path d="M553.1078,327.82248C549.5321,328.256,543.7893,331.2351,541.4601,333.9441C540.3767,335.1902,538.85974,337.5198,538.1553,339.03665L536.85474,341.90784L530.78723,341.90756C527.42834,341.9079,524.4486,342.1247,524.1234,342.3412C522.8236,343.15387,522.2274,345.3751,521.74,350.7382C521.46924,353.7722,521.2528,383.7311,521.1985,417.3196L521.1986,478.37527L517.73145,480.0545C511.28458,483.08868,508.08817,488.23492,507.7631,496.03638C507.4924,502.59137,508.7925,506.22113,512.8556,510.2303C519.08606,516.29736,528.40393,517.43555,535.8801,512.9385C541.4602,509.5802,545.46924,501.94165,544.92737,495.6029C544.3313,488.45166,538.1553,480.7591,531.38367,478.7543C530.4624,478.48343,530.40845,474.96237,530.4083,415.04428L530.40796,351.60495L533.496,351.76776C536.85474,351.93015,536.58386,351.6591,540.16003,357.61865C544.3312,364.55338,555.65405,367.2622,563.7262,363.30695C570.4978,360.00232,574.8319,352.3097,574.0735,344.9417C572.98987,334.48587,563.3468,326.57645,553.1078,327.82248 Z M558.52527,337.57388C561.07166,338.278,563.8887,341.14972,564.5928,343.6956C565.29736,346.24216,564.4846,350.52188,562.9133,352.74326C561.45105,354.80167,558.68774,355.99353,555.27466,355.99353C548.01514,355.99332,543.62695,349.22147,546.6067,342.61194C548.77356,337.84464,553.1078,336.00275,558.52527,337.57388 Z M530.1918,488.12677C538.75146,492.0276,536.8013,504.86682,527.3745,506.38324C523.1489,507.0338,519.08606,504.8128,517.35205,500.96643C515.6727,497.2282,516.2687,493.32745,519.0316,490.51044C522.3905,487.0973,526.12854,486.28485,530.1918,488.12677 Z"/>
</g>
<g style="fill:rgb(255,255,255); fill-opacity:1.0; stroke-linejoin: miter">
<path d="M553.108,855.24C549.5323,855.67377,543.7896,858.65283,541.46027,861.36163C540.3769,862.60785,538.8599,864.9375,538.15546,866.45447L536.85504,869.32556L530.78754,869.325C527.4285,869.32556,524.4489,869.54236,524.1237,869.75867C522.8238,870.5714,522.2277,872.7926,521.7402,878.15594C521.46954,881.1898,521.2529,911.1488,521.1986,944.7373L521.19885,1005.7927L517.73157,1007.4718C511.28488,1010.50586,508.0884,1015.65234,507.7634,1023.45374C507.49265,1030.0089,508.7927,1033.6384,512.85583,1037.6476C519.0862,1043.7147,528.40405,1044.853,535.88025,1040.356C541.46045,1036.9974,545.4695,1029.3593,544.9276,1023.02026C544.33154,1015.86914,538.1555,1008.1765,531.3839,1006.17163C530.4625,1005.901,530.4087,1002.37976,530.40857,942.46185L530.40814,879.0225L533.4963,879.18536C536.85504,879.34784,536.58417,879.07684,540.16034,885.03625C544.3314,891.97076,555.6543,894.67993,563.7263,890.7247C570.4979,887.42,574.8322,879.7274,574.0738,872.35944C572.9902,861.9035,563.347,853.994,553.108,855.24 Z M558.52545,864.9914C561.07196,865.6959,563.88885,868.56757,564.59296,871.1133C565.29755,873.65985,564.4848,877.9396,562.91364,880.161C561.45123,882.21936,558.68805,883.41113,555.27496,883.41113C548.01544,883.411,543.62726,876.6391,546.6069,870.02966C548.77386,865.26215,553.108,863.4202,558.52545,864.9914 Z M530.192,1015.5442C538.7517,1019.44507,536.8014,1032.2843,527.37476,1033.801C523.1492,1034.4513,519.0862,1032.2301,517.3523,1028.3838C515.673,1024.6459,516.2689,1020.74475,519.03186,1017.92786C522.39075,1014.5148,526.1288,1013.7023,530.192,1015.5442 Z"/>
</g>
<g style="fill:rgb(255,255,255); fill-opacity:1.0; stroke-linejoin: miter">
<path d="M635.433,762.9517C632.07434,764.0891,627.6864,768.09845,625.6277,771.8366C624.3816,774.2202,624.00244,775.57465,623.83997,779.2041C623.40674,786.789,626.1155,792.3688,631.8578,796.10693C641.6633,802.4453,655.2617,798.65326,659.4873,788.4141L660.7876,785.32623L674.8734,785.32837L688.9585,785.32605L693.8888,788.4141C712.3624,800.1161,746.5469,822.38153,747.14294,823.14044C747.63074,823.79034,747.79285,827.366,747.79297,836.73846L747.79297,849.52386L744.2717,851.3658C739.6127,853.7493,735.82043,857.86694,734.57434,861.98413C733.21985,866.26385,733.54504,873.4696,735.27905,876.7746C737.1207,880.34973,740.4795,883.70825,743.8926,885.38745C746.5469,886.68805,747.52234,886.85034,752.344,886.85034C756.1903,886.85034,758.4115,886.57965,759.81995,885.9833C762.42065,884.7916,767.0254,880.51184,768.70483,877.64105C771.08875,873.5779,771.30505,864.20496,769.1383,859.9794C767.51294,856.837,763.07056,852.7196,759.7117,851.2032L756.4613,849.74066L756.4071,834.73364C756.4071,826.4989,756.2446,819.29376,756.02783,818.8063C755.4319,817.34344,747.79285,812.2509,707.97437,786.5726L691.77576,776.1165L676.4441,776.1175L661.11255,776.1165L659.6498,772.9743C657.9165,769.3448,654.1238,765.33545,650.76465,763.60175C647.56824,761.9223,639.38794,761.597,635.433,762.9517 Z M646.97266,771.99915C649.08545,773.13684,651.41504,776.3872,651.74,778.7166C652.8779,787.27637,644.2639,793.1272,637.167,788.63074C634.025,786.6262,632.9414,784.6216,632.9414,780.7212C632.9414,777.14575,633.8082,775.3039,636.4625,772.9202C638.1963,771.40314,638.73816,771.2408,641.93445,771.2408C643.93896,771.2408,646.10596,771.56573,646.97266,771.99915 Z M757.978,860.57556C761.44507,863.01355,762.7456,869.73126,760.5244,873.63196C759.1703,875.96173,755.4321,877.96606,752.3982,877.96606C749.4728,877.96606,745.6804,875.96173,744.16345,873.68616C743.18823,872.27704,742.9177,871.0857,742.9177,868.5937C742.91736,862.2007,746.6554,858.73376,753.04846,859.16656C755.2693,859.32904,756.89465,859.8169,757.978,860.57556 Z"/>
</g>
<g style="fill:rgb(255,255,255); fill-opacity:1.0; stroke-linejoin: miter">
<path d="M668.6092,442.60654C663.67914,443.9064,658.26166,448.51175,656.09454,453.17032L654.79425,456.04178L639.08344,456.3123C621.42255,456.6376,621.0972,456.6915,620.5014,460.37546C620.2846,461.51303,620.12225,473.64822,620.12225,487.35468L620.12225,512.3298L617.14264,513.7924C612.86273,515.9055,609.72076,518.9936,607.8787,523.00244C606.52423,525.9273,606.3077,527.01105,606.36176,531.23706C606.36176,535.5168,606.52423,536.5459,607.82465,539.2548C609.55804,542.7223,613.18787,546.24316,616.8718,547.9768C618.8762,548.898,620.33905,549.11456,624.99786,549.11456C629.9278,549.11456,631.01154,548.95233,633.0157,547.8685C636.5915,545.9726,640.00433,542.5595,641.6298,539.20056C643.74286,534.92084,644.0135,528.69086,642.27985,524.19415C640.7629,520.131,637.13336,516.23047,632.7994,513.95483L629.6031,512.2755L629.44025,488.81738L629.3317,465.4139L642.06305,465.41586L654.7403,465.41403L656.20306,468.39377C657.9908,472.02335,662.48737,476.41165,666.00885,477.983C667.6883,478.6873,670.1801,479.17453,673.1058,479.39084C677.43964,479.60782,677.76483,479.55374,681.611,477.65738C688.00385,474.51517,691.4167,469.42282,692.0129,462.2175C692.9338,451.27414,685.3492,442.71487,674.4058,442.33554C672.1303,442.22733,669.52997,442.33548,668.6092,442.60654 Z M677.5478,451.9786C680.74445,453.6038,683.23663,457.55875,683.1823,460.8633C683.0195,469.04373,672.9974,473.26944,667.0921,467.68942C664.81683,465.5768,664.0042,463.62625,664.0042,460.538C664.0042,457.23325,664.97955,455.12094,667.3631,453.27884C670.83014,450.6783,674.1351,450.29904,677.5478,451.9786 Z M629.54877,522.5689C632.52826,523.9775,634.3703,527.0651,634.3703,530.58685C634.3703,534.1622,633.1784,536.492,630.36127,538.5503C623.53534,543.4803,614.6506,538.4963,615.3548,530.09937C615.95074,523.1647,622.9394,519.4267,629.54877,522.5689 Z"/>
</g>
<g style="fill:rgb(255,255,255); fill-opacity:1.0; stroke-linejoin: miter">
<path d="M790.9669,615.03033C785.9829,617.0345,783.1658,619.7432,780.5653,624.8898L779.15674,627.7069L770.3262,628.03186C761.1704,628.35675,741.12573,628.6822,702.71564,629.1697C666.3642,629.6033,645.94,629.98254,640.1434,630.3075L634.72565,630.57837L632.82965,627.00256C630.60846,622.77704,626.81635,618.98474,623.18646,617.41364C619.66504,615.8425,613.21826,615.4629,609.751,616.65515C604.171,618.55115,599.67456,623.21045,597.56177,629.2777C596.26154,633.1788,596.26154,635.9955,597.61597,640.05865C600.59546,648.83496,608.07153,653.7648,617.33545,653.16876C623.7824,652.7361,628.92914,649.21436,632.5588,642.7672L634.455,639.30005L661.43414,638.9757C676.22406,638.8131,694.9687,638.54205,702.9865,638.3795C711.0587,638.27094,731.42847,637.94574,748.27673,637.7834L778.99414,637.4042L780.4027,640.3837C782.0823,643.9056,786.1996,647.9686,789.8292,649.64764C791.8878,650.6227,793.3507,650.8396,797.79297,650.8396C802.99365,650.8396,803.37305,650.7854,806.73193,648.889C814.91223,644.3928,818.27124,635.887,815.5082,626.894C813.4497,620.39325,809.87415,616.92615,803.0481,614.8134C798.44324,613.40515,794.75916,613.4592,790.9669,615.03033 Z M800.8269,623.53546C808.9531,626.24414,809.4949,637.51227,801.6936,641.3048C798.82227,642.71326,796.81775,642.71326,793.94666,641.41327C790.47925,639.84186,788.63745,637.0249,788.42065,633.0164C788.204,628.6821,789.7208,625.9193,793.1881,624.13165C795.8428,622.8312,798.06396,622.61456,800.8269,623.53546 Z M621.3986,627.1109C625.29926,630.2531,626.2745,634.8583,623.9992,639.2458C621.6153,643.6883,616.25195,645.3136,611.4303,642.98395C607.584,641.142,606.60876,639.6797,606.3921,635.454C606.1212,630.4695,607.31287,628.13995,611.4302,625.919C613.97656,624.5642,618.8523,625.10614,621.3986,627.1109 Z"/>
</g>
<g style="fill:rgb(255,255,255); fill-opacity:1.0; stroke-linejoin: miter">
<path d="M608.8253,827.8118C600.9701,828.7331,595.1735,833.93427,593.1148,841.8435C590.8936,850.56537,594.90265,858.80005,603.62463,863.40515L606.9835,865.1926L606.9835,878.6823L606.9834,892.2258L603.8956,893.79706C599.1825,896.1812,596.41943,898.83563,594.41504,902.95294C592.8441,906.14954,592.6273,907.0703,592.6273,910.9172C592.6273,914.65485,592.8983,915.73846,594.36084,918.8803C598.2074,927.061,605.4667,930.74457,615.27234,929.4986C620.90674,928.7401,625.7825,924.8397,628.5454,918.826C629.7373,916.3339,630.00806,914.9799,630.00806,911.1875C630.00806,907.0161,629.8456,906.20374,628.2202,902.9527C626.21594,898.88995,623.72363,896.45166,618.90186,893.90533L615.65137,892.17163L615.6515,878.6823L615.6515,865.1926L619.1189,863.5133C623.01965,861.6714,626.54114,858.1497,628.5995,854.08685C629.7373,851.7572,629.8456,850.9989,629.6289,845.47284C629.41223,838.5932,628.8705,837.1301,625.24084,833.50037C620.68994,829.0582,615.10986,827.1077,608.8253,827.8118 Z M617.16846,838.59283C622.74866,842.71014,621.88196,851.86615,615.59753,855.1163C612.40125,856.7957,606.87524,855.76587,604.4916,853.1116C602.59534,851.05286,602.1079,849.6985,602.1079,846.4478C602.1079,841.8433,603.67896,839.29663,607.52527,837.4009C607.95874,837.1845,609.90906,837.0759,611.8595,837.1299C614.62244,837.2384,615.76,837.56335,617.16846,838.59283 Z M615.92236,902.6816C621.2318,905.71564,622.58606,912.0,618.9021,917.03784C617.6561,918.7719,616.6809,919.4217,614.5139,920.07196C607.52527,922.18475,602.1079,918.2298,602.1079,911.1875C602.1621,903.6031,609.52966,899.05176,615.92236,902.6816 Z"/>
</g>
<g style="fill:rgb(255,255,255); fill-opacity:1.0; stroke-linejoin: miter">
<path d="M862.99817,668.0671C859.531,668.6627,857.3639,669.90924,854.0051,673.2679C849.56274,677.7104,847.9915,682.6942,848.96674,689.0327C850.05023,695.6964,853.5174,700.464,859.36835,703.1726L862.51044,704.63556L862.51044,714.9826L862.51044,725.33L844.79535,725.655C834.98956,725.8716,794.35815,726.197,754.37695,726.4139L681.7821,726.7384L680.7529,724.08405C680.1029,722.2962,678.58594,720.2374,676.14795,717.79956C671.92224,713.57404,669.1593,712.49054,662.6583,712.4904C659.24536,712.4904,657.99915,712.7613,655.2905,714.0615C649.81885,716.6077,646.0266,721.5916,644.7262,727.8761C643.9137,731.9394,644.34717,735.1897,646.406,739.36145C648.2477,743.3162,651.28174,746.1872,655.5072,748.1916C658.10767,749.3836,659.24536,749.6003,663.4169,749.6003C667.91345,749.6004,668.5635,749.438,671.70557,747.75854C675.6605,745.5914,679.6693,741.42,680.53613,738.5488L681.13196,736.49L690.17944,736.11115C695.10925,735.94836,733.411,735.67725,775.28845,735.515C817.166,735.35284,855.30524,735.1358,860.0186,734.97314C867.87396,734.7565,868.79486,734.6479,870.4201,733.51013L872.2619,732.2642L872.2618,718.44977L872.2618,704.6353L874.86237,703.6057C878.5462,702.0889,882.6635,697.97144,884.50543,693.9084C885.8057,691.0371,886.0225,689.8991,886.0225,685.94476C886.02264,680.1477,884.8306,677.27673,880.76764,673.2679C877.24615,669.69226,875.5666,668.82556,871.12445,668.12115C867.27795,667.47144,866.5737,667.47144,862.99817,668.0671 Z M871.5036,677.60144C878.492,680.9062,878.9255,690.0077,872.3161,694.45056C869.93256,696.0756,865.49005,696.1299,862.56464,694.6128C856.768,691.6873,856.17206,682.74835,861.4812,678.794C865.1111,676.08496,867.6572,675.8141,871.5036,677.60144 Z M667.80493,722.7295C673.16846,726.03455,674.3602,732.6976,670.3513,737.465C668.4552,739.6864,666.3424,740.66156,663.3085,740.66144C657.9452,740.6072,653.8279,736.38165,653.8279,730.9098C653.88196,727.11786,655.6697,724.2463,659.08264,722.35016C660.8705,721.32104,665.9088,721.5919,667.80493,722.7295 Z"/>
</g>
<g style="fill:rgb(255,255,255); fill-opacity:1.0; stroke-linejoin: miter">
<path d="M764.3489,660.55786C762.56104,655.14044,758.6062,650.4815,753.78503,648.26013C750.10095,646.5808,742.0288,646.6351,738.453,648.3686C734.71497,650.21063,731.3563,653.4069,729.45984,657.0365C728.05176,659.6911,727.4015,660.3412,726.0469,660.61224C725.1262,660.77466,718.78735,660.9372,712.06995,660.9372L699.77203,660.9374L698.5262,658.01166C697.06354,654.4903,692.62067,650.0479,688.93695,648.42285C685.4699,646.8517,679.40216,646.47235,675.6646,647.55597C667.70026,649.8855,662.4455,657.52423,662.6081,666.5173C662.7703,673.2349,666.77997,679.4651,672.9551,682.44446C675.60986,683.7448,676.6393,683.90717,681.13574,683.96136C685.5781,683.96155,686.71545,683.7448,689.31604,682.5529C693.5961,680.5487,696.57587,677.6232,698.5262,673.6144L700.1513,670.1469L713.80334,670.2554L727.4557,670.4179L728.43054,672.5849C731.08496,678.27325,735.1482,681.7948,740.9452,683.47424C752.7013,686.7787,764.078,678.761,764.89087,666.4629C764.99915,664.18787,764.83655,661.96655,764.3489,660.55786 Z M754.3268,670.5803C751.34717,676.4313,740.7822,676.48566,737.91125,670.68896C736.4487,667.87164,736.61096,662.6708,738.1824,660.39545C740.34937,657.19916,742.0288,656.33234,746.03784,656.33234C750.1008,656.33234,752.4304,657.524,754.3268,660.61224C755.73486,662.8876,755.73486,667.8714,754.3268,670.5803 Z M689.20795,670.6347C687.3659,673.9393,685.74115,674.7521,681.2985,674.7521C677.7768,674.7521,677.2353,674.58954,675.33905,673.0724C674.1475,672.09735,672.84686,670.30963,672.2513,668.8468C671.27606,666.62555,671.22186,666.02966,671.8177,663.80835C672.7391,660.5039,674.2558,658.44507,676.8022,657.14496C679.2941,655.8989,683.24884,655.7365,685.3614,656.8198C687.4201,657.9035,689.74994,660.5039,690.3459,662.3458C691.0501,664.567,690.5628,668.30505,689.20795,670.6347 Z"/>
</g>
<g style="fill:rgb(255,255,255); fill-opacity:1.0; stroke-linejoin: miter">
<path d="M686.65955,881.1875C681.7296,879.8878,676.31226,875.2826,674.145,870.6238L672.8446,867.7523L657.1338,867.48157C639.4729,867.1565,639.1477,867.10254,638.55176,863.41846C638.33496,862.2809,638.1726,850.14575,638.1726,836.4392L638.1726,811.46405L635.193,810.00146C630.91296,807.88824,627.771,804.80023,625.92883,800.7914C624.57446,797.86646,624.3579,796.78284,624.412,792.5568C624.412,788.2772,624.57446,787.2479,625.87476,784.53925C627.6083,781.0718,631.23816,777.5506,634.92224,775.8172C636.9265,774.89575,638.3893,774.6793,643.0481,774.6793C647.97815,774.6793,649.06177,774.8414,651.0659,775.9255C654.6417,777.82135,658.05457,781.2343,659.68005,784.59344C661.7931,788.87305,662.06384,795.103,660.3302,799.59973C658.8131,803.6628,655.1836,807.5635,650.8496,809.8389L647.6533,811.51825L647.4907,834.9767L647.3821,858.3802L660.1135,858.37805L672.7908,858.37994L674.25354,855.4001C676.04126,851.77057,680.5377,847.3823,684.0592,845.8113C685.7385,845.10693,688.23035,844.6194,691.156,844.4034C695.48987,844.18616,695.81506,844.2405,699.6614,846.13666C706.0541,849.2786,709.46704,854.37103,710.0631,861.5764C710.984,872.5199,703.39954,881.07935,692.4562,881.4585C690.18066,881.5668,687.5803,881.4585,686.65955,881.1875 Z M695.59814,871.81555C698.7948,870.19055,701.28687,866.2354,701.23254,862.93054C701.06995,854.75006,691.0477,850.5245,685.1426,856.10474C682.8672,858.2174,682.05457,860.16785,682.05457,863.2559C682.05457,866.5607,683.0299,868.67316,685.4133,870.5155C688.8804,873.11597,692.1854,873.4949,695.59814,871.81555 Z M647.599,801.2251C650.5785,799.81635,652.4204,796.7287,652.4204,793.20715C652.4204,789.63153,651.22864,787.3019,648.4115,785.2435C641.5856,780.31354,632.7007,785.2977,633.405,793.6947C634.001,800.6291,640.9895,804.3672,647.599,801.2251 Z"/>
</g>
</g>
<g>
<g style="fill:rgb(255,255,255); fill-opacity:1.0; stroke-linejoin: miter">
<path d="M382.41907,869.6657C382.42236,869.6652,382.41574,869.6633,382.39627,869.6616L382.39566,869.6626C382.3947,869.6616,382.3909,869.6612,382.38306,869.6612C382.39795,869.6641,382.40887,869.6657,382.41483,869.6657 Z M454.12253,852.0309C454.12903,852.02875,454.1348,852.0265,454.1402,852.02466L454.14014,852.02625C454.25394,851.9829,454.28864,851.96124,454.27515,851.96124C454.26126,851.96124,454.19788,851.9836,454.1175,852.0309 Z M391.28528,840.71954C391.28516,840.71954,391.28516,840.71954,391.28516,840.71954L391.28516,840.7205 Z M431.05374,903.80286C423.59427,903.80286,415.51776,901.22906,408.09937,896.429C401.15616,891.94366,392.8016,883.7077,386.2589,875.02734L386.25552,875.0225L386.25232,875.01855L386.2515,875.0174C384.3863,872.49396,382.74304,870.3304,382.21774,869.66895C381.771,869.7105,380.85147,869.9066,379.81616,870.2317L379.81616,870.2335C377.33835,871.01306,373.91544,871.4213,370.75162,871.4213C368.7145,871.4214,366.74387,871.25226,365.17026,870.8851L365.16583,870.88403C359.87094,869.6146,356.00757,867.3696,351.83643,863.19836C347.75415,859.1161,345.64758,855.69354,343.90952,850.1308L343.90826,850.12683C343.0691,847.38873,342.8969,845.81647,342.8969,841.39966C342.8969,833.6597,344.44208,829.0046,349.2813,821.96155L349.28143,821.9631C351.76364,818.3469,357.6569,812.5451,361.71396,809.6534L361.71567,809.6522C370.70718,803.28125,382.12234,799.46606,391.86304,799.46606C392.53012,799.46606,393.185,799.48376,393.8361,799.51996L393.83643,799.52094C406.2544,800.2171,414.73813,806.5775,418.53973,818.0259L418.541,818.0294C419.21832,820.1038,419.91476,822.7365,420.05847,823.8917L420.0582,823.89307L420.35602,825.8481C420.38705,826.0529,420.3327,826.2618,420.20532,826.4253C420.0779,826.5889,419.889,826.6929,419.68274,826.7129L416.62057,827.0107L416.6149,827.01117C413.40836,827.29895,407.58954,829.0526,404.09012,830.84393L404.08646,830.8458C399.90375,832.9584,392.7867,838.3683,391.49695,840.40076L391.48764,840.4151L391.48746,840.41534C391.36093,840.6049,391.3138,840.69525,391.29608,840.73816L391.29175,840.73975C391.35046,840.88617,391.63904,841.21326,392.7715,842.2452L392.78635,842.25916C393.87668,843.30743,395.778,844.99805,397.0419,846.05115L397.0481,846.05634L398.84113,847.5838L400.94403,845.68756C406.92624,840.2595,414.33234,837.4022,421.4023,837.4022C425.99612,837.4022,430.4523,838.609,434.27054,841.10815L434.27573,841.1119L434.2774,841.11304L434.28638,841.1189C435.6471,842.05426,437.36536,843.3691,438.06528,844.11566L438.06732,844.1178C439.8505,846.03455,442.28546,850.3016,443.12494,852.95166C443.4597,854.00354,443.639,854.37616,443.73563,854.5005L443.7405,854.50214C443.75763,854.4976,443.77936,854.49347,443.80634,854.48694L443.8237,854.4833C446.4953,853.92053,451.79614,852.6542,453.57556,852.1846L453.5706,852.18646C453.18756,850.7935,451.9481,847.415,451.1295,845.7778C447.5036,838.61115,441.9718,833.208,434.8178,829.9224L434.81793,829.92377L431.20303,828.2638C430.95764,828.1511,430.79102,827.91595,430.7662,827.647L430.51102,824.8827C430.09207,820.703,428.36838,814.15704,426.7942,810.8015L426.7942,810.80304C424.70883,806.42316,422.4674,803.35126,418.91873,799.9696C412.59137,793.9761,404.84213,790.58844,394.81512,789.4557L394.81158,789.4554C392.8799,789.228,391.09055,788.9874,390.66318,788.85986L390.66257,788.8614C390.64667,788.85645,390.4406,788.80035,390.28488,788.64557L390.28314,788.6471C389.96588,788.3377,390.03943,787.885,390.0423,787.885L390.04245,787.88654C390.0916,787.41907,390.4435,786.50464,390.80652,785.6796L390.8074,785.6776C393.0879,780.53625,394.30713,772.20636,393.68085,765.9852L393.68066,765.9836C392.76382,756.6479,388.35114,748.55756,381.52197,743.5082L381.52197,743.50977L378.67575,741.4266C378.4384,741.253,378.32343,740.9574,378.3811,740.66925L378.7213,738.968L378.72116,738.9696C378.87695,738.08936,379.0469,734.9394,379.0469,731.88617C379.0469,726.1894,378.25427,722.5274,376.3211,718.7021L376.32083,718.7036L375.48026,717.1469C375.32217,716.8548,375.37384,716.4938,375.60724,716.2575L379.13724,712.6852L379.14044,712.6819C384.1046,707.7176,389.13736,705.4008,395.32507,705.4008C399.84006,705.4008,405.30313,707.2484,409.61728,710.21173L409.62363,710.21625L411.6225,711.61975C411.84473,711.77576,411.96616,712.0392,411.94012,712.30963L411.64288,715.4104C410.89523,723.6342,413.7261,733.6669,418.91077,741.2369C421.27667,744.63763,426.71176,749.89923,428.32025,750.8017L428.32504,750.8033C428.5417,750.4882,428.89142,749.976,429.34207,749.3157C429.92273,748.465,430.62357,747.4379,431.4064,746.3008L434.27255,742.1319L433.4436,741.5042L433.44043,741.50165C425.23532,735.2169,420.86673,724.83136,422.17838,714.77673L422.17947,714.7688C422.78592,710.48035,424.25784,705.878,426.1841,702.5066L426.18512,702.5049C428.20447,698.99304,432.9756,694.1316,436.41428,692.1476L436.41382,692.1491C437.42688,691.52783,438.20422,690.9957,438.59094,690.69116L438.58618,690.69257C438.224,689.8136,437.43506,687.8569,436.55908,685.68335L436.55908,685.68494L434.77066,681.3037L433.95093,681.668L433.95093,681.6696C427.39316,684.6158,420.62433,690.9583,416.8265,697.7152L416.82645,697.7166C416.2106,698.8384,415.54953,699.8922,415.2698,700.21484L415.27182,700.21625C415.28064,700.21484,415.01874,700.5314,414.6335,700.5314C414.48203,700.5314,414.3493,700.48224,414.34262,700.4801L414.34222,700.4799C413.9612,700.3536,412.41132,699.59436,410.72348,698.75037L410.72147,698.74927C405.34375,696.03973,401.88812,695.21497,395.5377,695.21497C391.55756,695.21497,389.34378,695.4282,387.44568,695.9532L387.44485,695.9535C381.70218,697.5347,375.06754,701.46204,371.25848,705.601L369.5148,707.51483C369.3663,707.6778,369.162,707.76135,368.9564,707.76135C368.78946,707.76135,368.62164,707.70636,368.48242,707.5936L365.1651,704.9143L365.16306,704.9128C359.57208,700.3649,352.16415,697.0535,344.36636,695.628L344.36603,695.6295L344.3625,695.6274C342.47495,695.28064,340.6986,694.8821,340.28812,694.7244L340.28775,694.7243L340.28757,694.7258C340.2761,694.7207,340.10434,694.6599,339.97064,694.5262C339.55765,694.1134,339.78116,693.56384,339.80286,693.5061C339.8922,693.2683,340.05066,693.0284,340.22897,692.8206L340.22867,692.82196C341.6057,691.1126,343.79565,683.6852,344.21786,678.703L344.21826,678.6993L344.51584,675.382C344.53464,675.17267,344.63977,674.9808,344.80597,674.8521C344.93915,674.7492,345.10175,674.69434,345.26776,674.69434C345.30902,674.69434,345.35056,674.6977,345.39178,674.7048L346.92273,674.9599L346.92273,674.9615C350.94107,675.6297,354.79214,675.9657,358.37302,675.9657C361.78055,675.9657,364.9334,675.66064,367.73303,675.05206L367.73633,675.0513C382.85443,671.8354,393.92957,661.78577,399.54813,646.1464L399.54852,646.1452C400.34357,643.94354,400.8716,642.60535,401.58423,642.12964C401.81317,641.97675,402.06842,641.89813,402.33713,641.89813C402.39706,641.89813,402.45386,641.90186,402.5089,641.90845L402.50937,641.9094L402.51843,641.9096L402.52744,641.9109C404.50845,642.17505,406.43628,642.30695,408.3062,642.30695C414.72934,642.307,420.5259,640.7525,425.7731,637.62976L425.77316,637.6313C427.2296,636.7559,428.0947,636.24756,428.96085,636.24756C429.42966,636.24756,429.848,636.3922,430.26282,636.5553L430.2728,636.55914C435.2186,638.5839,440.96603,639.7137,446.2559,639.7137C447.62097,639.7137,448.94806,639.639,450.22598,639.48553L450.2326,639.4848C454.4001,639.02167,459.59818,637.8002,462.0615,636.77374L462.06775,636.77106L463.42868,636.21826C463.52136,636.18054,463.61758,636.1625,463.7125,636.1625C463.9795,636.1625,464.236,636.30505,464.3727,636.55096L466.07144,639.6088C468.5357,643.9754,470.7705,649.8694,472.10287,655.4996L472.10388,655.5041C473.09985,659.83405,473.22888,661.259,473.22888,668.3046C473.2289,674.7871,473.05856,677.01996,472.2764,680.62646C469.26813,694.63635,462.68756,706.5084,452.49927,716.3526L452.4975,716.3544L449.8843,718.8631L452.31854,721.126L452.31854,721.1275C458.1681,726.5456,463.755,734.064,467.03046,740.9588C477.07797,761.9163,473.52463,785.74854,457.65903,804.6263L455.9346,806.70264L457.91736,809.6768C461.1913,814.5446,465.4324,823.41364,467.2397,829.1368L467.24164,829.14276C468.05896,831.8096,469.1723,836.4346,469.68817,839.4437L469.68945,839.4514C470.4641,844.27203,470.5927,846.0667,470.37918,853.3268C470.20853,860.1985,469.951,862.4666,469.08444,866.23615L469.08307,866.2421C466.2491,878.1357,461.46698,886.9941,454.11002,893.9617L454.10907,893.96246C448.7084,899.0606,443.7385,901.8168,437.2469,903.1681L437.24698,903.16943C435.2511,903.5943,433.17722,903.80286,431.05374,903.80286 Z"/>
</g>
<g style="fill:rgb(255,255,255); fill-opacity:1.0; stroke-linejoin: miter">
<path d="M332.89172,829.35345L332.70898,829.3309C332.58157,829.299,331.93457,829.17596,331.23004,829.0931L331.21124,829.0907C328.14575,828.6527,324.41385,827.4778,320.99643,825.83405C318.01285,824.4293,316.58096,823.3506,313.98065,820.70703L313.98065,820.7086C308.9567,815.6386,306.55484,810.28577,305.68802,802.4836L305.68802,802.4851C304.51743,792.0328,308.23438,779.41437,314.78082,771.2638L314.78668,771.2565C315.33868,770.5862,315.82193,769.9691,316.17932,769.49695L316.17584,769.4985C315.50662,769.4342,314.581,769.36285,313.5379,769.30023L313.53702,769.30176C308.41843,768.9964,304.83862,768.07776,299.86548,765.74255L299.86548,765.7441C290.2679,761.24646,283.4662,754.5732,278.71292,744.9802L278.71158,744.9774C275.34515,738.11505,274.50977,734.68555,274.46655,726.9992L274.46655,727.00085C274.42383,721.7799,274.5948,720.2094,275.43164,717.30225L275.43164,717.3038C276.47562,713.60754,278.7643,708.7703,280.89737,705.72296L280.89975,705.71967C281.6305,704.688,282.3395,703.6869,282.50375,703.4405L282.50397,703.44037C282.76025,703.0559,283.1947,703.03894,283.3123,703.03595L283.3102,703.0376C283.32788,703.0355,283.3342,703.0354,283.35153,703.0354C284.06125,703.0354,285.5124,703.5768,287.1013,704.3201L287.1013,704.32166C294.80606,707.8146,300.73828,709.22864,307.84174,709.22864C312.60873,709.22864,315.35312,708.85956,324.35336,706.9067L324.35703,706.90594C328.713,705.98376,332.4647,705.49817,335.95108,705.49805C341.88177,705.49805,346.9802,706.9049,352.9171,709.8596L352.9171,709.8611C359.99094,713.3534,364.94507,717.8356,367.59146,723.17206L367.59152,723.17346L367.5937,723.17645C368.97974,725.9935,369.07367,726.50385,369.07367,731.0355C369.07367,735.2581,368.94028,736.1787,367.7812,738.8988C367.0754,740.5748,365.47287,743.3864,364.21423,745.1659L364.20193,745.1829L364.2002,745.1851L364.20032,745.18665C363.5301,746.1014,362.95367,746.9159,362.5578,747.49524L362.55368,747.4968C362.7282,747.50146,362.92154,747.5052,363.13025,747.5052C372.4284,747.5051,380.93622,754.9937,383.3423,765.09375C384.09396,768.18866,384.0934,774.2216,383.34286,777.3559L383.34216,777.35895C382.4632,780.9623,380.0251,785.66705,377.60226,788.3985L377.60098,788.39984C375.7641,790.4609,374.7656,791.11633,371.7039,792.341L371.69586,792.34424C365.91946,794.57886,357.86166,798.9281,354.05966,801.8109L354.05563,801.814C349.5671,805.1698,344.05872,810.8914,341.17618,815.23615L341.17087,815.244C339.92502,817.07104,337.81696,820.9038,336.42035,823.7818L336.4183,823.7858C335.17877,826.3027,333.96805,828.5379,333.5431,829.0285L333.54382,829.02985C333.5491,829.0285,333.29333,829.35345,332.89172,829.35345 Z"/>
</g>
<g style="fill:rgb(255,255,255); fill-opacity:1.0; stroke-linejoin: miter">
<path d="M330.56622,658.29846C330.58743,658.27423,330.60623,658.2493,330.62283,658.2245L330.62283,658.226L330.5621,658.29846 Z M429.24713,513.6035C429.24796,513.6028,429.2489,513.6021,429.2497,513.60156L429.25037,513.60095C429.28638,513.57184,429.30106,513.55664,429.30106,513.55383L429.2991,513.55536C429.29282,513.55676,429.2711,513.57385,429.24234,513.6035 Z M425.54886,504.34283C425.55896,504.3426,425.55618,504.34088,425.53638,504.34088C425.533,504.341,425.5293,504.341,425.52557,504.3413L425.52078,504.34283C425.53052,504.3424,425.5385,504.3427,425.5441,504.34283 Z M308.9515,699.61847C307.0522,699.61847,305.1686,699.4971,303.67557,699.24506L303.67566,699.2466C293.36008,697.504,283.15146,690.388,276.71667,680.5845L276.7139,680.58014C272.52505,674.1025,269.77124,666.73126,268.22568,657.84406L268.2253,657.8422C267.14737,651.5465,267.0645,639.34875,268.00812,632.0574L268.00858,632.0535C271.52747,605.92004,284.90387,587.4675,307.0027,578.4212L307.01227,578.4173L307.02075,578.414L307.02075,578.4155C308.98645,577.63446,310.94022,576.88403,311.8319,576.63165L311.82834,576.63306C311.59274,575.8945,311.12564,574.00793,310.68,572.151L310.67947,572.1488C309.89252,568.82587,309.76602,566.8378,309.72348,559.85846L309.72348,559.8538C309.72345,552.4003,309.84955,551.0806,310.77142,547.74457C312.02374,543.21063,314.05496,538.7082,316.36356,535.3542L316.36356,535.3557C318.12286,532.7202,322.43668,528.3651,325.018,526.57135L325.018,526.57275C327.61093,524.7695,332.45734,522.6107,336.0945,521.61487L336.0974,521.61395C338.65573,520.92444,342.39764,520.5937,346.17224,520.5937C349.8939,520.5937,353.71765,520.9143,356.57755,521.5642L356.58643,521.5663C357.74692,521.8449,358.78818,522.07135,359.49078,522.2188L359.4949,522.22034C359.4431,521.41644,359.34027,520.13696,359.18942,518.6779L359.1886,518.6697C358.36935,509.78754,359.91742,500.4605,363.42892,493.22083L363.4299,493.21887C367.27243,485.3589,374.6049,479.5531,383.07953,477.63104L383.08905,477.62885C384.9552,477.2312,386.48975,477.0473,388.96527,477.0473C390.0215,477.0473,391.25937,477.08093,392.7584,477.14496L392.75583,477.14648C399.17413,477.3603,403.38022,478.22675,409.15414,480.4237L411.0244,481.1164L413.49228,478.9101L413.49222,478.91162C420.8761,472.25653,427.91254,468.23215,435.79074,466.1544L435.7904,466.15598C437.97025,465.57632,440.47366,465.36392,444.44675,465.36392L444.4416,465.36533C444.64053,465.36252,444.85413,465.36172,445.0465,465.36172C451.03143,465.36172,453.97058,466.01706,458.97333,468.41287C469.49088,473.36737,476.84872,482.66052,480.34418,495.34033C481.18478,498.2603,481.30927,499.97455,481.30942,507.11298C481.35205,514.87573,481.26715,515.80676,480.1358,520.0271L480.1358,520.0287C478.63058,525.7043,476.1798,531.5969,473.33545,536.3808L473.33392,536.3834C470.9011,540.43787,465.92545,547.22943,464.18967,548.8761L464.17032,548.89386L463.6086,549.3908L465.82742,552.1027C473.0865,560.95074,477.48746,570.1267,479.2565,580.13684L479.25742,580.14136C480.20886,585.7211,479.91162,595.2708,478.56305,600.3631L478.56305,600.3646C475.41675,612.388,468.71304,621.60486,459.4684,626.4019C455.50665,628.4657,451.33322,629.4921,447.12512,629.4921C441.35797,629.4921,435.56427,627.56464,430.19153,623.7987L428.05765,622.32965L427.3456,622.88336L427.3458,622.8849C423.94916,625.5905,418.665,628.81854,415.68463,630.00366L415.68457,630.00507C412.543,631.28687,411.7555,631.3775,407.02762,631.42053L407.0207,631.4221C402.2704,631.42053,401.5736,631.3363,399.16058,630.1526L399.16058,630.1542C394.96094,628.11896,391.9936,623.99225,390.76254,618.7602L390.76254,618.7618C390.05203,615.8224,390.06076,609.3793,390.7556,605.68896L390.75552,605.69037C390.96863,604.442,391.07117,603.33704,391.06787,602.9294L391.06357,602.9308C390.7499,602.629,389.7774,601.9236,388.52847,601.21L388.51462,601.2019C386.99252,600.2886,384.31335,598.388,382.61478,596.86346L382.6146,596.865C374.8815,590.2061,370.75345,582.23114,370.75342,573.676C370.75342,566.7873,372.6702,562.30365,377.777,557.1533C380.47485,554.41223,381.82425,553.4675,385.21954,551.85675C389.42365,549.8408,393.26324,548.6063,396.24704,548.3838L396.24664,548.3854L397.8157,548.2565C397.83624,548.2548,397.8568,548.254,397.87717,548.254C398.1976,548.254,398.4864,548.45776,398.5913,548.7655L399.86728,552.50793L399.8677,552.5092C403.4227,563.0068,409.50333,570.1179,418.84134,574.7872C421.43665,576.0847,425.41406,577.5464,427.62823,577.9974L427.63882,577.9996L428.26178,578.13586L428.82388,575.5567L428.82388,575.5583C429.1401,574.04565,429.6031,572.00507,429.91983,570.6086L429.91983,570.6084C429.97516,570.36505,430.06137,569.9849,430.10098,569.80963L430.49518,568.0507L429.45096,567.77057L429.4506,567.7721C428.40558,567.4969,426.22882,566.6227,424.58154,565.9047L424.56476,565.89703C410.2951,559.2579,404.84332,544.55084,411.36197,530.54047C411.44522,530.36127,411.5286,530.1864,411.61584,530.00757L411.6173,530.0045C414.7131,523.72565,419.38257,519.0234,426.1824,515.3421L426.19156,515.3371C427.3803,514.71454,428.36588,514.1562,428.88367,513.8405L428.879,513.8421C428.2333,512.07477,425.90002,506.09772,425.2042,504.40515C424.81876,504.50745,424.16763,504.73248,423.36023,505.0855L423.36008,505.08716C411.65518,510.26904,401.8337,521.9059,399.25204,533.68964L399.25192,533.69086L398.52896,536.9656C398.46027,537.27625,398.2043,537.51056,397.88873,537.5515L395.59213,537.84924L395.58835,537.8497C385.51166,539.104,374.67685,544.8032,368.68472,551.9179C365.9029,555.23926,362.46848,561.7761,361.39236,565.7909L361.39136,565.7948C360.4438,569.2552,360.1074,577.4773,360.76804,581.1113L360.76834,581.11304C362.51913,590.8676,368.06522,599.76056,376.4253,606.0738L376.42514,606.0752L378.76434,607.81744C378.95544,607.95996,379.06808,608.1843,379.06808,608.4227L379.06808,612.25024C379.06808,617.1485,379.97513,621.07684,382.22412,625.7843C383.75827,628.9355,384.68753,630.2742,387.61182,633.24023L387.61426,633.24255L391.22925,636.9428C391.42752,637.14575,391.4952,637.4426,391.40482,637.7114L390.04367,641.7518C387.7135,648.9121,384.7151,653.7075,380.05356,657.9335L380.05316,657.93384C374.5538,662.9129,367.34177,665.3867,358.74142,665.3867C352.12943,665.3867,344.69186,663.92615,336.55045,661.0198L336.53668,661.01483L336.5366,661.01624C334.25754,660.1929,331.90778,659.30194,331.01825,658.8786C331.16776,659.3487,331.37512,659.938,331.63477,660.57825L331.6432,660.60004C334.3975,668.0452,335.29016,676.54596,333.74936,682.2761L333.74936,682.27765C331.50385,690.8177,324.6358,697.1414,315.7393,699.02637L315.7395,699.0278C313.8827,699.4224,311.37027,699.61847,308.9515,699.61847 Z"/>
</g>
<g style="fill:rgb(255,255,255); fill-opacity:1.0; stroke-linejoin: miter">
<path d="M333.71118,735.903C342.86667,738.2866,348.826,749.392,346.11713,759.0356C344.38354,764.9945,340.5912,769.2745,334.84882,771.6043C326.0724,775.12573,314.58737,770.46625,310.84918,761.8526L309.38663,758.4394L250.11899,758.60223L190.85132,758.7102L190.85135,801.1291C190.85138,827.3501,190.63467,844.25256,190.30972,845.44434C190.03883,846.4738,189.28029,847.8824,188.68437,848.53253C187.60101,849.6701,187.3843,849.6701,168.31445,849.6701L149.02814,849.6711L147.51134,852.8124C145.99446,856.063,141.98555,860.28845,138.9517,861.8597C136.5681,863.1055,130.98784,863.7559,127.30403,863.2684C121.12805,862.4012,116.360596,858.71783,113.489365,852.5416C112.24321,849.8869,112.026596,848.74963,112.026596,844.57806C112.02659,840.46045,112.2432,839.2145,113.43506,836.66833C115.16874,832.98456,117.87747,830.1673,121.66986,828.1629C124.27019,826.8084,124.97443,826.7003,130.44609,826.7003C135.64713,826.69995,136.7306,826.8625,139.00581,828.0C142.58151,829.788,145.99446,833.3637,147.56544,836.939L148.86552,839.97266L165.22652,839.9749L181.58742,839.97266L181.74998,796.47046C181.91237,756.05554,181.96654,752.9132,182.88768,751.234L183.86273,749.50037L246.5975,749.50134L309.3323,749.50055L311.06598,746.0331C313.01642,742.0786,316.53766,738.55695,320.32986,736.8776C322.98453,735.686,330.6774,735.14465,333.71118,735.903 Z M323.85126,745.4375C322.93042,745.9248,321.41354,747.0086,320.54657,747.9294C319.2464,749.2836,318.9756,750.0422,318.81308,753.2387C318.54208,757.7352,319.40897,759.63116,322.6595,762.015C324.7723,763.5861,325.15146,763.6946,328.40195,763.36957C333.98196,762.882,337.0157,760.38995,337.50327,755.83887C338.0993,750.855,336.25723,747.00867,332.5192,745.3836C330.2981,744.4081,326.01828,744.46204,323.85126,745.4375 Z M126.76221,835.9638C122.80742,837.96875,120.96542,840.7312,120.96544,844.57806C120.96544,849.1286,123.78258,852.921,128.11658,854.11255C130.77112,854.81714,133.10072,854.38354,135.75537,852.6499C138.5726,850.8077,139.92686,848.4239,139.92686,845.17334C139.92685,837.85956,132.8299,832.8759,126.76221,835.9638 Z"/>
</g>
<g style="fill:rgb(255,255,255); fill-opacity:1.0; stroke-linejoin: miter">
<path d="M394.03235,416.81784C399.44995,418.6056,404.1089,422.5604,406.33023,427.3816C408.0095,431.06573,407.95538,439.1379,406.2217,442.71365C404.3797,446.45163,401.18344,449.8104,397.5539,451.70688C394.8993,453.11502,394.24915,453.76523,393.97812,455.1199C393.81586,456.04056,393.65326,462.3796,393.65317,469.0967L393.6532,481.39484L396.57877,482.64062C400.10013,484.10315,404.54254,488.5459,406.16776,492.2296C407.73895,495.69672,408.11816,501.76447,407.03458,505.50195C404.70505,513.46625,397.06628,518.7211,388.0732,518.5586C381.35544,518.3964,375.12534,514.3867,372.14578,508.2115C370.84552,505.5567,370.6832,504.52747,370.6289,500.03088C370.6289,495.58844,370.84552,494.45105,372.03735,491.85046C374.0418,487.5705,376.96735,484.59064,380.97626,482.64062L384.44342,481.01532L384.3352,467.3633L384.17252,453.71115L382.00555,452.73624C376.3171,450.08176,372.79565,446.01834,371.11615,440.22144C367.81158,428.46536,375.8293,417.0887,388.12735,416.27576C390.40262,416.1676,392.6239,416.33002,394.03235,416.81784 Z M384.01004,426.8398C378.15903,429.8194,378.10483,440.3843,383.90152,443.25522C386.7188,444.71786,391.91943,444.5555,394.1949,442.98416C397.39124,440.81726,398.25806,439.13794,398.25806,435.1289C398.25806,431.06577,397.0663,428.73624,393.97806,426.8398C391.70276,425.4317,386.7188,425.4317,384.01004,426.8398 Z M383.95578,491.95862C380.65112,493.80078,379.8384,495.4256,379.8384,499.86816C379.8384,503.3899,380.00107,503.93127,381.51807,505.8277C382.49313,507.01923,384.28104,508.31976,385.74368,508.91534C387.96494,509.89062,388.56082,509.9449,390.78204,509.34888C394.0867,508.42767,396.14536,506.91107,397.4456,504.36456C398.69156,501.87262,398.85406,497.91803,397.7707,495.80518C396.687,493.74652,394.0867,491.41687,392.2448,490.82092C390.02362,490.11652,386.28543,490.60394,383.95578,491.95862 Z"/>
</g>
<g style="fill:rgb(255,255,255); fill-opacity:1.0; stroke-linejoin: miter">
<path d="M254.61655,456.07922C257.7587,457.5962,262.68884,462.36328,264.25964,465.5053C265.01804,466.91425,265.831,469.29785,266.10205,470.7605C267.51038,478.12817,262.47183,487.2838,255.21225,490.64294L252.0159,492.1056L252.01602,526.39844L252.01596,560.63684L268.97308,585.2326C278.3456,598.7219,286.9054,611.12823,288.04257,612.86176L290.10132,615.9497L303.5913,615.9507L317.02646,615.9517L318.32666,612.9701C319.95227,609.3401,323.63626,605.656,327.75333,603.6518C330.4621,602.3514,331.4914,602.13477,335.7172,602.13446C339.61774,602.1346,341.13467,602.40576,343.24722,603.3809C347.58145,605.3852,350.34442,607.98596,352.34854,612.0489C353.97354,615.35376,354.13617,616.112,354.13608,620.55493C354.13608,624.6718,353.86548,625.9177,352.6737,628.5182C350.99414,632.14795,347.31027,635.94,343.84283,637.6197C340.4841,639.24475,333.92914,639.67834,329.974,638.54047C324.7193,636.9697,319.57236,632.0938,318.00153,627.164L317.4055,625.159L305.43338,625.10486C291.6183,625.10504,286.20068,624.7806,285.22528,623.9681C284.41293,623.3176,275.25772,610.5866,266.80627,598.34296C263.5015,593.5756,256.78342,583.8241,251.79926,576.6729L242.80627,563.67065L242.80618,554.19037C242.80617,548.98944,242.64357,532.84534,242.42693,518.32623L242.10179,491.94318L239.88086,491.13043C236.5219,489.82977,232.24199,485.82104,230.50824,482.24567C229.15414,479.4826,228.99146,478.61548,228.99135,473.469C228.99144,468.3767,229.15417,467.51062,230.45435,465.07245C232.18773,461.71332,236.08826,458.02954,239.4473,456.5122C243.1852,454.8329,251.41992,454.6164,254.61655,456.07922 Z M241.88512,465.66815C241.07275,466.31805,239.77249,467.61835,239.12206,468.64746C237.38864,471.13953,237.60518,476.66522,239.50139,479.3199C244.70242,486.6339,256.8918,482.67902,256.8919,473.6856C256.8918,470.92322,255.70013,468.59338,253.0993,466.2099C250.82416,464.15143,250.77005,464.15143,247.08597,464.36804C244.43152,464.53058,242.96838,464.8556,241.88512,465.66815 Z M331.1119,612.26587C327.5904,614.10803,326.5611,615.8416,326.34442,620.3378L326.12778,624.12976L329.10742,627.16406L332.1414,630.1434L335.93332,629.9263C340.4299,629.70996,342.16357,628.6806,343.95126,625.1592C345.41412,622.39667,345.5764,618.27936,344.439,616.0579C342.05542,611.4531,336.0421,609.7733,331.1119,612.26587 Z"/>
</g>
<g style="fill:rgb(255,255,255); fill-opacity:1.0; stroke-linejoin: miter">
<path d="M422.0075,327.82227C425.58322,328.25595,431.32593,331.23505,433.65518,333.94388C434.73856,335.1901,436.25546,337.51965,436.96002,339.03656L438.26047,341.90765L444.32803,341.9074C447.687,341.9078,450.66663,342.12454,450.99185,342.341C452.29172,343.15378,452.88785,345.375,453.3754,350.73807C453.64612,353.7721,453.86258,383.73108,453.91678,417.31952L453.9169,478.37506L457.3841,480.0542C463.83087,483.08838,467.0273,488.2348,467.35233,496.03607C467.6231,502.59113,466.323,506.22076,462.25992,510.22998C456.02954,516.29724,446.71167,517.43524,439.2354,512.93835C433.65524,509.5799,429.64627,501.94153,430.18808,495.6026C430.78418,488.4516,436.96008,480.7589,443.73184,478.75427C444.65317,478.48322,444.70706,474.96216,444.70697,415.04422L444.70737,351.6047L441.6193,351.76758C438.26047,351.93005,438.53137,351.65897,434.9552,357.6184C430.78412,364.5532,419.46124,367.26215,411.38913,363.3069C404.6175,360.0022,400.28326,352.30972,401.04175,344.9417C402.12537,334.48572,411.7684,326.57623,422.0075,327.82227 Z M416.59006,337.57382C414.04358,338.27795,411.22662,341.1496,410.52246,343.69543C409.81796,346.24203,410.6307,350.5218,412.20187,352.74316C413.66428,354.80157,416.42755,355.99344,419.8406,355.99344C427.10016,355.9933,431.48828,349.22144,428.5086,342.61185C426.34167,337.84454,422.00754,336.0027,416.59006,337.57382 Z M444.92368,488.12646C436.36395,492.0274,438.31427,504.86652,447.741,506.38318C451.9666,507.03363,456.02954,504.81256,457.76343,500.9662C459.44278,497.2281,458.84686,493.3272,456.0838,490.5103C452.72504,487.09723,448.98697,486.2846,444.92368,488.12646 Z"/>
</g>
<g style="fill:rgb(255,255,255); fill-opacity:1.0; stroke-linejoin: miter">
<path d="M422.00757,855.24005C425.5833,855.6737,431.32602,858.6528,433.65527,861.3616C434.73868,862.6074,436.2556,864.9373,436.9601,866.4543L438.26056,869.32513L444.32816,869.3248C447.6871,869.32526,450.66675,869.54205,450.99197,869.7585C452.29187,870.5715,452.88797,872.7927,453.3755,878.15576C453.64627,881.1896,453.86264,911.14856,453.917,944.7368L453.91702,1005.79236L457.38422,1007.47156C463.83096,1010.5056,467.0274,1015.6522,467.35248,1023.4536C467.62323,1030.0088,466.32315,1033.6382,462.26007,1037.6473C456.02966,1043.7144,446.7118,1044.8527,439.2356,1040.3556C433.6554,1036.9973,429.64642,1029.359,430.18826,1023.02C430.7843,1015.8689,436.96024,1008.17615,443.73196,1006.1715C444.65323,1005.9009,444.70715,1002.3795,444.70712,942.4617L444.70746,879.02234L441.61942,879.1852C438.26056,879.3474,438.53146,879.0764,434.95532,885.0361C430.7842,891.97076,419.46133,894.67957,411.38925,890.7243C404.61765,887.4197,400.28345,879.72736,401.0419,872.3594C402.12552,861.9033,411.7686,853.99384,422.00757,855.24005 Z M416.59012,864.99133C414.0437,865.69574,411.22675,868.5672,410.52258,871.1131C409.8181,873.6598,410.6308,877.9392,412.20203,880.16095C413.6644,882.2192,416.4276,883.4111,419.8407,883.4111C427.10025,883.4107,431.48837,876.6388,428.5087,870.0295C426.3418,865.2621,422.00757,863.42017,416.59012,864.99133 Z M444.9238,1015.5438C436.36414,1019.4447,438.31448,1032.284,447.74115,1033.8005C451.96674,1034.4509,456.02966,1032.2297,457.76352,1028.3837C459.44293,1024.6455,458.847,1020.7445,456.08395,1017.9275C452.7252,1014.5145,448.9871,1013.7019,444.9238,1015.5438 Z"/>
</g>
<g style="fill:rgb(255,255,255); fill-opacity:1.0; stroke-linejoin: miter">
<path d="M339.68256,762.95184C343.04117,764.0893,347.42908,768.0986,349.48782,771.8367C350.734,774.2203,351.1131,775.5747,351.27563,779.2042C351.7089,786.7891,349.00018,792.36884,343.25784,796.107C333.4523,802.44556,319.8539,798.65344,315.62827,788.41425L314.328,785.32635L300.24237,785.32837L286.1572,785.32605L281.2269,788.4141C262.75323,800.11615,228.56886,822.38153,227.97293,823.14026C227.48503,823.7903,227.32288,827.3661,227.32288,836.7383L227.32288,849.5238L230.8442,851.3656C235.5032,853.7494,239.29541,857.86676,240.54137,861.9842C241.89592,866.2636,241.57072,873.46954,239.83688,876.7743C237.99515,880.3496,234.6364,883.7084,231.22313,885.3873C228.56886,886.68805,227.59343,886.8502,222.77168,886.8502C218.92538,886.8502,216.70418,886.5794,215.29567,885.98334C212.69519,884.79144,208.09036,880.5116,206.41098,877.64075C204.02707,873.57764,203.8108,864.20496,205.97755,859.9792C207.6028,856.837,212.04521,852.7196,215.40417,851.2033L218.65457,849.7406L218.70868,834.7336C218.70868,826.4989,218.87119,819.29376,219.088,818.8062C219.68391,817.3434,227.32286,812.25085,267.14136,786.5727L283.3399,776.1165L298.6715,776.1175L314.003,776.11664L315.4657,772.97455C317.19904,769.345,320.9918,765.3357,324.35095,763.602C327.54718,761.9224,335.7275,761.5971,339.68256,762.95184 Z M328.14294,771.9992C326.03015,773.13715,323.70056,776.3874,323.37558,778.7168C322.2376,787.27655,330.85178,793.1274,337.94858,788.6308C341.0905,786.6263,342.17413,784.6217,342.17413,780.72125C342.1741,777.1458,341.3073,775.30396,338.65305,772.92035C336.91916,771.40326,336.37732,771.24084,333.18112,771.24097C331.1765,771.24097,329.0096,771.5659,328.14294,771.9992 Z M217.1379,860.57556C213.6707,863.0134,212.37025,869.731,214.59146,873.6316C215.94568,875.96155,219.68376,877.96576,222.7177,877.96576C225.64308,877.96576,229.43555,875.9615,230.95241,873.686C231.92766,872.277,232.1982,871.08545,232.1982,868.5935C232.19856,862.2006,228.46048,858.7336,222.06746,859.1664C219.84662,859.329,218.22116,859.81696,217.1379,860.57556 Z"/>
</g>
<g style="fill:rgb(255,255,255); fill-opacity:1.0; stroke-linejoin: miter">
<path d="M306.50613,442.6064C311.4361,443.9064,316.85358,448.5117,319.0209,453.17044L320.32126,456.04196L336.03195,456.3126C353.69278,456.63766,354.01804,456.69156,354.61392,460.37564C354.83075,461.5132,354.993,473.6482,354.99307,487.35455L354.99307,512.32983L357.9727,513.79236C362.25266,515.9056,365.39462,518.99365,367.23676,523.0024C368.59125,525.9275,368.80783,527.0111,368.7537,531.23694C368.7537,535.51666,368.59125,536.5458,367.29086,539.2548C365.5574,542.72205,361.92746,546.24304,358.24347,547.9766C356.2391,548.8979,354.7763,549.1144,350.11746,549.1144C345.18744,549.1144,344.10382,548.9523,342.0996,547.86847C338.52386,545.9723,335.11102,542.5594,333.4856,539.2004C331.37262,534.92065,331.1019,528.6907,332.83557,524.1941C334.35257,520.1309,337.98203,516.2304,342.31604,513.9549L345.5123,512.27545L345.675,488.81744L345.7836,465.41397L333.05234,465.41592L320.37515,465.41403L318.91232,468.39365C317.12457,472.0232,312.62805,476.41156,309.1066,477.98267C307.42715,478.68707,304.93542,479.17438,302.00974,479.3907C297.6758,479.60767,297.35065,479.55353,293.50433,477.6573C287.11166,474.51514,283.69873,469.4228,283.1026,462.21762C282.1816,451.2742,289.76617,442.71475,300.70956,442.33542C302.98505,442.22708,305.5854,442.33542,306.50613,442.6064 Z M297.56763,451.97867C294.37097,453.6039,291.87894,457.55887,291.93323,460.86337C292.0959,469.04367,302.1181,473.2694,308.02332,467.68936C310.2986,465.57675,311.11118,463.62625,311.11118,460.538C311.11118,457.23337,310.13593,455.121,307.75238,453.27878C304.2853,450.67838,300.98032,450.29922,297.56763,451.97867 Z M345.56665,522.5688C342.58716,523.9774,340.7451,527.0652,340.7451,530.5867C340.7451,534.1622,341.93692,536.4918,344.75406,538.5502C351.58008,543.48016,360.4649,538.4961,359.7606,530.0991C359.16464,523.16473,352.1761,519.42664,345.56665,522.5688 Z"/>
</g>
<g style="fill:rgb(255,255,255); fill-opacity:1.0; stroke-linejoin: miter">
<path d="M184.14853,615.0303C189.13266,617.0344,191.94974,619.74316,194.55013,624.8897L195.9587,627.70685L204.78932,628.0318C213.94505,628.3566,233.98987,628.6819,272.39987,629.1695C308.7515,629.60315,329.17545,629.9824,334.97217,630.3074L340.38968,630.57825L342.2857,627.0023C344.507,622.777,348.2992,618.9847,351.92908,617.4136C355.45035,615.8425,361.8972,615.4629,365.36453,616.65515C370.9445,618.5511,375.44104,623.21014,377.5538,629.2774C378.85397,633.1784,378.85397,635.9952,377.4996,640.05853C374.52008,648.8349,367.04382,653.7649,357.77994,653.16895C351.333,652.73615,346.18637,649.2145,342.55664,642.7673L340.66052,639.2999L313.68146,638.97565C298.8915,638.813,280.14688,638.542,272.12906,638.3794C264.05692,638.2709,243.68707,637.9457,226.83873,637.78326L196.1212,637.40405L194.71272,640.3837C193.03325,643.9056,188.91595,647.9686,185.28618,649.64764C183.22758,650.62286,181.76483,650.8398,177.32248,650.8398C172.1218,650.8398,171.7424,650.7855,168.38353,648.88916C160.20317,644.39264,156.84422,635.8869,159.60724,626.89386C161.6659,620.3932,165.24147,616.9261,172.06741,614.81335C176.67236,613.4051,180.35645,613.45917,184.14853,615.0303 Z M174.28862,623.5354C166.16238,626.2441,165.62064,637.5122,173.42184,641.305C176.2932,642.71344,178.2977,642.71344,181.16885,641.41327C184.63623,639.8419,186.47803,637.02484,186.69481,633.0161C186.91144,628.682,185.39447,625.91925,181.92729,624.1316C179.27278,622.8311,177.05157,622.6145,174.28862,623.5354 Z M353.71683,627.1108C349.81613,630.2529,348.841,634.8581,351.1163,639.24567C353.50012,643.68835,358.86346,645.3136,363.68512,642.9841C367.53143,641.1422,368.50665,639.67975,368.7233,635.4539C368.9942,630.4694,367.80252,628.1399,363.68512,625.91895C361.1388,624.56415,356.26297,625.106,353.71683,627.1108 Z"/>
</g>
<g style="fill:rgb(255,255,255); fill-opacity:1.0; stroke-linejoin: miter">
<path d="M366.29022,827.812C374.1455,828.733,379.9422,833.93414,382.0009,841.84357C384.22208,850.5654,380.2131,858.79987,371.491,863.40515L368.1321,865.1928L368.1321,878.68256L368.13208,892.2262L371.2199,893.7973C375.93307,896.18097,378.6962,898.83545,380.7007,902.95276C382.2716,906.1495,382.4883,907.07025,382.4883,910.917C382.48837,914.65466,382.21747,915.7383,380.75482,918.88025C376.9083,927.0607,369.64893,930.7445,359.84326,929.4984C354.2088,928.7403,349.33304,924.84,346.5702,918.8261C345.37833,916.33417,345.10748,914.98004,345.10745,911.1877C345.10745,907.01636,345.26996,906.20386,346.8953,902.9528C348.8996,898.8902,351.3918,896.4518,356.21353,893.9055L359.4641,892.1719L359.46414,878.68256L359.46414,865.1928L355.99677,863.51337C352.09598,861.67145,348.5746,858.1498,346.51608,854.08716C345.37836,851.75726,345.27005,850.9991,345.48676,845.473C345.70346,838.59326,346.2451,837.1305,349.87485,833.50055C354.4257,829.0583,360.00577,827.1078,366.29022,827.812 Z M357.94727,838.593C352.367,842.7103,353.23373,851.8662,359.51813,855.11646C362.7145,856.7959,368.24042,855.76624,370.62402,853.1116C372.52023,851.053,373.00775,849.6986,373.00775,846.4481C373.00775,841.84357,371.43665,839.2969,367.5904,837.40125C367.15695,837.1847,365.20657,837.07605,363.2562,837.12994C360.4933,837.23865,359.35562,837.5637,357.94727,838.593 Z M359.19305,902.6818C353.88367,905.71594,352.5294,912.0003,356.21347,917.038C357.45944,918.7722,358.43466,919.4218,360.60168,920.0721C367.59024,922.18475,373.00772,918.22986,373.0077,911.1876C372.9535,903.60333,365.58585,899.052,359.19305,902.6818 Z"/>
</g>
<g style="fill:rgb(255,255,255); fill-opacity:1.0; stroke-linejoin: miter">
<path d="M112.11746,668.0668C115.58474,668.6626,117.751724,669.9091,121.11052,673.2676C125.55293,677.7102,127.12419,682.6942,126.14896,689.03265C125.065506,695.69617,121.598236,700.4639,115.74735,703.1725L112.60528,704.63513L112.60527,714.9823L112.60528,725.3295L130.32037,725.65466C140.12616,725.8713,180.75746,726.19684,220.73868,726.4135L293.33347,726.7383L294.36273,724.0841C295.01276,722.29626,296.5296,720.23737,298.96765,717.7996C303.1934,713.5741,305.9562,712.4906,312.45724,712.4906C315.87018,712.4906,317.11624,712.7615,319.825,714.06177C325.2967,716.6078,329.08887,721.5918,330.3893,727.8763C331.20193,731.9395,330.76843,735.1899,328.70953,739.3616C326.86783,743.31635,323.83386,746.18726,319.60825,748.1917C317.00778,749.38385,315.87015,749.60046,311.69867,749.60046C307.20218,749.60046,306.55212,749.4379,303.41006,747.7586C299.45514,745.59143,295.44623,741.4199,294.5795,738.5489L293.98358,736.4899L284.93628,736.111C280.00644,735.9483,241.70453,735.67725,199.8271,735.51483C157.94965,735.3524,119.810455,735.13544,115.0972,734.97266C107.241936,734.75604,106.32097,734.6477,104.69561,733.51L102.85379,732.264L102.85379,718.4494L102.8538,704.63513L100.25329,703.6057C96.56949,702.089,92.45219,697.9716,90.61028,693.9085C89.30993,691.0372,89.09322,689.89935,89.093216,685.945C89.09312,680.1479,90.28506,677.27673,94.34806,673.268C97.86955,669.69244,99.549126,668.82574,103.99126,668.1211C107.837746,667.4712,108.54199,667.4712,112.11746,668.0668 Z M103.612144,677.60126C96.62357,680.90625,96.19018,690.00793,102.79961,694.45056C105.18322,696.0755,109.62563,696.12964,112.55108,694.6125C118.34776,691.68726,118.94368,682.7483,113.63443,678.7938C110.00466,676.0848,107.458534,675.8139,103.612144,677.60126 Z M307.31064,722.72943C301.9472,726.0345,300.75546,732.6975,304.76437,737.4651C306.66043,739.68646,308.77322,740.6615,311.80707,740.6615C317.17044,740.6074,321.28763,736.3817,321.28763,730.91003C321.23358,727.118,319.44574,724.24634,316.03287,722.3504C314.24506,721.3211,309.2068,721.59186,307.31064,722.72943 Z"/>
</g>
<g style="fill:rgb(255,255,255); fill-opacity:1.0; stroke-linejoin: miter">
<path d="M210.76663,660.558C212.55452,655.1404,216.5094,650.4816,221.33057,648.26025C225.01463,646.58093,233.08672,646.635,236.6626,648.3687C240.4006,650.21075,243.7593,653.40704,245.65573,657.0367C247.06375,659.6914,247.71399,660.34143,249.06873,660.6125C249.98929,660.7749,256.32828,660.9373,263.0456,660.93744L275.34366,660.9374L276.58942,658.0118C278.05215,654.49036,282.49487,650.04803,286.1786,648.4228C289.6457,646.8518,295.71344,646.4724,299.4509,647.5561C307.41534,649.88544,312.67,657.5243,312.50742,666.5176C312.34515,673.235,308.33563,679.4652,302.16052,682.4447C299.5057,683.745,298.47635,683.9072,293.9798,683.9617C289.5374,683.9618,288.40012,683.745,285.7995,682.5532C281.5195,680.5487,278.5398,677.6232,276.58942,673.6143L274.96426,670.1471L261.31213,670.25543L247.65988,670.41815L246.685,672.58496C244.03067,678.2735,239.96733,681.79474,234.17047,683.4742C222.4144,686.7787,211.03755,678.76105,210.22464,666.46295C210.11642,664.1878,210.27895,661.9666,210.76663,660.558 Z M220.78877,670.5803C223.76843,676.4314,234.3333,676.48566,237.20427,670.6891C238.66685,667.8718,238.50461,662.67096,236.93317,660.3956C234.76625,657.1992,233.08675,656.33234,229.07779,656.3325C225.01479,656.33234,222.68515,657.524,220.78877,660.61224C219.38068,662.8876,219.38068,667.8716,220.78877,670.5803 Z M285.90762,670.6347C287.74973,673.9393,289.37454,674.75226,293.81714,674.75226C297.33884,674.75226,297.88034,674.58954,299.77655,673.07245C300.96805,672.0974,302.26877,670.30963,302.86426,668.8469C303.83948,666.6257,303.8938,666.0297,303.29782,663.8085C302.37653,660.50397,300.8598,658.44525,298.31345,657.14496C295.8215,655.89905,291.8668,655.73663,289.75415,656.82C287.6955,657.9035,285.36566,660.50397,284.76978,662.3458C284.06543,664.567,284.55276,668.3052,285.90762,670.6347 Z"/>
</g>
<g style="fill:rgb(255,255,255); fill-opacity:1.0; stroke-linejoin: miter">
<path d="M288.45627,881.1874C293.3862,879.88776,298.80356,875.2825,300.97083,870.62366L302.2711,867.7524L317.98184,867.4816C335.6427,867.15656,335.96793,867.10266,336.56384,863.4184C336.7806,862.2808,336.943,850.146,336.943,836.4394L336.943,811.4641L339.9226,810.0016C344.2026,807.88837,347.34457,804.8003,349.18665,800.79144C350.54117,797.8665,350.75775,796.7829,350.70364,792.5569C350.7036,788.2773,350.54114,787.24805,349.24075,784.5393C347.50726,781.07184,343.87738,777.55066,340.19336,775.81726C338.18896,774.8958,336.72623,774.6794,332.06738,774.67957C327.13748,774.67957,326.0538,774.8416,324.04956,775.92566C320.47382,777.8215,317.06094,781.2345,315.43552,784.5936C313.32254,788.87317,313.05182,795.10315,314.7855,799.59985C316.30243,803.6629,319.93198,807.56366,324.26602,809.8391L327.46225,811.51855L327.62497,834.97675L327.73358,858.3804L315.0022,858.3783L302.325,858.3801L300.86224,855.4002C299.07446,851.7707,294.57803,847.3826,291.05652,845.8114C289.3772,845.1072,286.88544,844.6196,283.95972,844.4035C279.6259,844.1863,279.30063,844.2405,275.45435,846.1367C269.06165,849.27856,265.6488,854.3713,265.05273,861.57666C264.13177,872.5197,271.71625,881.0791,282.65964,881.4587C284.93515,881.56683,287.53546,881.4587,288.45627,881.1874 Z M279.51764,871.8154C276.321,870.1903,273.8289,866.2352,273.88315,862.9305C274.0459,854.75,284.0681,850.5246,289.97327,856.105C292.24863,858.2175,293.06116,860.16815,293.06116,863.25604C293.06116,866.56085,292.08597,868.67316,289.7024,870.5154C286.2354,873.11597,282.93036,873.495,279.51764,871.8154 Z M327.51666,801.2253C324.5372,799.81647,322.69513,796.7289,322.69513,793.20734C322.69513,789.6318,323.88693,787.30206,326.70407,785.2437C333.53,780.31384,342.4148,785.29785,341.7105,793.69476C341.11456,800.62915,334.12607,804.3674,327.51666,801.2253 Z"/>
</g>
</g>
</g>
</svg>