<?xml version="1.0" encoding="UTF-8" standalone="no"?>
<svg
   version="1.1"
   width="796.92926"
   height="715.40118"
   viewBox="-350 195 796.92926 715.40118"
   id="svg953"
   sodipodi:docname="days-of-algo-icon.svg"
   inkscape:version="1.1.1 (c3084ef, 2021-09-22)"
   xmlns:inkscape="http://www.inkscape.org/namespaces/inkscape"
   xmlns:sodipodi="http://sodipodi.sourceforge.net/DTD/sodipodi-0.dtd"
   xmlns="http://www.w3.org/2000/svg"
   xmlns:svg="http://www.w3.org/2000/svg">
  <defs
     id="defs957" />
  <sodipodi:namedview
     id="namedview955"
     pagecolor="#ffffff"
     bordercolor="#999999"
     borderopacity="1"
     inkscape:pageshadow="0"
     inkscape:pageopacity="0"
     inkscape:pagecheckerboard="0"
     showgrid="false"
     inkscape:zoom="0.49951981"
     inkscape:cx="331.31819"
     inkscape:cy="449.43163"
     inkscape:window-width="1920"
     inkscape:window-height="1027"
     inkscape:window-x="0"
     inkscape:window-y="25"
     inkscape:window-maximized="0"
     inkscape:current-layer="svg953" />
  <g
     id="layer1"
     style="fill:#000000"
     transform="translate(-439.09322,-132.69292)">
    <g
       style="fill:#000000;fill-opacity:1;stroke-linejoin:miter"
       id="g826" />
    <g
       id="g888"
       style="fill:#000000">
      <g
         style="fill:#000000;fill-opacity:1;stroke-linejoin:miter"
         id="g830">
        <path
           d="m 592.6967,869.66595 c -0.003,-3e-4 0.003,-0.002 0.0227,-0.004 l 7.5e-4,10e-4 c 8.5e-4,-10e-4 0.005,-10e-4 0.0125,-10e-4 -0.0149,0.003 -0.0258,0.004 -0.0317,0.005 z M 520.9931,852.0311 c -0.006,-0.002 -0.0122,-0.004 -0.0177,-0.006 l 10e-5,0.001 c -0.11374,-0.043 -0.1484,-0.065 -0.135,-0.065 0.0139,0 0.0773,0.0223 0.1577,0.0697 z m 62.8373,-11.3116 c 10e-5,0 10e-5,0 10e-5,0 v 9.6e-4 z m -39.7685,63.0834 c 7.45946,0 15.5359,-2.5735 22.95434,-7.3737 6.94326,-4.48535 15.29791,-12.721 21.84051,-21.4018 l 0.003,-0.004 0.003,-0.004 8.6e-4,-10e-4 c 1.86523,-2.52332 3.5084,-4.68702 4.0337,-5.34836 0.44677,0.0415 1.3663,0.2377 2.4017,0.5628 v 0.002 c 2.47787,0.7795 5.9006,1.188 9.0644,1.18785 2.0371,0 4.0078,-0.16935 5.58143,-0.53655 l 0.004,-10e-4 c 5.29495,-1.26905 9.15823,-3.51423 13.3294,-7.6855 4.08225,-4.08215 6.1888,-7.5048 7.927,-13.0677 l 10e-4,-0.004 c 0.8391,-2.738 1.01135,-4.3103 1.01135,-8.7271 0,-7.74003 -1.54515,-12.3952 -6.38455,-19.4383 l -10e-5,0.002 c -2.4822,-3.61595 -8.3755,-9.41796 -12.4325,-12.3098 l -0.002,-10e-4 c -8.9916,-6.37091 -20.40655,-10.18586 -30.1473,-10.18591 -0.6671,0 -1.322,0.0177 -1.973,0.054 l -5e-4,10e-4 c -12.41783,0.69615 -20.9016,7.05644 -24.70323,18.5048 l -10e-4,0.004 c -0.67735,2.07434 -1.37378,4.70703 -1.51745,5.86225 l 2.3e-4,10e-4 -0.29783,1.95495 c -0.0312,0.20484 0.0233,0.4137 0.15074,0.5772 0.12732,0.16365 0.31626,0.26765 0.52256,0.2876 l 3.06216,0.2978 0.006,5e-4 c 3.2065,0.2878 9.02536,2.0416 12.52475,3.83276 l 0.004,0.002 c 4.18275,2.11265 11.2998,7.52252 12.58974,9.55499 l 0.009,0.0141 2.3e-4,4.6e-4 c 0.12657,0.1897 0.17371,0.28006 0.19141,0.3227 l 0.004,10e-4 c -0.0587,0.1465 -0.3473,0.47386 -1.4797,1.50554 l -0.0149,0.0139 c -1.09035,1.0485 -2.9916,2.7389 -4.2555,3.7921 l -0.006,0.005 -1.79307,1.52724 -2.1029,-1.896 c -5.9822,-5.42828 -13.38834,-8.28534 -20.4583,-8.28534 -4.59385,-2.4e-4 -9.05003,1.207 -12.86827,3.70606 l -0.005,0.004 -0.002,10e-4 -0.009,0.006 c -1.36072,0.93565 -3.07896,2.25004 -3.77881,2.9966 l -0.002,0.002 c -1.7831,1.91699 -4.21816,6.18378 -5.05764,8.83398 -0.33472,1.05176 -0.51406,1.42426 -0.61059,1.54871 l -0.005,0.001 c -0.0172,-0.004 -0.039,-0.008 -0.0659,-0.0148 l -0.0173,-0.004 c -2.67153,-0.56262 -7.97243,-1.82922 -9.75183,-2.29852 l 0.005,0.002 c 0.38306,-1.39295 1.62244,-4.77161 2.44105,-6.40882 3.62585,-7.16653 9.15771,-12.56933 16.31165,-15.85516 l -1.3e-4,10e-4 3.61487,-1.66006 c 0.24546,-0.11267 0.41211,-0.34778 0.43686,-0.61684 l 0.25515,-2.7642 c 0.41895,-4.1798 2.1427,-10.72583 3.7168,-14.08136 v 0.002 c 2.08545,-4.37982 4.32678,-7.45176 7.87549,-10.83346 6.32739,-5.9935 14.07666,-9.381 24.10366,-10.5138 l 0.003,-3e-4 c 1.9318,-0.2274 3.7211,-0.4679 4.14845,-0.59555 l 6.1e-4,0.002 c 0.0159,-0.005 0.22194,-0.0611 0.37769,-0.21588 l 0.002,0.002 c 0.31724,-0.3094 0.24364,-0.7621 0.24084,-0.7621 l -10e-5,10e-4 c -0.0492,-0.4674 -0.40114,-1.3818 -0.7642,-2.2069 l -8.3e-4,-0.002 c -2.28037,-5.1413 -3.49977,-13.47126 -2.87342,-19.69227 l 1.5e-4,-0.002 c 0.91685,-9.33575 5.32957,-17.4259 12.1588,-22.47516 v 10e-4 l 2.8462,-2.08305 c 0.23716,-0.17367 0.3523,-0.46926 0.29466,-0.7575 l -0.34036,-1.7012 3e-4,0.002 c -0.1559,-0.88035 -0.3257,-4.03025 -0.3257,-7.08355 -1.4e-4,-5.6968 0.79247,-9.3586 2.72576,-13.1839 l 2.4e-4,0.002 0.8406,-1.5567 c 0.15793,-0.2923 0.1063,-0.65334 -0.1271,-0.8896 l -3.5301,-3.5725 -0.003,-0.003 c -4.96414,-4.9641 -9.99694,-7.28096 -16.1847,-7.28096 -4.51489,0 -9.97804,1.8476 -14.29224,4.81076 l -0.006,0.005 -1.99876,1.4035 c -0.2223,0.1561 -0.34377,0.41955 -0.31777,0.68975 l 0.29737,3.10101 c 0.74755,8.22384 -2.08326,18.25644 -7.26795,25.8266 -2.36585,3.40074 -7.8009,8.66217 -9.40945,9.56484 l -0.005,0.001 c -0.21657,-0.315 -0.56641,-0.82726 -1.01707,-1.48754 -0.5806,-0.85071 -1.2814,-1.87776 -2.06423,-3.0149 l -2.86621,-4.16882 0.82898,-0.62794 0.003,-0.003 c 8.2051,-6.28461 12.5736,-16.67011 11.262,-26.72505 l -10e-4,-0.008 c -0.6065,-4.2885 -2.0784,-8.89083 -4.00466,-12.2621 l -9.8e-4,-0.002 c -2.01941,-3.5118 -6.79053,-8.3732 -10.22926,-10.357 l 5e-4,0.001 c -1.01306,-0.6211 -1.7904,-1.1534 -2.1771,-1.4579 l 0.005,0.002 c 0.36216,-0.87906 1.15112,-2.83597 2.0271,-5.0093 v 0.001 l 1.78846,-4.3812 0.8197,0.36435 v 0.002 c 6.55785,2.94616 13.32665,9.28866 17.1244,16.04536 l 10e-5,0.002 c 0.61585,1.12156 1.27686,2.1755 1.55664,2.498 l -0.002,0.002 c -0.009,-0.002 0.25303,0.31495 0.63843,0.31495 0.15136,0 0.28405,-0.049 0.29077,-0.0511 l 3.6e-4,-2e-4 c 0.38111,-0.1263 1.93091,-0.8856 3.61877,-1.72966 l 0.002,-9.4e-4 c 5.37767,-2.70957 8.83336,-3.53415 15.1838,-3.53415 3.9801,0 6.19387,0.21325 8.09206,0.73825 l 7.4e-4,1.5e-4 c 5.7428,1.58135 12.3774,5.50835 16.18646,9.6474 l 1.74364,1.91365 c 0.14845,0.163 0.3528,0.2466 0.55836,0.2466 0.16684,0 0.33474,-0.0552 0.474,-0.1677 l 3.31724,-2.6793 0.002,-0.002 c 5.59093,-4.5479 12.9989,-7.8593 20.79675,-9.28463 l 3.5e-4,0.002 0.003,-0.002 c 1.8876,-0.34687 3.664,-0.7453 4.0745,-0.903 l 2.4e-4,-2e-4 2.6e-4,0.002 c 0.0115,-0.005 0.1832,-0.0659 0.3169,-0.1996 0.41306,-0.4129 0.18955,-0.96246 0.1678,-1.02026 -0.0893,-0.23774 -0.2478,-0.47754 -0.4261,-0.68549 l 3.4e-4,0.002 c -1.37707,-1.70943 -3.56704,-9.1367 -3.9892,-14.1189 l -3.4e-4,-0.004 -0.2976,-3.31732 c -0.0188,-0.20929 -0.12405,-0.40134 -0.2902,-0.52974 -0.13317,-0.1029 -0.29577,-0.15776 -0.4618,-0.15776 -0.0412,0 -0.0828,0.003 -0.124,0.0105 l -1.531,0.255 v 0.002 c -4.0183,0.6683 -7.8693,1.0044 -11.45027,1.00434 -3.40759,0 -6.56043,-0.30524 -9.35998,-0.91384 l -0.003,-6e-4 c -15.1181,-3.2155 -26.1933,-13.26525 -31.81185,-28.9048 l -3.4e-4,-0.001 c -0.79506,-2.20186 -1.32312,-3.5399 -2.03566,-4.0156 -0.229,-0.15293 -0.48436,-0.23167 -0.75304,-0.23167 -0.06,0 -0.1167,0.004 -0.17176,0.0103 l -5e-4,2.5e-4 -0.009,0.001 -0.009,10e-4 c -1.98105,0.26415 -3.90881,0.3962 -5.77881,0.3962 -6.42309,0 -12.2196,-1.55466 -17.46679,-4.6772 l -1.5e-4,0.001 c -1.4564,-0.8754 -2.3214,-1.3838 -3.1876,-1.3838 -0.46875,0 -0.8872,0.1448 -1.302,0.30776 l -0.01,0.004 c -4.9458,2.02478 -10.6931,3.15429 -15.98304,3.15429 -1.36511,0 -2.69216,-0.0748 -3.97009,-0.22803 l -0.007,-7.3e-4 c -4.1675,-0.463 -9.3656,-1.68457 -11.829,-2.711 l -0.006,-0.003 -1.36093,-0.553 c -0.0927,-0.0377 -0.18891,-0.0558 -0.28382,-0.0558 -0.26696,0 -0.52349,0.14256 -0.66022,0.38856 l -1.69872,3.0578 c -2.46424,4.36644 -4.69904,10.26055 -6.03138,15.8906 l -10e-4,0.005 c -0.99591,4.32995 -1.125,5.75488 -1.125,12.80042 0,6.48263 0.17047,8.71533 0.95251,12.32183 3.0083,14.0101 9.58882,25.88214 19.77707,35.72626 l 0.002,0.002 2.61326,2.50875 -2.43432,2.26286 v 0.001 c -5.84964,5.41834 -11.43644,12.93677 -14.71184,19.83134 -10.04762,20.9574 -6.4942,44.7897 9.3715,63.66756 l 1.7245,2.07634 -1.9828,2.9742 c -3.2739,4.8678 -7.51504,13.7368 -9.32235,19.4599 l -0.002,0.006 c -0.81733,2.6667 -1.9306,7.2916 -2.44654,10.30085 l -0.001,0.008 c -0.77472,4.82076 -0.90332,6.6153 -0.68976,13.8754 0.17058,6.87156 0.42816,9.13963 1.2948,12.90947 l 10e-4,0.006 c 2.83388,11.8934 7.61608,20.75186 14.97298,27.71945 l 9e-4,8e-4 c 5.4007,5.09815 10.3706,7.85418 16.86215,9.20581 v 10e-4 c 1.99585,0.42476 4.0697,0.63316 6.19325,0.63316 z"
           id="path828"
           style="fill:#000000" />
      </g>
      <g
         style="fill:#000000;fill-opacity:1;stroke-linejoin:miter"
         id="g834">
        <path
           d="m 642.224,829.3533 0.18274,-0.0226 c 0.12746,-0.0316 0.77441,-0.1549 1.47886,-0.2377 l 0.0188,-0.003 c 3.06545,-0.43798 6.7974,-1.61285 10.21474,-3.25659 2.98366,-1.40472 4.41553,-2.4834 7.01576,-5.12701 v 0.002 c 5.02404,-5.0698 7.4259,-10.42263 8.29283,-18.2248 v 10e-4 c 1.17054,-10.4523 -2.54638,-23.07073 -9.09303,-31.2215 l -0.006,-0.007 c -0.552,-0.67029 -1.03526,-1.28742 -1.39256,-1.75958 l 0.003,0.002 c 0.6692,-0.0643 1.59485,-0.13565 2.63794,-0.1983 l 8.6e-4,0.002 c 5.11877,-0.30524 8.6985,-1.22388 13.67174,-3.55914 v 0.002 c 9.59742,-4.4976 16.3993,-11.1707 21.15246,-20.76384 l 10e-4,-0.003 c 3.36645,-6.86227 4.20178,-10.2919 4.245,-17.978 v 0.002 c 0.0427,-5.22094 -0.1283,-6.79144 -0.96509,-9.69864 v 0.002 c -1.04396,-3.69646 -3.33266,-8.53382 -5.4657,-11.58106 l -0.002,-0.003 c -0.7307,-1.03176 -1.4397,-2.03273 -1.604,-2.2792 l -10e-5,-10e-5 c -0.25635,-0.38435 -0.6908,-0.4013 -0.80836,-0.40443 l 0.002,0.002 c -0.0177,-0.002 -0.024,-0.002 -0.0412,-0.002 -0.70986,0 -2.16101,0.54136 -3.74986,1.28456 v 0.002 c -7.7047,3.4929 -13.637,4.907 -20.7405,4.907 -4.76696,-10e-5 -7.5115,-0.36937 -16.5117,-2.3222 l -0.004,-7e-4 c -4.35593,-0.9221 -8.10764,-1.4079 -11.594,-1.4079 -5.93076,0 -11.02915,1.40696 -16.96604,4.3617 v 0.001 c -7.07386,3.4921 -12.02796,7.9747 -14.67446,13.3112 v 10e-4 l -0.002,0.003 c -1.38625,2.81717 -1.4801,3.32757 -1.4801,7.85907 1.5e-4,4.2227 0.13355,5.1433 1.2926,7.8633 0.70569,1.6761 2.30825,4.4878 3.5669,6.2672 l 0.0123,0.017 0.002,0.002 -1.4e-4,10e-4 c 0.67029,0.91494 1.24671,1.72945 1.64258,2.3088 l 0.004,10e-4 c -0.1746,0.005 -0.3679,0.008 -0.5767,0.008 -9.29807,0 -17.8058,7.48893 -20.21195,17.58883 -0.75158,3.095 -0.75109,9.128 -4.8e-4,12.2623 l 7.3e-4,0.003 c 0.8789,3.60325 3.317,8.30805 5.7399,11.03949 l 10e-4,10e-4 c 1.83676,2.06095 2.8352,2.71635 5.8968,3.94079 l 0.008,0.003 c 5.77634,2.23456 13.8342,6.5838 17.6362,9.46661 l 0.004,0.003 c 4.48854,3.35584 9.9967,9.07746 12.87927,13.4222 l 0.005,0.008 c 1.24585,1.82704 3.3539,5.65979 4.7506,8.53774 l 0.002,0.004 c 1.23963,2.51678 2.45033,4.75193 2.87523,5.24253 l -7e-4,0.002 c -0.005,-0.002 0.2506,0.3235 0.6522,0.3235 z"
           id="path832"
           style="fill:#000000" />
      </g>
      <g
         style="fill:#000000;fill-opacity:1;stroke-linejoin:miter"
         id="g838">
        <path
           d="m 644.5494,658.29816 c -0.0214,-0.0243 -0.0402,-0.0491 -0.0568,-0.0741 v 0.002 l 0.0608,0.0724 z M 545.8684,513.6036 c -8.5e-4,-6e-4 -0.002,-10e-4 -0.003,-0.002 l -6.1e-4,-6e-4 c -0.0361,-0.0291 -0.0508,-0.0443 -0.0508,-0.0471 l 0.002,10e-4 c 0.006,10e-4 0.0281,0.0186 0.0568,0.0482 z m 3.69825,-9.2607 c -0.01,-2.5e-4 -0.007,-0.002 0.0125,-0.002 0.004,3.1e-4 0.007,3.1e-4 0.0109,4.3e-4 l 0.005,0.002 c -0.01,-4.3e-4 -0.0177,-1.3e-4 -0.0233,0 z m 116.59741,195.2755 c 1.89929,0 3.78294,-0.1214 5.276,-0.37347 l -1.2e-4,0.002 c 10.31556,-1.7428 20.52416,-8.85874 26.95896,-18.6621 l 0.003,-0.005 c 4.1889,-6.4775 6.94276,-13.8488 8.4883,-22.7359 l 5e-4,-0.002 c 1.07786,-6.2955 1.16075,-18.49325 0.21714,-25.78457 l -4.8e-4,-0.004 c -3.51896,-26.1334 -16.89533,-44.5857 -38.99421,-53.632 l -0.01,-0.004 -0.008,-0.003 v 10e-4 c -1.9657,-0.78093 -3.91957,-1.53153 -4.8113,-1.78399 l 0.004,0.002 c 0.23557,-0.73871 0.7026,-2.62526 1.1483,-4.48211 l 6e-4,-0.002 c 0.78686,-3.32287 0.9133,-5.311 0.9559,-12.2903 v -0.005 c 0,-7.45318 -0.1261,-8.77289 -1.04794,-12.10904 -1.25232,-4.5342 -3.28356,-9.03646 -5.59216,-12.39047 v 0.002 c -1.7593,-2.6357 -6.0731,-6.99077 -8.6544,-8.7846 v 0.002 c -2.59304,-1.80334 -7.43936,-3.96228 -11.07656,-4.95814 l -0.003,-8e-4 c -2.55834,-0.6896 -6.3003,-1.0202 -10.0748,-1.0202 -3.7217,0 -7.54543,0.32057 -10.4053,0.97053 l -0.009,0.002 c -1.16053,0.2785 -2.2018,0.50505 -2.9043,0.65255 l -0.004,0.002 c 0.0518,-0.80384 0.15456,-2.0833 0.30542,-3.5424 l 8.4e-4,-0.008 c 0.81923,-8.88196 -0.72886,-18.20899 -4.24034,-25.44856 l -9.6e-4,-0.002 c -3.84254,-7.85985 -11.17506,-13.66573 -19.64955,-15.5876 l -0.01,-0.002 c -1.8662,-0.39771 -3.4007,-0.58173 -5.8762,-0.58179 -1.05614,0 -2.2942,0.0337 -3.7931,0.0978 l 0.003,0.002 c -6.4184,0.21368 -10.6245,1.08026 -16.3984,3.27725 l -1.87024,0.69269 -2.46789,-2.20622 v 0.002 c -7.38391,-6.65528 -14.42027,-10.6797 -22.29857,-12.7575 l 3.5e-4,10e-4 c -2.17981,-0.57958 -4.68325,-0.7921 -8.65625,-0.7921 l 0.005,0.002 c -0.1988,-0.003 -0.41245,-0.004 -0.6048,-0.004 -5.985,0 -8.9241,0.65526 -13.9269,3.0512 -10.51756,4.95446 -17.87538,14.24752 -21.37083,26.9275 -0.84061,2.9198 -0.96503,4.63405 -0.96521,11.7726 -0.0427,7.76263 0.0422,8.69366 1.17362,12.9142 v 10e-4 c 1.50522,5.6757 3.95596,11.56835 6.80032,16.35216 l 0.002,0.003 c 2.4328,4.0546 7.40837,10.8462 9.14415,12.49284 l 0.0194,0.0176 0.5617,0.49697 -2.2188,2.71193 c -7.25904,8.8481 -11.65992,18.0239 -13.4289,28.03404 l -8.8e-4,0.005 c -0.95148,5.57989 -0.65427,15.12964 0.69433,20.22184 v 0.001 c 3.14625,12.0234 9.84995,21.2403 19.09448,26.0374 3.96177,2.06376 8.13527,3.0901 12.34327,3.0901 5.7672,0 11.5608,-1.92734 16.9337,-5.69333 l 2.1339,-1.46912 0.71206,0.55371 -1.2e-4,0.002 c 3.39646,2.70575 8.68056,5.93365 11.66086,7.11875 l 1.5e-4,10e-4 c 3.1416,1.282 3.92905,1.3726 8.65695,1.4158 l 0.007,10e-4 c 4.75036,-10e-4 5.44713,-0.0857 7.86013,-1.2695 v 0.002 c 4.1997,-2.0352 7.1671,-6.1619 8.39817,-11.394 v 0.002 c 0.71043,-2.93933 0.70163,-9.3825 0.007,-13.07296 v 10e-4 c -0.2131,-1.2483 -0.31565,-2.3533 -0.31223,-2.76096 l 0.004,10e-4 c 0.3136,-0.30175 1.28616,-1.00685 2.53506,-1.72065 l 0.0138,-0.008 c 1.52223,-0.91327 4.20143,-2.81409 5.90003,-4.3385 l 10e-5,0.002 c 7.7331,-6.65926 11.86104,-14.6341 11.86104,-23.18921 0,-6.88865 -1.91674,-11.37232 -7.02354,-16.52255 -2.69784,-2.74106 -4.0472,-3.68595 -7.4426,-5.29654 -4.2041,-2.016 -8.04357,-3.25066 -11.02733,-3.47306 l 2.3e-4,10e-4 -1.56896,-0.1287 c -0.0205,-0.002 -0.0411,-0.003 -0.0615,-0.003 -0.3204,0 -0.60923,0.20361 -0.7141,0.51135 l -1.276,3.74243 -3.6e-4,0.001 c -3.55504,10.49776 -9.63564,17.6087 -18.97351,22.27789 -2.59533,1.29767 -6.57273,2.75922 -8.78686,3.21021 l -0.0106,0.002 -0.62295,0.1361 -0.562,-2.5791 v 0.002 c -0.3164,-1.51251 -0.7794,-3.55325 -1.0962,-4.94971 v -1.4e-4 c -0.0553,-0.2434 -0.14146,-0.6235 -0.18113,-0.7988 l -0.39407,-1.7589 1.0441,-0.28005 5e-4,10e-4 c 1.045,-0.27506 3.22166,-1.14926 4.869,-1.86736 l 0.0167,-0.008 c 14.26955,-6.63914 19.72133,-21.34624 13.20284,-35.35655 -0.0832,-0.17915 -0.16674,-0.35385 -0.25391,-0.5329 l -10e-4,-0.003 c -3.09596,-6.27894 -7.7654,-10.98108 -14.5652,-14.66248 l -0.009,-0.005 c -1.18875,-0.6226 -2.17432,-1.18095 -2.69215,-1.4966 l 0.005,0.002 c 0.6456,-1.76726 2.979,-7.7442 3.6748,-9.43689 0.38535,0.10223 1.0365,0.32727 1.84385,0.68036 l 2.5e-4,0.002 c 11.7048,5.18201 21.52624,16.81885 24.1079,28.60258 l 2.5e-4,10e-4 0.72295,3.2748 c 0.0687,0.3107 0.3246,0.54506 0.64027,0.5859 l 2.29653,0.2978 0.004,4e-4 c 10.07664,1.2544 20.91144,6.9534 26.9035,14.068 2.78184,3.32154 6.21634,9.8583 7.29234,13.8731 l 0.001,0.004 c 0.9475,3.46044 1.28406,11.68237 0.6234,15.31659 l -3.5e-4,0.002 c -1.75075,9.75439 -7.29675,18.6474 -15.65675,24.96088 v 10e-4 l -2.33916,1.74231 c -0.19114,0.14245 -0.30374,0.36688 -0.30374,0.60528 v 3.8277 c 0,4.89807 -0.9071,8.82642 -3.1561,13.53394 -1.5342,3.15118 -2.4634,4.48987 -5.3877,7.45599 l -0.002,0.002 -3.61499,3.7 c -0.19827,0.2029 -0.26587,0.49975 -0.17554,0.7686 l 1.36107,4.04023 c 2.3302,7.16047 5.32875,11.95597 9.99025,16.18177 l 3.5e-4,5e-4 c 5.49935,4.9789 12.7114,7.4524 21.3117,7.4524 6.612,4e-5 14.04965,-1.46035 22.1911,-4.3667 l 0.0137,-0.005 10e-5,0.002 c 2.2791,-0.82367 4.6288,-1.71448 5.5183,-2.13784 -0.1495,0.47 -0.3568,1.0594 -0.6164,1.6997 l -0.008,0.0217 c -2.75439,7.44505 -3.64695,15.94611 -2.10625,21.67591 v 0.002 c 2.2456,8.53992 9.11364,14.86386 18.0101,16.74866 l -2e-4,0.002 c 1.8568,0.39474 4.36924,0.5907 6.78806,0.5909 z"
           id="path836"
           style="fill:#000000" />
      </g>
      <g
         style="fill:#000000;fill-opacity:1;stroke-linejoin:miter"
         id="g842">
        <path
           d="m 641.4044,735.9029 c -9.1555,2.3836 -15.11485,13.4891 -12.406,23.1325 1.73353,5.959 5.5259,10.239 11.2683,12.5687 8.7765,3.5214 20.2615,-1.13785 23.99966,-9.75156 l 1.46274,-3.41321 59.2676,0.16287 59.2676,0.1084 v 42.4187 c 0,26.22086 0.2168,43.12314 0.5417,44.31516 0.2709,1.02934 1.02945,2.43814 1.6254,3.08819 1.0834,1.13755 1.30005,1.13755 20.3699,1.1377 l 19.28635,-3.1e-4 1.51685,3.14252 c 1.51684,3.25049 5.52593,7.47614 8.55975,9.0473 2.38365,1.24574 7.96385,1.89614 11.6477,1.40857 6.1759,-0.86718 10.94335,-4.55063 13.81455,-10.72663 1.24624,-2.65484 1.4628,-3.7921 1.4628,-7.9638 0,-4.11737 -0.21656,-5.3636 -1.40845,-7.9097 -1.73365,-3.6835 -4.44239,-6.5009 -8.23485,-8.5053 -2.60036,-1.3544 -3.3046,-1.46256 -8.77626,-1.4626 -5.20104,-4e-4 -6.28454,0.16215 -8.55969,1.2997 -3.57555,1.7879 -6.98871,5.3637 -8.55975,8.93886 l -1.30006,3.03374 -16.36094,0.002 -16.361,-0.002 -0.1627,-43.50196 c -0.16235,-40.41474 -0.21655,-43.557 -1.1377,-45.23639 l -0.9751,-1.73355 -62.73473,-4e-4 -62.73477,3e-4 -1.73374,-3.4676 c -1.95046,-3.95445 -5.47166,-7.4761 -9.26392,-9.15544 -2.65454,-1.19186 -10.34741,-1.73326 -13.38124,-0.97466 z m 9.8599,9.5345 c 0.9209,0.4873 2.4377,1.57114 3.3047,2.4919 1.30014,1.354 1.5709,2.11275 1.7335,5.30916 0.27086,4.49654 -0.59596,6.39254 -3.84645,8.77624 -2.11279,1.57124 -2.49195,1.6797 -5.74245,1.35456 -5.57993,-0.48746 -8.61375,-2.97943 -9.1014,-7.53036 -0.59596,-4.9839 1.2461,-8.83023 4.98424,-10.4554 2.22106,-0.97554 6.50086,-0.9216 8.66786,0.0539 z m 197.0894,90.5266 c 3.95483,2.0047 5.79675,4.7674 5.79675,8.614 0,4.55054 -2.81715,8.34296 -7.15115,9.5345 -2.6545,0.7047 -4.9841,0.2712 -7.63864,-1.46254 -2.81726,-1.84236 -4.17166,-4.22601 -4.17166,-7.47656 0,-7.31366 7.0971,-12.2974 13.1647,-9.2094 z"
           id="path840"
           style="fill:#000000" />
      </g>
      <g
         style="fill:#000000;fill-opacity:1;stroke-linejoin:miter"
         id="g846">
        <path
           d="m 581.08295,416.8178 c -5.41755,1.78794 -10.07645,5.74275 -12.29779,10.5639 -1.67933,3.68422 -1.62526,11.75636 0.10839,15.33208 1.84205,3.73785 5.03835,7.09662 8.66805,8.9931 2.6545,1.40796 3.3047,2.05822 3.5758,3.41296 0.1622,0.92053 0.3248,7.25952 0.3248,13.97686 v 12.29814 l -2.9254,1.24591 c -3.52154,1.46252 -7.9639,5.90527 -9.58905,9.58899 -1.57129,3.46734 -1.95055,9.53503 -0.86682,13.27252 2.32947,7.96417 9.96833,13.21914 18.96137,13.05658 6.7178,-0.16244 12.94775,-4.172 15.92737,-10.34717 1.30029,-2.65485 1.46253,-3.68427 1.51683,-8.18079 0,-4.44226 -0.21666,-5.57971 -1.40844,-8.18028 -2.00439,-4.2801 -4.92993,-7.25978 -8.93886,-9.2098 l -3.46714,-1.62536 0.1084,-13.65207 0.16247,-13.65234 2.16697,-0.97485 c 5.6884,-2.65436 9.20974,-6.71778 10.8892,-12.51474 3.3047,-11.75608 -4.71315,-23.13269 -17.0111,-23.94559 -2.2753,-0.10828 -4.4966,0.0543 -5.90505,0.54195 z m 10.02245,10.02223 c 5.85096,2.97964 5.90516,13.54447 0.1085,16.41543 -2.81735,1.46254 -8.0179,1.30024 -10.2934,-0.27112 -3.1963,-2.16699 -4.06326,-3.84628 -4.06326,-7.85528 0,-4.06314 1.19189,-6.39282 4.28016,-8.28909 2.27526,-1.40812 7.25915,-1.40805 9.968,6e-5 z m 0.0543,65.11877 c 3.3046,1.84204 4.11734,3.46698 4.11734,7.9096 1.2e-4,3.52168 -0.1626,4.06312 -1.67954,5.95948 -0.9751,1.19152 -2.76297,2.49219 -4.22573,3.08765 -2.22117,0.97517 -2.81702,1.02954 -5.03821,0.43353 -3.30466,-0.92126 -5.36326,-2.43799 -6.66356,-4.98436 -1.2461,-2.49196 -1.4086,-6.44673 -0.3252,-8.55928 1.0836,-2.05872 3.68395,-4.38855 5.52587,-4.98438 2.22119,-0.70428 5.95933,-0.21691 8.28903,1.13776 z"
           id="path844"
           style="fill:#000000" />
      </g>
      <g
         style="fill:#000000;fill-opacity:1;stroke-linejoin:miter"
         id="g850">
        <path
           d="m 720.4989,456.07895 c -3.1422,1.51691 -8.07226,6.28405 -9.64307,9.42621 -0.7583,1.40894 -1.57143,3.79272 -1.84243,5.25524 -1.4083,7.36793 3.63015,16.52354 10.8897,19.88254 l 3.1964,1.46266 v 34.29296 34.23834 l -16.95704,24.59595 c -9.3725,13.48932 -17.93232,25.89545 -19.0694,27.62895 l -2.05872,3.0879 -13.48999,10e-4 -13.4353,10e-4 -1.30015,-2.9816 c -1.62563,-3.63 -5.30947,-7.3141 -9.42666,-9.31837 -2.70874,-1.30043 -3.73804,-1.51709 -7.96384,-1.51709 -3.90066,0 -5.4176,0.27116 -7.53005,1.24636 -4.33425,2.00425 -7.09729,4.605 -9.10135,8.66795 -1.625,3.30485 -1.7877,4.06329 -1.78757,8.50605 -1.3e-4,4.11694 0.27051,5.36285 1.46227,7.9633 1.6797,3.6298 5.3634,7.42207 8.83094,9.1015 3.35866,1.6251 9.9137,2.05854 13.8689,0.92067 5.25476,-1.57077 10.40161,-6.44657 11.97241,-11.37641 l 0.59595,-2.00506 11.9723,-0.054 c 13.81505,1.6e-4 19.23266,-0.3242 20.20824,-1.13686 0.81226,-0.65044 9.96741,-13.38144 18.41886,-25.62504 3.30484,-4.76736 10.02285,-14.5189 15.007,-21.67007 l 8.9929,-13.00233 10e-5,-9.48015 c 0,-5.20111 0.1626,-21.34521 0.3793,-35.86405 l 0.3251,-26.38308 2.22086,-0.81282 c 3.35901,-1.30052 7.63894,-5.30934 9.37268,-8.8849 1.354,-2.76276 1.51672,-3.63013 1.51686,-8.77655 -1.4e-4,-5.09229 -0.16286,-5.9585 -1.4629,-8.39685 -1.7334,-3.359 -5.63404,-7.04285 -8.99305,-8.56025 -3.73785,-1.67925 -11.97259,-1.89587 -15.16925,-0.4331 z m 12.73145,9.58911 c 0.81235,0.64984 2.11261,1.95026 2.763,2.97937 1.7334,2.49225 1.51685,8.01813 -0.37925,10.67261 -5.20114,7.31381 -17.39047,3.3591 -17.3907,-5.6344 2.3e-4,-2.76234 1.1919,-5.09224 3.79284,-7.47584 2.27502,-2.0587 2.3291,-2.0587 6.01316,-1.8421 2.65444,0.1626 4.1177,0.48768 5.20095,1.30036 z M 644.0036,612.2658 c 3.5216,1.8423 4.5509,3.5757 4.7676,8.07197 l 0.2164,3.79199 -2.9795,3.0343 -3.03404,2.97934 -3.79186,-0.217 c -4.4966,-0.2163 -6.23023,-1.2457 -8.0181,-4.7671 -1.46275,-2.7626 -1.625,-6.8799 -0.48765,-9.1013 2.38365,-4.6047 8.39695,-6.2846 13.32715,-3.7922 z"
           id="path848"
           style="fill:#000000" />
      </g>
      <g
         style="fill:#000000;fill-opacity:1;stroke-linejoin:miter"
         id="g854">
        <path
           d="m 553.1078,327.82248 c -3.5757,0.43352 -9.3185,3.41262 -11.6477,6.12162 -1.0834,1.2461 -2.60036,3.5757 -3.3048,5.09255 l -1.30056,2.87119 -6.06751,-2.8e-4 c -3.35889,3.4e-4 -6.33863,0.21714 -6.66383,0.43364 -1.2998,0.81267 -1.896,3.0339 -2.3834,8.397 -0.27076,3.034 -0.4872,32.9929 -0.5415,66.5814 l 1e-4,61.05567 -3.46715,1.67923 c -6.44687,3.03418 -9.64328,8.18042 -9.96835,15.98188 -0.2707,6.55499 1.0294,10.18475 5.0925,14.19392 6.23046,6.06706 15.54833,7.20525 23.0245,2.7082 5.5801,-3.3583 9.58914,-10.99685 9.04727,-17.3356 -0.59607,-7.15124 -6.77207,-14.8438 -13.5437,-16.8486 -0.92127,-0.27087 -0.97522,-3.79193 -0.97537,-63.71002 l -3.4e-4,-63.43933 3.08804,0.16281 c 3.35874,0.16239 3.08786,-0.10866 6.66403,5.85089 4.17117,6.93473 15.49402,9.64355 23.56617,5.6883 6.7716,-3.30463 11.1057,-10.99725 10.3473,-18.36525 -1.08363,-10.45583 -10.7267,-18.36525 -20.9657,-17.11922 z m 5.41747,9.7514 c 2.54639,0.70412 5.36343,3.57584 6.06753,6.12172 0.70456,2.54656 -0.1082,6.82628 -1.6795,9.04766 -1.46225,2.05841 -4.22556,3.25027 -7.63864,3.25027 -7.25952,-2.1e-4 -11.64771,-6.77206 -8.66796,-13.38159 2.16686,-4.7673 6.5011,-6.60919 11.91857,-5.03806 z M 530.1918,488.12677 c 8.55966,3.90083 6.6095,16.74005 -2.8173,18.25647 -4.2256,0.65056 -8.28844,-1.57044 -10.02245,-5.41681 -1.67935,-3.73823 -1.08335,-7.63898 1.67955,-10.45599 3.3589,-3.41314 7.09694,-4.22559 11.1602,-2.38367 z"
           id="path852"
           style="fill:#000000" />
      </g>
      <g
         style="fill:#000000;fill-opacity:1;stroke-linejoin:miter"
         id="g858">
        <path
           d="m 553.108,855.24 c -3.5757,0.43377 -9.3184,3.41283 -11.64773,6.12163 -1.08337,1.24622 -2.60037,3.57587 -3.30481,5.09284 l -1.30042,2.87109 -6.0675,-5.6e-4 c -3.35904,5.6e-4 -6.33864,0.21736 -6.66384,0.43367 -1.2999,0.81273 -1.896,3.03393 -2.3835,8.39727 -0.27066,3.03386 -0.4873,32.99286 -0.5416,66.58136 l 2.5e-4,61.0554 -3.46728,1.6791 c -6.44669,3.0341 -9.64317,8.1805 -9.96817,15.9819 -0.27075,6.5552 1.0293,10.1847 5.09243,14.1939 6.23037,6.0671 15.54822,7.2054 23.02442,2.7084 5.5802,-3.3586 9.58925,-10.9967 9.04735,-17.3357 -0.59606,-7.1512 -6.7721,-14.8438 -13.5437,-16.8487 -0.9214,-0.2706 -0.9752,-3.7918 -0.97533,-63.70975 l -4.3e-4,-63.43935 3.08816,0.16286 c 3.35874,0.16248 3.08787,-0.10852 6.66404,5.85089 4.17106,6.93451 15.49396,9.64368 23.56596,5.68845 6.7716,-3.3047 11.1059,-10.9973 10.3475,-18.36526 C 572.9902,861.9035 563.347,853.994 553.108,855.24 Z m 5.41745,9.7514 c 2.54651,0.7045 5.3634,3.57617 6.06751,6.1219 0.70459,2.54655 -0.10816,6.8263 -1.67932,9.0477 -1.46241,2.05836 -4.22559,3.25013 -7.63868,3.25013 -7.25952,-1.3e-4 -11.6477,-6.77203 -8.66806,-13.38147 2.16696,-4.76751 6.5011,-6.60946 11.91855,-5.03826 z M 530.192,1015.5442 c 8.5597,3.9009 6.6094,16.7401 -2.81724,18.2568 -4.22556,0.6503 -8.28856,-1.5709 -10.02246,-5.4172 -1.6793,-3.7379 -1.0834,-7.6391 1.67956,-10.4559 3.35889,-3.4131 7.09694,-4.2256 11.16014,-2.3837 z"
           id="path856"
           style="fill:#000000" />
      </g>
      <g
         style="fill:#000000;fill-opacity:1;stroke-linejoin:miter"
         id="g862">
        <path
           d="m 635.433,762.9517 c -3.35866,1.1374 -7.7466,5.14675 -9.8053,8.8849 -1.2461,2.3836 -1.62526,3.73805 -1.78773,7.3675 -0.43323,7.5849 2.27553,13.1647 8.01783,16.90283 9.8055,6.33837 23.4039,2.54633 27.6295,-7.69283 l 1.3003,-3.08787 14.0858,0.002 14.0851,-0.002 4.9303,3.08805 c 18.4736,11.702 52.6581,33.96743 53.25414,34.72634 0.4878,0.6499 0.64991,4.22556 0.65003,13.59802 v 12.7854 l -3.52127,1.84194 c -4.659,2.3835 -8.45127,6.50114 -9.69736,10.61833 -1.35449,4.27972 -1.0293,11.48547 0.70471,14.79047 1.84165,3.57513 5.20045,6.93365 8.61355,8.61285 2.6543,1.3006 3.62974,1.46289 8.4514,1.46289 3.8463,0 6.0675,-0.27069 7.47595,-0.86704 2.6007,-1.1917 7.20545,-5.47146 8.88488,-8.34225 2.38392,-4.06315 2.60022,-13.43609 0.43347,-17.66165 -1.62536,-3.1424 -6.06774,-7.2598 -9.4266,-8.7762 l -3.2504,-1.46254 -0.0542,-15.00702 c 0,-8.23474 -0.1625,-15.43988 -0.37927,-15.92734 -0.59593,-1.46286 -8.23498,-6.5554 -48.05346,-32.2337 l -16.19861,-10.4561 -15.33166,10e-4 -15.33155,-10e-4 -1.46275,-3.1422 c -1.7333,-3.6295 -5.526,-7.63885 -8.88515,-9.37255 -3.19641,-1.67945 -11.37671,-2.00475 -15.33165,-0.65005 z m 11.53966,9.04745 c 2.11279,1.13769 4.44238,4.38805 4.76734,6.71745 1.1379,8.55977 -7.4761,14.4106 -14.573,9.91414 -3.142,-2.00454 -4.2256,-4.00914 -4.2256,-7.90954 0,-3.57545 0.8668,-5.4173 3.5211,-7.801 1.7338,-1.51706 2.27566,-1.6794 5.47195,-1.6794 2.00451,0 4.17151,0.32493 5.03821,0.75835 z M 757.978,860.57556 c 3.46707,2.43799 4.7676,9.1557 2.5464,13.0564 -1.3541,2.32977 -5.0923,4.3341 -8.1262,4.3341 -2.9254,0 -6.7178,-2.00433 -8.23475,-4.2799 -0.97522,-1.40912 -1.24575,-2.60046 -1.24575,-5.09246 -3.4e-4,-6.393 3.7377,-9.85994 10.13076,-9.42714 2.22084,0.16248 3.84619,0.65034 4.92954,1.409 z"
           id="path860"
           style="fill:#000000" />
      </g>
      <g
         style="fill:#000000;fill-opacity:1;stroke-linejoin:miter"
         id="g866">
        <path
           d="m 668.6092,442.60654 c -4.93006,1.29986 -10.34754,5.90521 -12.51466,10.56378 l -1.30029,2.87146 -15.71081,0.27052 c -17.66089,0.3253 -17.98624,0.3792 -18.58204,4.06316 -0.2168,1.13757 -0.37915,13.27276 -0.37915,26.97922 v 24.97512 l -2.97961,1.4626 c -4.27991,2.1131 -7.42188,5.2012 -9.26394,9.21004 -1.35447,2.92486 -1.571,4.00861 -1.51694,8.23462 0,4.27974 0.16247,5.30884 1.46289,8.01774 1.73339,3.4675 5.36322,6.98836 9.04715,8.722 2.0044,0.9212 3.46725,1.13776 8.12606,1.13776 4.92994,0 6.01368,-0.16223 8.01784,-1.24606 3.5758,-1.8959 6.98863,-5.309 8.6141,-8.66794 2.11306,-4.27972 2.3837,-10.5097 0.65005,-15.00641 -1.51695,-4.06315 -5.14649,-7.96368 -9.48045,-10.23932 l -3.1963,-1.67933 -0.16285,-23.45812 -0.10855,-23.40348 12.73135,0.002 12.67725,-0.002 1.46276,2.97974 c 1.78774,3.62958 6.28431,8.01788 9.80579,9.58923 1.67945,0.7043 4.17125,1.19153 7.09695,1.40784 4.33384,0.21698 4.65903,0.1629 8.5052,-1.73346 6.39285,-3.14221 9.8057,-8.23456 10.4019,-15.43988 0.9209,-10.94336 -6.6637,-19.50263 -17.6071,-19.88196 -2.2755,-0.10821 -4.87583,-6e-5 -5.7966,0.271 z m 8.9386,9.37206 c 3.19665,1.6252 5.68883,5.58015 5.6345,8.8847 -0.1628,8.18043 -10.1849,12.40614 -16.0902,6.82612 -2.27527,-2.11262 -3.0879,-4.06317 -3.0879,-7.15142 0,-3.30475 0.97535,-5.41706 3.3589,-7.25916 3.46704,-2.60054 6.772,-2.9798 10.1847,-1.30024 z m -47.99903,70.5903 c 2.97949,1.4086 4.82153,4.4962 4.82153,8.01795 0,3.57535 -1.1919,5.90515 -4.00903,7.96345 -6.82593,4.93 -15.71067,-0.054 -15.00647,-8.45093 0.59594,-6.93467 7.5846,-10.67267 14.19397,-7.53047 z"
           id="path864"
           style="fill:#000000" />
      </g>
      <g
         style="fill:#000000;fill-opacity:1;stroke-linejoin:miter"
         id="g870">
        <path
           d="m 790.9669,615.03033 c -4.984,2.00417 -7.8011,4.71287 -10.4016,9.85947 l -1.40856,2.8171 -8.83054,0.32496 c -9.1558,0.32489 -29.20047,0.65034 -67.61056,1.13784 -36.35144,0.4336 -56.77564,0.81284 -62.57224,1.1378 l -5.41775,0.27087 -1.896,-3.57581 c -2.22119,-4.22552 -6.0133,-8.01782 -9.64319,-9.58892 -3.52142,-1.57114 -9.9682,-1.95074 -13.43546,-0.75849 -5.58,1.896 -10.07644,6.5553 -12.18923,12.62255 -1.30023,3.9011 -1.30023,6.7178 0.0542,10.78095 2.97949,8.77631 10.45556,13.70615 19.71948,13.11011 6.44695,-0.43266 11.59369,-3.9544 15.22335,-10.40156 l 1.8962,-3.46715 26.97914,-0.32435 c 14.78992,-0.1626 33.53456,-0.43365 41.55236,-0.5962 8.0722,-0.10856 28.44197,-0.43376 45.29023,-0.5961 l 30.71741,-0.3792 1.40856,2.9795 c 1.6796,3.5219 5.7969,7.5849 9.4265,9.26394 2.0586,0.97506 3.5215,1.19196 7.96377,1.19196 5.20068,0 5.58008,-0.0542 8.93896,-1.9506 8.1803,-4.4962 11.53931,-13.002 8.77627,-21.995 -2.0585,-6.50075 -5.63405,-9.96785 -12.4601,-12.0806 -4.60486,-1.40825 -8.28894,-1.3542 -12.0812,0.21693 z m 9.86,8.50513 c 8.1262,2.70868 8.668,13.97681 0.8667,17.76934 -2.87133,1.40846 -4.87585,1.40846 -7.74694,0.10847 -3.46741,-1.57141 -5.30921,-4.38837 -5.52601,-8.39687 -0.21665,-4.3343 1.30015,-7.0971 4.76745,-8.88475 2.6547,-1.30045 4.87586,-1.51709 7.6388,-0.59619 z m -179.4283,3.57544 c 3.90066,3.1422 4.8759,7.7474 2.6006,12.1349 -2.3839,4.4425 -7.74725,6.0678 -12.5689,3.73815 -3.8463,-1.84195 -4.82154,-3.30425 -5.0382,-7.52995 -0.2709,-4.9845 0.92077,-7.31405 5.0381,-9.535 2.54636,-1.3548 7.4221,-0.81286 9.9684,1.1919 z"
           id="path868"
           style="fill:#000000" />
      </g>
      <g
         style="fill:#000000;fill-opacity:1;stroke-linejoin:miter"
         id="g874">
        <path
           d="m 608.8253,827.8118 c -7.8552,0.9213 -13.6518,6.12247 -15.7105,14.0317 -2.2212,8.72187 1.78785,16.95655 10.50983,21.56165 l 3.35887,1.78745 v 13.4897 l -1e-4,13.5435 -3.0878,1.57126 c -4.7131,2.38414 -7.47617,5.03857 -9.48056,9.15588 -1.57094,3.1966 -1.78774,4.11736 -1.78774,7.96426 0,3.73765 0.271,4.82126 1.73354,7.9631 3.84656,8.1807 11.10586,11.86427 20.9115,10.6183 5.6344,-0.7585 10.51016,-4.6589 13.27306,-10.6726 1.1919,-2.4921 1.46266,-3.8461 1.46266,-7.6385 0,-4.1714 -0.16246,-4.98376 -1.78786,-8.2348 -2.00426,-4.06275 -4.49657,-6.50104 -9.31834,-9.04737 l -3.25049,-1.7337 1.3e-4,-13.48933 v -13.4897 l 3.4674,-1.6793 c 3.90075,-1.8419 7.42224,-5.3636 9.4806,-9.42645 1.1378,-2.32965 1.2461,-3.08795 1.0294,-8.61401 -0.21667,-6.87964 -0.7584,-8.34274 -4.38806,-11.97247 -4.5509,-4.44217 -10.13098,-6.39267 -16.41554,-5.68857 z m 8.34316,10.78103 c 5.5802,4.11731 4.7135,13.27332 -1.57093,16.52347 -3.19628,1.6794 -8.72229,0.64957 -11.10593,-2.0047 -1.89626,-2.05874 -2.3837,-3.4131 -2.3837,-6.6638 0,-4.6045 1.57106,-7.15117 5.41737,-9.0469 0.43347,-0.2164 2.38379,-0.325 4.33423,-0.271 2.76294,0.1085 3.9005,0.43345 5.30896,1.46293 z m -1.2461,64.08877 c 5.30944,3.03404 6.6637,9.3184 2.97974,14.35624 -1.246,1.73406 -2.2212,2.38386 -4.3882,3.03412 -6.98863,2.11279 -12.406,-1.84216 -12.406,-8.88446 0.0542,-7.5844 7.42176,-12.13574 13.81446,-8.5059 z"
           id="path872"
           style="fill:#000000" />
      </g>
      <g
         style="fill:#000000;fill-opacity:1;stroke-linejoin:miter"
         id="g878">
        <path
           d="m 862.99817,668.0671 c -3.46717,0.5956 -5.63427,1.84214 -8.99307,5.2008 -4.44236,4.4425 -6.0136,9.4263 -5.03836,15.7648 1.08349,6.6637 4.55066,11.4313 10.40161,14.1399 l 3.14209,1.46296 V 714.9826 725.33 l -17.71509,0.325 c -9.80579,0.2166 -50.4372,0.542 -90.4184,0.7589 l -72.59485,0.3245 -1.0292,-2.65435 c -0.65,-1.78785 -2.16696,-3.84665 -4.60495,-6.28449 -4.22571,-4.22552 -6.98865,-5.30902 -13.48965,-5.30916 -3.41294,0 -4.65915,0.2709 -7.3678,1.5711 -5.47165,2.5462 -9.2639,7.5301 -10.5643,13.8146 -0.8125,4.0633 -0.37903,7.3136 1.6798,11.48535 1.8417,3.95475 4.87574,6.82575 9.1012,8.83015 2.60047,1.192 3.73816,1.4087 7.9097,1.4087 4.49655,1e-4 5.1466,-0.1623 8.28867,-1.84176 3.95493,-2.16714 7.96373,-6.33854 8.83056,-9.20974 l 0.59583,-2.0588 9.04748,-0.37885 c 4.92981,-0.16279 43.23156,-0.4339 85.10901,-0.59615 41.87755,-0.16216 80.01679,-0.3792 84.73015,-0.54186 7.85536,-0.21664 8.77626,-0.32524 10.4015,-1.46301 l 1.8418,-1.24593 -10e-5,-13.81443 V 704.6353 l 2.60057,-1.0296 c 3.68383,-1.5168 7.80113,-5.63426 9.64306,-9.6973 1.30027,-2.8713 1.51707,-4.0093 1.51707,-7.96364 1.4e-4,-5.79706 -1.1919,-8.66803 -5.25486,-12.67686 -3.52149,-3.57564 -5.20104,-4.44234 -9.64319,-5.14675 -3.8465,-0.64971 -4.55075,-0.64971 -8.12628,-0.054 z m 8.50543,9.53434 c 6.9884,3.30476 7.4219,12.40626 0.8125,16.84912 -2.38354,1.62504 -6.82605,1.67934 -9.75146,0.16224 -5.79664,-2.9255 -6.39258,-11.86445 -1.08344,-15.8188 3.6299,-2.70904 6.176,-2.9799 10.0224,-1.19256 z M 667.80493,722.7295 c 5.36353,3.30505 6.55527,9.9681 2.54637,14.7355 -1.8961,2.2214 -4.0089,3.19656 -7.0428,3.19644 -5.3633,-0.0542 -9.4806,-4.27979 -9.4806,-9.75164 0.0541,-3.79194 1.8418,-6.6635 5.25474,-8.55964 1.78786,-1.02912 6.82616,-0.75826 8.72229,0.37934 z"
           id="path876"
           style="fill:#000000" />
      </g>
      <g
         style="fill:#000000;fill-opacity:1;stroke-linejoin:miter"
         id="g882">
        <path
           d="m 764.3489,660.55786 c -1.78786,-5.41742 -5.7427,-10.07636 -10.56387,-12.29773 -3.68408,-1.67933 -11.75623,-1.62503 -15.33203,0.10847 -3.73803,1.84203 -7.0967,5.0383 -8.99316,8.6679 -1.40808,2.6546 -2.05834,3.3047 -3.41294,3.57574 -0.9207,0.16242 -7.25955,0.32496 -13.97695,0.32496 l -12.29792,2e-4 -1.24583,-2.92574 c -1.46266,-3.52136 -5.90553,-7.96376 -9.58925,-9.58881 -3.46705,-1.57115 -9.53479,-1.9505 -13.27235,-0.86688 -7.96434,2.32953 -13.2191,9.96826 -13.0565,18.96133 0.1622,6.7176 4.17187,12.9478 10.347,15.92716 2.65476,1.30034 3.6842,1.46271 8.18064,1.5169 4.44236,1.9e-4 5.57971,-0.21656 8.1803,-1.40846 4.28006,-2.0042 7.25983,-4.9297 9.21016,-8.9385 l 1.6251,-3.4675 13.65204,0.1085 13.65236,0.1625 0.97484,2.167 c 2.65442,5.68835 6.71766,9.2099 12.51466,10.88934 11.7561,3.30446 23.1328,-4.71324 23.94567,-17.01134 0.10828,-2.27503 -0.0543,-4.49635 -0.54197,-5.90504 z m -10.0221,10.02244 c -2.97963,5.851 -13.5446,5.90536 -16.41555,0.10866 -1.46255,-2.81732 -1.30029,-8.01816 0.27115,-10.29351 2.16697,-3.19629 3.8464,-4.06311 7.85544,-4.06311 4.06296,0 6.39256,1.19166 8.28896,4.2799 1.40806,2.27536 1.40806,7.25916 0,9.96806 z m -65.11885,0.0544 c -1.84205,3.3046 -3.4668,4.1174 -7.90945,4.1174 -3.5217,0 -4.0632,-0.16256 -5.95945,-1.6797 -1.19155,-0.97505 -2.49219,-2.76277 -3.08775,-4.2256 -0.97524,-2.22125 -1.02944,-2.81714 -0.4336,-5.03845 0.9214,-3.30445 2.4381,-5.36328 4.9845,-6.66339 2.4919,-1.24606 6.44664,-1.40846 8.5592,-0.32516 2.0587,1.0837 4.38854,3.6841 4.9845,5.526 0.7042,2.2212 0.2169,5.95925 -1.13795,8.2889 z"
           id="path880"
           style="fill:#000000" />
      </g>
      <g
         style="fill:#000000;fill-opacity:1;stroke-linejoin:miter"
         id="g886">
        <path
           d="m 686.65955,881.1875 c -4.92995,-1.2997 -10.34729,-5.9049 -12.51455,-10.5637 l -1.3004,-2.8715 -15.7108,-0.27073 c -17.6609,-0.32507 -17.9861,-0.37903 -18.58204,-4.06311 -0.2168,-1.13756 -0.37916,-13.27271 -0.37916,-26.97926 v -24.97515 l -2.9796,-1.46259 c -4.28004,-2.11322 -7.422,-5.20123 -9.26417,-9.21006 -1.35437,-2.92494 -1.57093,-4.00856 -1.51683,-8.2346 0,-4.2796 0.16246,-5.3089 1.46276,-8.01755 1.73354,-3.46745 5.3634,-6.98865 9.04748,-8.72205 2.00426,-0.92145 3.46706,-1.1379 8.12586,-1.1379 4.93005,0 6.01367,0.1621 8.0178,1.2462 3.5758,1.89585 6.98867,5.3088 8.61415,8.66794 2.11305,4.27961 2.38379,10.50956 0.65015,15.00629 -1.5171,4.06307 -5.1466,7.96377 -9.4806,10.23917 l -3.1963,1.67935 -0.1626,23.45845 -0.1086,23.4035 12.7314,-0.002 12.6773,0.002 1.46274,-2.97984 c 1.78772,-3.62953 6.28416,-8.0178 9.80566,-9.5888 1.6793,-0.70437 4.17115,-1.1919 7.0968,-1.4079 4.33387,-0.21724 4.65906,-0.1629 8.5054,1.73326 6.3927,3.14194 9.80564,8.23437 10.4017,15.43974 0.9209,10.9435 -6.66356,19.50295 -17.6069,19.8821 -2.27554,0.1083 -4.8759,0 -5.79665,-0.271 z m 8.93859,-9.37195 c 3.19666,-1.625 5.68873,-5.58015 5.6344,-8.88501 -0.16259,-8.18048 -10.18484,-12.40604 -16.08994,-6.8258 -2.2754,2.11266 -3.08803,4.06311 -3.08803,7.15116 0,3.3048 0.97533,5.41726 3.35873,7.2596 3.4671,2.60047 6.7721,2.9794 10.18484,1.30005 z M 647.599,801.2251 c 2.9795,-1.40875 4.8214,-4.4964 4.8214,-8.01795 0,-3.57562 -1.19176,-5.90525 -4.0089,-7.96365 -6.8259,-4.92996 -15.7108,0.0542 -15.0065,8.4512 0.596,6.9344 7.5845,10.6725 14.194,7.5304 z"
           id="path884"
           style="fill:#000000" />
      </g>
    </g>
    <g
       id="g950"
       style="fill:#000000">
      <g
         style="fill:#000000;fill-opacity:1;stroke-linejoin:miter"
         id="g892">
        <path
           d="m 382.41907,869.6657 c 0.003,-5e-4 -0.003,-0.002 -0.0228,-0.004 l -6.1e-4,10e-4 c -9.6e-4,-10e-4 -0.005,-10e-4 -0.0126,-10e-4 0.0149,0.003 0.0258,0.005 0.0318,0.005 z m 71.70346,-17.6348 c 0.007,-0.002 0.0123,-0.004 0.0177,-0.006 l -6e-5,0.002 c 0.1138,-0.0434 0.1485,-0.065 0.13501,-0.065 -0.0139,0 -0.0773,0.0224 -0.15765,0.0697 z m -62.83725,-11.31136 c -1.2e-4,0 -1.2e-4,0 -1.2e-4,0 v 9.6e-4 z m 39.76846,63.08332 c -7.45947,0 -15.53598,-2.5738 -22.95437,-7.37386 -6.94321,-4.48534 -15.29777,-12.7213 -21.84047,-21.40166 l -0.003,-0.005 -0.003,-0.004 -8.2e-4,-10e-4 c -1.8652,-2.52344 -3.50846,-4.687 -4.03376,-5.34845 -0.44674,0.0416 -1.36627,0.23765 -2.40158,0.56275 v 0.002 c -2.47781,0.77956 -5.90072,1.1878 -9.06454,1.1878 -2.03712,1e-4 -4.00775,-0.16904 -5.58136,-0.5362 l -0.004,-10e-4 c -5.29489,-1.26943 -9.15826,-3.51443 -13.3294,-7.68567 -4.08228,-4.08226 -6.18885,-7.50482 -7.92691,-13.06756 l -10e-4,-0.004 c -0.83916,-2.7381 -1.01136,-4.31036 -1.01136,-8.72717 0,-7.73996 1.54518,-12.39506 6.3844,-19.43811 l 1.3e-4,0.002 c 2.48221,-3.6162 8.37547,-9.418 12.43253,-12.3097 l 0.002,-0.001 c 8.99151,-6.37095 20.40667,-10.18614 30.14737,-10.18614 0.66708,0 1.32196,0.0177 1.97306,0.0539 l 3.3e-4,9.8e-4 c 12.41797,0.69616 20.9017,7.05656 24.7033,18.50496 l 10e-4,0.004 c 0.67732,2.0744 1.37376,4.7071 1.51747,5.8623 l -2.7e-4,0.001 0.29782,1.95503 c 0.031,0.2048 -0.0233,0.4137 -0.1507,0.5772 -0.12742,0.1636 -0.31632,0.2676 -0.52258,0.2876 l -3.06217,0.2978 -0.006,4.7e-4 c -3.20654,0.28778 -9.02536,2.04143 -12.52478,3.83276 l -0.004,0.002 c -4.18271,2.1126 -11.29976,7.5225 -12.58951,9.55496 l -0.009,0.0143 -1.8e-4,2.4e-4 c -0.12653,0.18956 -0.17366,0.27991 -0.19138,0.32282 l -0.004,0.002 c 0.0587,0.14642 0.34729,0.47351 1.47975,1.50545 l 0.0149,0.014 c 1.09033,1.04827 2.99165,2.73889 4.25555,3.79199 l 0.006,0.005 1.79303,1.52746 2.1029,-1.89624 c 5.98221,-5.42806 13.38831,-8.28536 20.45827,-8.28536 4.59382,0 9.05,1.2068 12.86824,3.70595 l 0.005,0.004 0.002,10e-4 0.009,0.006 c 1.36072,0.93536 3.07898,2.2502 3.7789,2.99676 l 0.002,0.002 c 1.78318,1.91675 4.21814,6.1838 5.05762,8.83386 0.33476,1.05188 0.51406,1.4245 0.61069,1.54884 l 0.005,0.002 c 0.0171,-0.005 0.0389,-0.009 0.0658,-0.0152 l 0.0174,-0.004 c 2.6716,-0.56277 7.97244,-1.8291 9.75186,-2.2987 l -0.005,0.002 c -0.38304,-1.39296 -1.6225,-4.77146 -2.4411,-6.40866 -3.6259,-7.16665 -9.1577,-12.5698 -16.3117,-15.8554 l 1.3e-4,0.001 -3.6149,-1.65997 c -0.24539,-0.1127 -0.41201,-0.34785 -0.43683,-0.6168 l -0.25518,-2.7643 c -0.41895,-4.1797 -2.14264,-10.72566 -3.71682,-14.0812 v 0.002 c -2.08537,-4.37988 -4.3268,-7.45178 -7.87547,-10.83344 -6.32736,-5.9935 -14.0766,-9.38116 -24.10361,-10.5139 l -0.004,-3e-4 c -1.93168,-0.2274 -3.72103,-0.468 -4.1484,-0.59554 l -6.1e-4,0.002 c -0.0159,-0.005 -0.22197,-0.0611 -0.37769,-0.21583 l -0.002,0.002 c -0.31726,-0.3094 -0.24371,-0.7621 -0.24084,-0.7621 l 1.5e-4,0.002 c 0.0492,-0.46747 0.40105,-1.3819 0.76407,-2.20694 l 8.8e-4,-0.002 c 2.2805,-5.14135 3.49973,-13.47124 2.87345,-19.6924 l -1.9e-4,-0.002 c -0.91684,-9.3357 -5.32952,-17.42604 -12.15869,-22.4754 v 0.002 l -2.84622,-2.08317 c -0.23735,-0.1736 -0.35232,-0.4692 -0.29465,-0.75735 l 0.3402,-1.70125 -1.4e-4,0.002 c 0.15579,-0.88024 0.32574,-4.0302 0.32574,-7.08343 0,-5.69677 -0.79263,-9.35877 -2.7258,-13.18407 l -2.7e-4,0.002 -0.84057,-1.5567 c -0.15809,-0.2921 -0.10642,-0.6531 0.12698,-0.8894 l 3.53,-3.5723 0.003,-0.003 c 4.96416,-4.9643 9.99692,-7.2811 16.18463,-7.2811 4.51499,0 9.97806,1.8476 14.29221,4.81093 l 0.006,0.005 1.99887,1.4035 c 0.22223,0.15601 0.34366,0.41945 0.31762,0.68988 l -0.29724,3.10077 c -0.74765,8.2238 2.08322,18.2565 7.26789,25.8265 2.3659,3.40073 7.80099,8.66233 9.40948,9.5648 l 0.005,0.002 c 0.21666,-0.3151 0.56638,-0.8273 1.01703,-1.4876 0.58066,-0.8507 1.2815,-1.8778 2.06433,-3.0149 l 2.86615,-4.1689 -0.82895,-0.6277 -0.003,-0.003 c -8.20511,-6.28475 -12.5737,-16.67029 -11.26205,-26.72492 l 10e-4,-0.008 c 0.60645,-4.28845 2.07837,-8.8908 4.00463,-12.2622 l 0.001,-0.002 c 2.01935,-3.51186 6.79048,-8.3733 10.22916,-10.3573 l -4.6e-4,10e-4 c 1.01306,-0.62127 1.7904,-1.1534 2.17712,-1.45794 l -0.005,0.001 c -0.36218,-0.87897 -1.15112,-2.83567 -2.0271,-5.00922 v 0.002 l -1.78842,-4.38124 -0.81973,0.3643 v 0.002 c -6.55777,2.9462 -13.3266,9.2887 -17.12443,16.0456 l -5e-5,10e-4 c -0.61585,1.1218 -1.27692,2.1756 -1.55665,2.49824 l 0.002,10e-4 c 0.009,-10e-4 -0.25308,0.31515 -0.63832,0.31515 -0.15147,0 -0.2842,-0.0492 -0.29088,-0.0513 l -4e-4,-2e-4 c -0.38102,-0.1263 -1.9309,-0.88554 -3.61874,-1.72953 l -0.002,-10e-4 c -5.37772,-2.70954 -8.83335,-3.5343 -15.18377,-3.5343 -3.98014,0 -6.19392,0.21323 -8.09202,0.73823 l -8.3e-4,3e-4 c -5.74267,1.5812 -12.37731,5.50854 -16.18637,9.6475 l -1.74368,1.91383 c -0.1485,0.16297 -0.3528,0.24652 -0.5584,0.24652 -0.16694,0 -0.33476,-0.055 -0.47398,-0.16775 l -3.31732,-2.6793 -0.002,-0.002 c -5.59098,-4.5479 -12.99891,-7.8593 -20.7967,-9.2848 l -3.3e-4,10e-4 -0.004,-0.002 c -1.88755,-0.34676 -3.6639,-0.7453 -4.07438,-0.903 l -3.7e-4,-1e-4 -1.8e-4,0.002 c -0.0115,-0.005 -0.18323,-0.0659 -0.31693,-0.1996 -0.41299,-0.4128 -0.18948,-0.96236 -0.16778,-1.0201 0.0893,-0.2378 0.2478,-0.4777 0.42611,-0.6855 l -3e-4,10e-4 c 1.37703,-1.70936 3.56698,-9.13676 3.98919,-14.11896 l 4e-4,-0.004 0.29758,-3.3173 c 0.0188,-0.20933 0.12393,-0.4012 0.29013,-0.5299 0.13318,-0.1029 0.29578,-0.15776 0.46179,-0.15776 0.0413,0 0.0828,0.003 0.12402,0.0105 l 1.53095,0.2551 v 0.002 c 4.01834,0.6682 7.86941,1.0042 11.45029,1.0042 3.40753,0 6.56038,-0.30506 9.36001,-0.91364 l 0.003,-7.6e-4 c 15.1181,-3.2159 26.19324,-13.26553 31.8118,-28.9049 l 3.9e-4,-0.001 c 0.79505,-2.20166 1.32308,-3.53985 2.03571,-4.01556 0.22894,-0.15289 0.48419,-0.23151 0.7529,-0.23151 0.0599,0 0.11673,0.004 0.17177,0.0103 l 4.7e-4,9.5e-4 0.009,2e-4 0.009,10e-4 c 1.98101,0.26415 3.90884,0.39605 5.77876,0.39605 6.42314,5e-5 12.2197,-1.55445 17.4669,-4.67719 l 6e-5,0.002 c 1.45644,-0.8754 2.32154,-1.38374 3.18769,-1.38374 0.46881,0 0.88715,0.14464 1.30197,0.30774 l 0.01,0.004 c 4.9458,2.02476 10.69323,3.15456 15.9831,3.15456 1.36507,0 2.69216,-0.0747 3.97008,-0.22817 l 0.007,-7.3e-4 c 4.1675,-0.46313 9.36558,-1.6846 11.8289,-2.71106 l 0.006,-0.003 1.36093,-0.5528 c 0.0927,-0.0377 0.1889,-0.0558 0.28382,-0.0558 0.267,0 0.5235,0.14255 0.6602,0.38846 l 1.69874,3.05784 c 2.46426,4.3666 4.69906,10.2606 6.03143,15.8908 l 0.001,0.005 c 0.99597,4.32995 1.125,5.7549 1.125,12.8005 2e-5,6.4825 -0.17032,8.71536 -0.95248,12.32186 -3.00827,14.00989 -9.58884,25.88194 -19.77713,35.72614 l -0.002,0.002 -2.6132,2.5087 2.43424,2.2629 v 0.002 c 5.84956,5.4181 11.43646,12.9365 14.71192,19.8313 10.04751,20.9575 6.49417,44.78974 -9.37143,63.6675 l -1.72443,2.07634 1.98276,2.97416 c 3.27394,4.8678 7.51504,13.73684 9.32234,19.46 l 0.002,0.006 c 0.81732,2.66684 1.93066,7.29184 2.44653,10.30094 l 10e-4,0.008 c 0.77465,4.82063 0.90325,6.6153 0.68973,13.8754 -0.17065,6.8717 -0.42818,9.1398 -1.29474,12.90935 l -10e-4,0.006 c -2.83397,11.8936 -7.61609,20.752 -14.97305,27.7196 l -9.5e-4,7.6e-4 c -5.40067,5.09814 -10.37057,7.85434 -16.86217,9.20564 l 8e-5,10e-4 c -1.99588,0.42487 -4.06976,0.63343 -6.19324,0.63343 z"
           id="path890"
           style="fill:#000000" />
      </g>
      <g
         style="fill:#000000;fill-opacity:1;stroke-linejoin:miter"
         id="g896">
        <path
           d="m 332.89172,829.35345 -0.18274,-0.0225 c -0.12741,-0.0319 -0.77441,-0.15494 -1.47894,-0.2378 l -0.0188,-0.002 c -3.06549,-0.438 -6.79739,-1.6129 -10.21481,-3.25665 -2.98358,-1.40475 -4.41547,-2.48345 -7.01578,-5.12702 v 0.002 c -5.02395,-5.07 -7.42581,-10.42283 -8.29263,-18.225 v 0.001 c -1.17059,-10.4523 2.54636,-23.07073 9.0928,-31.2213 l 0.006,-0.007 c 0.552,-0.6703 1.03525,-1.2874 1.39264,-1.75955 l -0.003,0.002 c -0.66922,-0.0643 -1.59484,-0.13565 -2.63794,-0.19827 l -8.8e-4,0.002 c -5.11859,-0.30536 -8.6984,-1.224 -13.67154,-3.55921 v 0.002 c -9.59758,-4.49764 -16.39928,-11.1709 -21.15256,-20.7639 l -0.001,-0.003 c -3.36643,-6.86235 -4.20181,-10.29185 -4.24503,-17.9782 v 0.002 c -0.0427,-5.22095 0.12825,-6.79145 0.96509,-9.6986 v 0.002 c 1.04398,-3.69626 3.33266,-8.5335 5.46573,-11.58084 l 0.002,-0.003 c 0.73075,-1.03167 1.43975,-2.03277 1.604,-2.27917 l 2.2e-4,-1.3e-4 c 0.25628,-0.38447 0.69073,-0.40143 0.80833,-0.40442 l -0.002,0.002 c 0.0177,-0.002 0.024,-0.002 0.0413,-0.002 0.70972,0 2.16087,0.5414 3.74977,1.2847 v 0.002 c 7.70476,3.49294 13.63698,4.90698 20.74044,4.90698 4.76699,0 7.51138,-0.36908 16.51162,-2.32194 l 0.004,-7.6e-4 c 4.35597,-0.92218 8.10767,-1.40777 11.59405,-1.40789 5.93069,0 11.02912,1.40685 16.96602,4.36155 v 10e-4 c 7.07384,3.4923 12.02797,7.9745 14.67436,13.31096 l 6e-5,10e-4 0.002,0.003 c 1.38604,2.81705 1.47997,3.3274 1.47997,7.85905 0,4.2226 -0.13339,5.1432 -1.29247,7.8633 -0.7058,1.676 -2.30833,4.4876 -3.56697,6.2671 l -0.0123,0.017 -0.002,0.002 1.2e-4,0.002 c -0.67022,0.91475 -1.24665,1.72925 -1.64252,2.30859 l -0.004,0.002 c 0.17452,0.005 0.36786,0.008 0.57657,0.008 9.29815,-10e-5 17.80597,7.4885 20.21205,17.58855 0.75166,3.09491 0.7511,9.12785 5.6e-4,12.26215 l -7e-4,0.003 c -0.87896,3.60335 -3.31706,8.3081 -5.7399,11.03955 l -0.001,10e-4 c -1.83688,2.06106 -2.83538,2.71649 -5.89708,3.94116 l -0.008,0.003 c -5.7764,2.23462 -13.8342,6.58386 -17.6362,9.46666 l -0.004,0.003 c -4.48853,3.3558 -9.99691,9.0774 -12.87945,13.42215 l -0.005,0.008 c -1.24585,1.82704 -3.35391,5.6598 -4.75052,8.5378 l -0.002,0.004 c -1.23953,2.5169 -2.45025,4.7521 -2.8752,5.2427 l 7.2e-4,10e-4 c 0.005,-10e-4 -0.25049,0.3236 -0.6521,0.3236 z"
           id="path894"
           style="fill:#000000" />
      </g>
      <g
         style="fill:#000000;fill-opacity:1;stroke-linejoin:miter"
         id="g900">
        <path
           d="m 330.56622,658.29846 c 0.0212,-0.0242 0.04,-0.0492 0.0566,-0.074 v 10e-4 l -0.0607,0.0725 z M 429.24713,513.6035 c 8.3e-4,-7e-4 0.002,-0.001 0.003,-0.002 l 6.7e-4,-6.1e-4 c 0.036,-0.0291 0.0507,-0.0443 0.0507,-0.0471 l -0.002,0.002 c -0.006,10e-4 -0.028,0.0185 -0.0568,0.0481 z m -3.69827,-9.26067 c 0.0101,-2.3e-4 0.007,-0.002 -0.0125,-0.002 -0.003,1.2e-4 -0.007,1.2e-4 -0.0108,4.2e-4 l -0.005,0.002 c 0.01,-4.3e-4 0.0177,-1.3e-4 0.0233,0 z M 308.9515,699.61847 c -1.8993,0 -3.7829,-0.12137 -5.27593,-0.37341 l 9e-5,0.002 c -10.31558,-1.7426 -20.5242,-8.8586 -26.95899,-18.6621 l -0.003,-0.004 c -4.18885,-6.47764 -6.94266,-13.84888 -8.48822,-22.73608 l -3.8e-4,-0.002 c -1.07793,-6.2957 -1.1608,-18.49345 -0.21718,-25.7848 l 4.6e-4,-0.004 c 3.51889,-26.13346 16.89529,-44.586 38.99412,-53.6323 l 0.01,-0.004 0.008,-0.003 v 0.001 c 1.9657,-0.78104 3.91947,-1.53147 4.81115,-1.78385 l -0.004,10e-4 c -0.2356,-0.73856 -0.7027,-2.62513 -1.14834,-4.48206 l -5.3e-4,-0.002 c -0.78695,-3.32293 -0.91345,-5.311 -0.95599,-12.29034 v -0.005 c -3e-5,-7.4535 0.12607,-8.7732 1.04794,-12.10923 1.25232,-4.53394 3.28354,-9.03637 5.59214,-12.39037 v 10e-4 c 1.7593,-2.6355 6.07312,-6.9906 8.65444,-8.78435 v 0.001 c 2.59293,-1.80325 7.43934,-3.96205 11.0765,-4.95788 l 0.003,-9.2e-4 c 2.55833,-0.68951 6.30024,-1.02025 10.07484,-1.02025 3.72166,0 7.54541,0.3206 10.40531,0.9705 l 0.009,0.002 c 1.16049,0.2786 2.20175,0.50505 2.90435,0.6525 l 0.004,0.002 c -0.0518,-0.8039 -0.15463,-2.08338 -0.30548,-3.54244 l -8.2e-4,-0.008 c -0.81925,-8.88216 0.72882,-18.2092 4.24032,-25.44887 l 9.8e-4,-0.002 c 3.84253,-7.85997 11.175,-13.66577 19.64963,-15.58783 l 0.01,-0.002 c 1.86615,-0.39765 3.4007,-0.58155 5.87622,-0.58155 1.05623,0 2.2941,0.0336 3.79313,0.0977 l -0.003,0.002 c 6.4183,0.21382 10.62439,1.08027 16.39831,3.27722 l 1.87026,0.6927 2.46788,-2.2063 -6e-5,0.002 c 7.38388,-6.65509 14.42032,-10.67947 22.29852,-12.75722 l -3.4e-4,0.002 c 2.17985,-0.57966 4.68326,-0.79206 8.65635,-0.79206 l -0.005,10e-4 c 0.19893,-0.003 0.41253,-0.004 0.6049,-0.004 5.98493,0 8.92408,0.65534 13.92683,3.05115 10.51755,4.9545 17.87539,14.24765 21.37085,26.92746 0.8406,2.91997 0.96509,4.63422 0.96524,11.77265 0.0426,7.76275 -0.0423,8.69378 -1.17362,12.91412 v 0.002 c -1.50522,5.6756 -3.956,11.5682 -6.80035,16.3521 l -0.002,0.003 c -2.43282,4.05447 -7.40847,10.84603 -9.14425,12.4927 l -0.0193,0.0178 -0.56172,0.49694 2.21882,2.7119 c 7.25908,8.84804 11.66004,18.024 13.42908,28.03414 l 9.2e-4,0.005 c 0.95144,5.57974 0.6542,15.12944 -0.69437,20.22174 v 10e-4 c -3.1463,12.0234 -9.85001,21.24026 -19.09465,26.0373 -3.96175,2.0638 -8.13518,3.0902 -12.34328,3.0902 -5.76715,0 -11.56085,-1.92746 -16.93359,-5.6934 l -2.13388,-1.46905 -0.71205,0.55371 2e-4,0.002 c -3.39664,2.7056 -8.6808,5.93364 -11.66117,7.11876 l -6e-5,10e-4 c -3.14157,1.2818 -3.92907,1.37243 -8.65695,1.41546 l -0.007,0.002 c -4.7503,-0.002 -5.4471,-0.0858 -7.86012,-1.2695 v 0.002 c -4.19964,-2.03524 -7.16698,-6.16195 -8.39804,-11.394 v 0.002 c -0.71051,-2.9394 -0.70178,-9.3825 -0.007,-13.07284 l -8e-5,10e-4 c 0.21311,-1.24837 0.31565,-2.35333 0.31235,-2.76097 l -0.004,10e-4 c -0.31367,-0.3018 -1.28617,-1.0072 -2.5351,-1.7208 l -0.0139,-0.008 c -1.5221,-0.9133 -4.20127,-2.8139 -5.89984,-4.33844 l -1.8e-4,0.002 c -7.7331,-6.6589 -11.86115,-14.63386 -11.86118,-23.189 0,-6.8887 1.91678,-11.37235 7.02358,-16.5227 2.69785,-2.74107 4.04725,-3.6858 7.44254,-5.29655 4.20411,-2.01595 8.0437,-3.25045 11.0275,-3.47295 l -4e-4,0.002 1.56906,-0.1289 c 0.0205,-0.002 0.0411,-0.002 0.0615,-0.002 0.32043,0 0.60923,0.20376 0.71413,0.5115 l 1.27598,3.74243 4.2e-4,10e-4 c 3.555,10.4976 9.63563,17.6087 18.97364,22.278 2.59531,1.2975 6.57272,2.7592 8.78689,3.2102 l 0.0106,0.002 0.62296,0.13626 0.5621,-2.57916 v 0.002 c 0.31622,-1.51265 0.77922,-3.55323 1.09595,-4.9497 v -2e-4 c 0.0553,-0.24335 0.14154,-0.6235 0.18115,-0.79877 l 0.3942,-1.75893 -1.04422,-0.28013 -3.6e-4,0.002 c -1.04502,-0.2752 -3.22178,-1.1494 -4.86906,-1.8674 l -0.0168,-0.008 c -14.26966,-6.63913 -19.72144,-21.34619 -13.20279,-35.35656 0.0833,-0.1792 0.16663,-0.35407 0.25387,-0.5329 l 10e-4,-0.003 c 3.0958,-6.27885 7.76527,-10.9811 14.5651,-14.6624 l 0.009,-0.005 c 1.18874,-0.62256 2.17432,-1.1809 2.69211,-1.4966 l -0.005,0.002 c -0.6457,-1.76733 -2.97898,-7.74438 -3.6748,-9.43695 -0.38544,0.1023 -1.03657,0.32733 -1.84397,0.68035 l -1.5e-4,0.002 c -11.7049,5.18188 -21.52638,16.81874 -24.10804,28.60248 l -1.2e-4,10e-4 -0.72296,3.27474 c -0.0687,0.31065 -0.32466,0.54496 -0.64023,0.5859 l -2.2966,0.29774 -0.004,4.6e-4 c -10.07669,1.2543 -20.9115,6.9535 -26.90363,14.0682 -2.78182,3.32136 -6.21624,9.8582 -7.29236,13.873 l -0.001,0.004 c -0.94756,3.4604 -1.28396,11.6825 -0.62332,15.3165 l 3e-4,0.002 c 1.75079,9.75456 7.29688,18.64752 15.65696,24.96076 l -1.6e-4,10e-4 2.3392,1.74224 c 0.1911,0.14252 0.30374,0.36686 0.30374,0.60526 v 3.82754 c 0,4.89826 0.90705,8.8266 3.15604,13.53406 1.53415,3.1512 2.46341,4.4899 5.3877,7.45593 l 0.002,0.002 3.61499,3.70025 c 0.19827,0.20295 0.26595,0.4998 0.17557,0.7686 l -1.36115,4.0404 c -2.33017,7.1603 -5.32857,11.9557 -9.99011,16.1817 l -4e-4,3.4e-4 c -5.49936,4.97906 -12.71139,7.45286 -21.31174,7.45286 -6.61199,0 -14.04956,-1.46055 -22.19097,-4.3669 l -0.0138,-0.005 -8e-5,10e-4 c -2.27906,-0.82334 -4.62882,-1.7143 -5.51835,-2.13764 0.14951,0.4701 0.35687,1.0594 0.61652,1.69965 l 0.008,0.0218 c 2.7543,7.44516 3.64696,15.94592 2.10616,21.67606 v 0.002 c -2.24551,8.54005 -9.11356,14.86375 -18.01006,16.74872 l 2e-4,0.001 c -1.8568,0.3946 -4.36923,0.59067 -6.788,0.59067 z"
           id="path898"
           style="fill:#000000" />
      </g>
      <g
         style="fill:#000000;fill-opacity:1;stroke-linejoin:miter"
         id="g904">
        <path
           d="m 333.71118,735.903 c 9.15549,2.3836 15.11482,13.489 12.40595,23.1326 -1.73359,5.9589 -5.52593,10.2389 -11.26831,12.5687 -8.77642,3.52143 -20.26145,-1.13805 -23.99964,-9.7517 l -1.46255,-3.4132 -59.26764,0.16283 -59.26767,0.10797 3e-5,42.4189 c 3e-5,26.221 -0.21668,43.12346 -0.54163,44.31524 -0.27089,1.02946 -1.02943,2.43806 -1.62535,3.08819 -1.08336,1.13757 -1.30007,1.13757 -20.36992,1.13757 l -19.28631,10e-4 -1.5168,3.1413 c -1.51688,3.2506 -5.52579,7.47605 -8.55964,9.0473 -2.3836,1.2458 -7.96386,1.8962 -11.64767,1.4087 -6.17598,-0.8672 -10.94343,-4.55057 -13.81466,-10.7268 -1.24616,-2.6547 -1.46277,-3.79197 -1.46277,-7.96354 -1e-5,-4.11761 0.2166,-5.36356 1.40846,-7.90973 1.73368,-3.68377 4.44241,-6.50103 8.2348,-8.50543 2.60033,-1.3545 3.30457,-1.4626 8.77623,-1.4626 5.20104,-3.5e-4 6.28451,0.1622 8.55972,1.2997 3.5757,1.788 6.98865,5.3637 8.55963,8.939 l 1.30008,3.03366 16.361,0.002 16.3609,-0.002 0.16256,-43.5022 c 0.16239,-40.41492 0.21656,-43.55726 1.1377,-45.23646 l 0.97505,-1.73363 62.73477,9.7e-4 62.7348,-7.9e-4 1.73368,-3.46745 c 1.95044,-3.9545 5.47168,-7.47615 9.26388,-9.1555 2.65467,-1.1916 10.34754,-1.73295 13.38132,-0.9746 z m -9.85992,9.5345 c -0.92084,0.4873 -2.43772,1.5711 -3.30469,2.4919 -1.30017,1.3542 -1.57097,2.1128 -1.73349,5.3093 -0.271,4.4965 0.59589,6.39246 3.84642,8.7763 2.1128,1.5711 2.49196,1.6796 5.74245,1.35457 5.58001,-0.48757 8.61375,-2.97962 9.10132,-7.5307 0.59603,-4.98387 -1.24604,-8.8302 -4.98407,-10.45527 -2.2211,-0.9755 -6.50092,-0.92156 -8.66794,0.0539 z m -197.08905,90.5263 c -3.95479,2.00495 -5.79679,4.7674 -5.79677,8.61426 0,4.55054 2.81714,8.34294 7.15114,9.53449 2.65454,0.70459 4.98414,0.27099 7.63879,-1.46265 2.81723,-1.8422 4.17149,-4.226 4.17149,-7.47656 -1e-5,-7.31378 -7.09696,-12.29744 -13.16465,-9.20954 z"
           id="path902"
           style="fill:#000000" />
      </g>
      <g
         style="fill:#000000;fill-opacity:1;stroke-linejoin:miter"
         id="g908">
        <path
           d="m 394.03235,416.81784 c 5.4176,1.78776 10.07655,5.74256 12.29788,10.56376 1.67927,3.68413 1.62515,11.7563 -0.10853,15.33205 -1.842,3.73798 -5.03826,7.09675 -8.6678,8.99323 -2.6546,1.40814 -3.30475,2.05835 -3.57578,3.41302 -0.16226,0.92066 -0.32486,7.2597 -0.32495,13.9768 l 3e-5,12.29814 2.92557,1.24578 c 3.52136,1.46253 7.96377,5.90528 9.58899,9.58898 1.57119,3.46712 1.9504,9.53487 0.86682,13.27235 -2.32953,7.9643 -9.9683,13.21915 -18.96138,13.05665 -6.71776,-0.1622 -12.94786,-4.1719 -15.92742,-10.3471 -1.30026,-2.6548 -1.46258,-3.68403 -1.51688,-8.18062 0,-4.44244 0.21662,-5.57983 1.40845,-8.18042 2.00445,-4.27996 4.93,-7.25982 8.93891,-9.20984 l 3.46716,-1.6253 -0.10822,-13.65202 -0.16268,-13.65215 -2.16697,-0.97491 c -5.68845,-2.65448 -9.2099,-6.7179 -10.8894,-12.5148 -3.30457,-11.75608 4.71315,-23.13274 17.0112,-23.94568 2.27527,-0.10816 4.49655,0.0543 5.905,0.54208 z m -10.02231,10.02196 c -5.85101,2.9796 -5.90521,13.5445 -0.10852,16.41542 2.81728,1.46264 8.01791,1.30028 10.29338,-0.27106 3.19634,-2.1669 4.06316,-3.84622 4.06316,-7.85526 0,-4.06313 -1.19176,-6.39266 -4.28,-8.2891 -2.2753,-1.4081 -7.25926,-1.4081 -9.96802,0 z m -0.0543,65.11882 c -3.30466,1.84216 -4.11738,3.46698 -4.11738,7.90954 0,3.52174 0.16267,4.06311 1.67967,5.95954 0.97506,1.19153 2.76297,2.49206 4.22561,3.08764 2.22126,0.97528 2.81714,1.02956 5.03836,0.43354 3.30466,-0.92121 5.36332,-2.43781 6.66356,-4.98432 1.24596,-2.49194 1.40846,-6.44653 0.3251,-8.55938 -1.0837,-2.05866 -3.684,-4.38831 -5.5259,-4.98426 -2.22118,-0.7044 -5.95937,-0.21698 -8.28902,1.1377 z"
           id="path906"
           style="fill:#000000" />
      </g>
      <g
         style="fill:#000000;fill-opacity:1;stroke-linejoin:miter"
         id="g912">
        <path
           d="m 254.61655,456.07922 c 3.14215,1.51698 8.07229,6.28406 9.64309,9.42608 0.7584,1.40895 1.57136,3.79255 1.84241,5.2552 1.40833,7.36767 -3.63022,16.5233 -10.8898,19.88244 l -3.19635,1.46266 1.2e-4,34.29284 -6e-5,34.2384 16.95712,24.59576 c 9.37252,13.4893 17.93232,25.89563 19.06949,27.62916 l 2.05875,3.08794 13.48998,10e-4 13.43516,10e-4 1.3002,-2.9816 c 1.62561,-3.63 5.3096,-7.3141 9.42667,-9.3183 2.70877,-1.3004 3.73807,-1.51703 7.96387,-1.51734 3.90054,1.4e-4 5.41747,0.2713 7.53002,1.24644 4.33423,2.0043 7.0972,4.60506 9.10132,8.668 1.625,3.30486 1.78763,4.0631 1.78754,8.50603 0,4.11687 -0.2706,5.36277 -1.46238,7.96327 -1.67956,3.62975 -5.36343,7.4218 -8.83087,9.1015 -3.35873,1.62505 -9.91369,2.05864 -13.86883,0.92077 -5.2547,-1.57077 -10.40164,-6.44667 -11.97247,-11.37647 l -0.59603,-2.005 -11.97212,-0.0541 c -13.81508,1.8e-4 -19.2327,-0.32426 -20.2081,-1.13676 -0.81235,-0.6505 -9.96756,-13.3815 -18.41901,-25.62514 -3.30477,-4.76736 -10.02285,-14.51886 -15.00701,-21.67006 l -8.99299,-13.00225 -9e-5,-9.48028 c -1e-5,-5.20093 -0.16261,-21.34503 -0.37925,-35.86414 l -0.32514,-26.38305 -2.22093,-0.81275 c -3.35896,-1.30066 -7.63887,-5.30939 -9.37262,-8.88476 -1.3541,-2.76307 -1.51678,-3.63019 -1.51689,-8.77667 9e-5,-5.0923 0.16282,-5.95838 1.463,-8.39655 1.73338,-3.35913 5.63391,-7.04291 8.99295,-8.56025 3.7379,-1.6793 11.97262,-1.8958 15.16925,-0.43298 z m -12.73143,9.58893 c -0.81237,0.6499 -2.11263,1.9502 -2.76306,2.97931 -1.73342,2.49207 -1.51688,8.01776 0.37933,10.67244 5.20103,7.314 17.39041,3.35912 17.39051,-5.6343 -1e-4,-2.76238 -1.19177,-5.09222 -3.7926,-7.4757 -2.27514,-2.05847 -2.32925,-2.05847 -6.01333,-1.84186 -2.65445,0.16254 -4.11759,0.48756 -5.20085,1.30011 z m 89.22678,146.59772 c -3.5215,1.84216 -4.5508,3.57573 -4.76748,8.07193 l -0.21664,3.79196 2.97964,3.0343 3.03398,2.97934 3.79192,-0.2171 c 4.49658,-0.21634 6.23025,-1.2457 8.01794,-4.7671 1.46286,-2.76253 1.62514,-6.87984 0.48774,-9.1013 -2.38358,-4.6048 -8.3969,-6.2846 -13.3271,-3.79203 z"
           id="path910"
           style="fill:#000000" />
      </g>
      <g
         style="fill:#000000;fill-opacity:1;stroke-linejoin:miter"
         id="g916">
        <path
           d="m 422.0075,327.82227 c 3.57572,0.43368 9.31843,3.41278 11.64768,6.12161 1.08338,1.24622 2.60028,3.57577 3.30484,5.09268 l 1.30045,2.87109 6.06756,-2.5e-4 c 3.35897,4e-4 6.3386,0.21714 6.66382,0.4336 1.29987,0.81278 1.896,3.034 2.38355,8.39707 0.27072,3.03403 0.48718,32.99301 0.54138,66.58145 l 1.2e-4,61.05554 3.4672,1.67914 c 6.44677,3.03418 9.6432,8.1806 9.96823,15.98187 0.27077,6.55506 -1.02933,10.18469 -5.09241,14.19391 -6.23038,6.06726 -15.54825,7.20526 -23.02452,2.70837 -5.58016,-3.35845 -9.58913,-10.99682 -9.04732,-17.33575 0.5961,-7.151 6.772,-14.8437 13.54376,-16.84833 0.92133,-0.27105 0.97522,-3.79211 0.97513,-63.71005 l 4e-4,-63.43952 -3.08807,0.16288 c -3.35883,0.16247 -3.08793,-0.10861 -6.6641,5.85082 -4.17108,6.9348 -15.49396,9.64375 -23.56607,5.6885 -6.77163,-3.3047 -11.10587,-10.99718 -10.34738,-18.3652 1.08362,-10.45598 10.72665,-18.36547 20.96575,-17.11943 z m -5.41744,9.75155 c -2.54648,0.70413 -5.36344,3.57578 -6.0676,6.12161 -0.7045,2.5466 0.10824,6.82637 1.67941,9.04773 1.46241,2.05841 4.22568,3.25028 7.63873,3.25028 7.25956,-1.4e-4 11.64768,-6.772 8.668,-13.38159 -2.16693,-4.76731 -6.50106,-6.60915 -11.91854,-5.03803 z m 28.33362,150.55264 c -8.55973,3.90094 -6.60941,16.74006 2.81732,18.25672 4.2256,0.65045 8.28854,-1.57062 10.02243,-5.41698 1.67935,-3.7381 1.08343,-7.639 -1.67963,-10.4559 -3.35876,-3.41307 -7.09683,-4.2257 -11.16012,-2.38384 z"
           id="path914"
           style="fill:#000000" />
      </g>
      <g
         style="fill:#000000;fill-opacity:1;stroke-linejoin:miter"
         id="g920">
        <path
           d="m 422.00757,855.24005 c 3.57573,0.43365 9.31845,3.41275 11.6477,6.12155 1.08341,1.2458 2.60033,3.5757 3.30483,5.0927 l 1.30046,2.87083 6.0676,-3.3e-4 c 3.35894,4.6e-4 6.33859,0.21725 6.66381,0.4337 1.2999,0.813 1.896,3.0342 2.38353,8.39726 0.27077,3.03384 0.48714,32.9928 0.5415,66.58104 l 2e-5,61.0556 3.4672,1.6792 c 6.44674,3.034 9.64318,8.1806 9.96826,15.982 0.27075,6.5552 -1.02933,10.1846 -5.09241,14.1937 -6.23041,6.0671 -15.54827,7.2054 -23.02447,2.7083 -5.5802,-3.3583 -9.58918,-10.9966 -9.04734,-17.3356 0.59604,-7.1511 6.77198,-14.8439 13.5437,-16.8485 0.92127,-0.2706 0.97519,-3.792 0.97516,-63.7098 l 3.4e-4,-63.43936 -3.08804,0.16286 c -3.35886,0.1622 -3.08796,-0.1088 -6.6641,5.8509 -4.17112,6.93466 -15.49399,9.64347 -23.56607,5.6882 -6.7716,-3.3046 -11.1058,-10.99694 -10.34735,-18.3649 1.08362,-10.4561 10.7267,-18.36556 20.96567,-17.11935 z m -5.41745,9.75128 c -2.54642,0.70441 -5.36337,3.57587 -6.06754,6.12177 -0.70448,2.5467 0.10822,6.8261 1.67945,9.04785 1.46237,2.05825 4.22557,3.25015 7.63867,3.25015 7.25955,-4e-4 11.64767,-6.7723 8.668,-13.3816 -2.1669,-4.7674 -6.50113,-6.60933 -11.91858,-5.03817 z m 28.33368,150.55247 c -8.55966,3.9009 -6.60932,16.7402 2.81735,18.2567 4.22559,0.6504 8.28851,-1.5708 10.02237,-5.4168 1.67941,-3.7382 1.08348,-7.6392 -1.67957,-10.4562 -3.35875,-3.413 -7.09685,-4.2256 -11.16015,-2.3837 z"
           id="path918"
           style="fill:#000000" />
      </g>
      <g
         style="fill:#000000;fill-opacity:1;stroke-linejoin:miter"
         id="g924">
        <path
           d="m 339.68256,762.95184 c 3.35861,1.13746 7.74652,5.14676 9.80526,8.88486 1.24618,2.3836 1.62528,3.738 1.78781,7.3675 0.43327,7.5849 -2.27545,13.16464 -8.01779,16.9028 -9.80554,6.33856 -23.40394,2.54644 -27.62957,-7.69275 l -1.30027,-3.0879 -14.08563,0.002 -14.08517,-0.002 -4.9303,3.08805 c -18.47367,11.70205 -52.65804,33.96743 -53.25397,34.72616 -0.4879,0.65004 -0.65005,4.22584 -0.65005,13.59804 v 12.7855 l 3.52132,1.8418 c 4.659,2.3838 8.45121,6.50116 9.69717,10.6186 1.35455,4.2794 1.02935,11.48534 -0.70449,14.7901 -1.84173,3.5753 -5.20048,6.9341 -8.61375,8.613 -2.65427,1.30075 -3.6297,1.4629 -8.45145,1.4629 -3.8463,0 -6.0675,-0.2708 -7.47601,-0.86686 -2.60048,-1.1919 -7.20531,-5.47174 -8.88469,-8.34259 -2.38391,-4.06311 -2.60018,-13.43579 -0.43343,-17.66155 1.62525,-3.1422 6.06766,-7.2596 9.42662,-8.7759 l 3.2504,-1.4627 0.0541,-15.007 c 0,-8.2347 0.16251,-15.43984 0.37932,-15.9274 0.59591,-1.4628 8.23486,-6.55535 48.05336,-32.2335 l 16.19854,-10.4562 15.3316,10e-4 15.3315,-8.6e-4 1.4627,-3.14209 c 1.73334,-3.62955 5.5261,-7.63885 8.88525,-9.37255 3.19623,-1.6796 11.37655,-2.0049 15.33161,-0.65016 z m -11.53962,9.04736 c -2.11279,1.13795 -4.44238,4.3882 -4.76736,6.7176 -1.13798,8.55975 7.4762,14.4106 14.573,9.914 3.14192,-2.0045 4.22555,-4.0091 4.22555,-7.90955 -3e-5,-3.57545 -0.86683,-5.41729 -3.52108,-7.8009 -1.73389,-1.51709 -2.27573,-1.67951 -5.47193,-1.67938 -2.00462,0 -4.17152,0.32493 -5.03818,0.75823 z M 217.1379,860.57556 c -3.4672,2.43784 -4.76765,9.15544 -2.54644,13.05604 1.35422,2.32995 5.0923,4.33416 8.12624,4.33416 2.92538,0 6.71785,-2.00426 8.23471,-4.27976 0.97525,-1.409 1.24579,-2.60055 1.24579,-5.0925 3.6e-4,-6.3929 -3.73772,-9.8599 -10.13074,-9.4271 -2.22084,0.1626 -3.8463,0.65056 -4.92956,1.40916 z"
           id="path922"
           style="fill:#000000" />
      </g>
      <g
         style="fill:#000000;fill-opacity:1;stroke-linejoin:miter"
         id="g928">
        <path
           d="m 306.50613,442.6064 c 4.92997,1.3 10.34745,5.9053 12.51477,10.56404 l 1.30036,2.87152 15.71069,0.27064 c 17.66083,0.32506 17.98609,0.37896 18.58197,4.06304 0.21683,1.13756 0.37908,13.27256 0.37915,26.97891 v 24.97528 l 2.97963,1.46253 c 4.27996,2.11324 7.42192,5.20129 9.26406,9.21004 1.35449,2.9251 1.57107,4.0087 1.51694,8.23454 0,4.27972 -0.16245,5.30886 -1.46284,8.01786 -1.73346,3.46725 -5.3634,6.98824 -9.04739,8.7218 -2.00437,0.9213 -3.46717,1.1378 -8.12601,1.1378 -4.93002,0 -6.01364,-0.1621 -8.01786,-1.24593 -3.57574,-1.89617 -6.98858,-5.30907 -8.614,-8.66807 -2.11298,-4.27975 -2.3837,-10.5097 -0.65003,-15.0063 1.517,-4.0632 5.14646,-7.9637 9.48047,-10.2392 l 3.19626,-1.67945 0.1627,-23.45801 0.1086,-23.40347 -12.73126,0.002 -12.67719,-0.002 -1.46283,2.97962 c -1.78775,3.62955 -6.28427,8.01791 -9.80572,9.58902 -1.67945,0.7044 -4.17118,1.19171 -7.09686,1.40803 -4.33394,0.21697 -4.65909,0.16283 -8.50541,-1.7334 -6.39267,-3.14216 -9.8056,-8.2345 -10.40173,-15.43968 -0.921,-10.94342 6.66357,-19.50287 17.60696,-19.8822 2.27549,-0.10834 4.87584,0 5.79657,0.27098 z m -8.9385,9.37227 c -3.19666,1.62523 -5.68869,5.5802 -5.6344,8.8847 0.16267,8.1803 10.18487,12.40603 16.09009,6.82599 2.27528,-2.11261 3.08786,-4.06311 3.08786,-7.15136 0,-3.30463 -0.97525,-5.417 -3.3588,-7.25922 -3.46708,-2.6004 -6.77206,-2.97956 -10.18475,-1.30011 z m 47.99902,70.59013 c -2.97949,1.4086 -4.82155,4.4964 -4.82155,8.0179 0,3.5755 1.19182,5.9051 4.00896,7.9635 6.82602,4.92996 15.71084,-0.0541 15.00654,-8.4511 -0.59596,-6.93437 -7.5845,-10.67246 -14.19395,-7.5303 z"
           id="path926"
           style="fill:#000000" />
      </g>
      <g
         style="fill:#000000;fill-opacity:1;stroke-linejoin:miter"
         id="g932">
        <path
           d="m 184.14853,615.0303 c 4.98413,2.0041 7.80121,4.71286 10.4016,9.8594 l 1.40857,2.81715 8.83062,0.32495 c 9.15573,0.3248 29.20055,0.6501 67.61055,1.1377 36.35163,0.43365 56.77558,0.8129 62.5723,1.1379 l 5.41751,0.27085 1.89602,-3.57595 c 2.2213,-4.2253 6.0135,-8.0176 9.64338,-9.5887 3.52127,-1.5711 9.96812,-1.9507 13.43545,-0.75845 5.57997,1.89595 10.07651,6.55499 12.18927,12.62225 1.30017,3.901 1.30017,6.7178 -0.0542,10.78113 -2.97952,8.77637 -10.45578,13.70637 -19.71966,13.11042 -6.44694,-0.4328 -11.59357,-3.95445 -15.2233,-10.40165 l -1.89612,-3.4674 -26.97906,-0.32425 c -14.78996,-0.16265 -33.53458,-0.43365 -41.5524,-0.59625 -8.07214,-0.1085 -28.44199,-0.4337 -45.29033,-0.59614 l -30.71753,-0.37921 -1.40848,2.97965 c -1.67947,3.5219 -5.79677,7.5849 -9.42654,9.26394 -2.0586,0.97522 -3.52135,1.19216 -7.9637,1.19216 -5.20068,0 -5.58008,-0.0543 -8.93895,-1.95064 -8.18036,-4.49652 -11.53931,-13.00226 -8.77629,-21.9953 2.05866,-6.50066 5.63423,-9.96776 12.46017,-12.08051 4.60495,-1.40825 8.28904,-1.35418 12.08112,0.21695 z m -9.85991,8.5051 c -8.12624,2.7087 -8.66798,13.9768 -0.86678,17.7696 2.87136,1.40844 4.87586,1.40844 7.74701,0.10827 3.46738,-1.57137 5.30918,-4.38843 5.52596,-8.39717 0.21663,-4.3341 -1.30034,-7.09685 -4.76752,-8.8845 -2.65451,-1.3005 -4.87572,-1.5171 -7.63867,-0.5962 z m 179.42821,3.5754 c -3.9007,3.1421 -4.87583,7.7473 -2.60053,12.13487 2.38382,4.44268 7.74716,6.06793 12.56882,3.73843 3.84631,-1.8419 4.82153,-3.30435 5.03818,-7.5302 0.2709,-4.9845 -0.92078,-7.314 -5.03818,-9.53495 -2.54632,-1.3548 -7.42215,-0.81295 -9.96829,1.19185 z"
           id="path930"
           style="fill:#000000" />
      </g>
      <g
         style="fill:#000000;fill-opacity:1;stroke-linejoin:miter"
         id="g936">
        <path
           d="m 366.29022,827.812 c 7.85528,0.921 13.65198,6.12214 15.71068,14.03157 2.22118,8.72183 -1.7878,16.9563 -10.5099,21.56158 l -3.3589,1.78765 v 13.48976 l -2e-5,13.54364 3.08782,1.5711 c 4.71317,2.38367 7.4763,5.03815 9.4808,9.15546 1.5709,3.19674 1.7876,4.11749 1.7876,7.96424 7e-5,3.73766 -0.27083,4.8213 -1.73348,7.96325 -3.84652,8.18045 -11.10589,11.86425 -20.91156,10.61815 -5.63446,-0.7581 -10.51022,-4.6584 -13.27306,-10.6723 -1.19187,-2.49193 -1.46272,-3.84606 -1.46275,-7.6384 0,-4.17134 0.16251,-4.98384 1.78785,-8.2349 2.0043,-4.0626 4.4965,-6.501 9.31823,-9.0473 l 3.25057,-1.7336 4e-5,-13.48934 V 865.1928 l -3.46737,-1.67943 c -3.90079,-1.84192 -7.42217,-5.36357 -9.48069,-9.42621 -1.13772,-2.3299 -1.24603,-3.08806 -1.02932,-8.61416 0.2167,-6.87974 0.75834,-8.3425 4.38809,-11.97245 4.55085,-4.44225 10.13092,-6.39275 16.41537,-5.68855 z m -8.34295,10.781 c -5.58027,4.1173 -4.71354,13.2732 1.57086,16.52346 3.19637,1.67944 8.72229,0.64978 11.10589,-2.00486 1.89621,-2.0586 2.38373,-3.413 2.38373,-6.6635 0,-4.60453 -1.5711,-7.1512 -5.41735,-9.04685 -0.43345,-0.21655 -2.38383,-0.3252 -4.3342,-0.27131 -2.7629,0.10871 -3.90058,0.43376 -5.30893,1.46306 z m 1.24578,64.0888 c -5.30938,3.03414 -6.66365,9.3185 -2.97958,14.3562 1.24597,1.7342 2.22119,2.3838 4.38821,3.0341 6.98856,2.11265 12.40604,-1.84224 12.40602,-8.8845 -0.0542,-7.58427 -7.42185,-12.1356 -13.81465,-8.5058 z"
           id="path934"
           style="fill:#000000" />
      </g>
      <g
         style="fill:#000000;fill-opacity:1;stroke-linejoin:miter"
         id="g940">
        <path
           d="m 112.11746,668.0668 c 3.46728,0.5958 5.63426,1.8423 8.99306,5.2008 4.44241,4.4426 6.01367,9.4266 5.03844,15.76505 -1.08345,6.66352 -4.55072,11.43125 -10.40161,14.13985 l -3.14207,1.46263 -10e-6,10.34717 10e-6,10.3472 17.71509,0.32516 c 9.80579,0.21664 50.43709,0.54218 90.41831,0.75884 l 72.59479,0.3248 1.02926,-2.6542 c 0.65003,-1.78784 2.16687,-3.84673 4.60492,-6.2845 4.22575,-4.2255 6.98855,-5.309 13.48959,-5.309 3.41294,0 4.659,0.2709 7.36776,1.57117 5.4717,2.54603 9.26387,7.53003 10.5643,13.81453 0.81263,4.0632 0.37913,7.3136 -1.67977,11.4853 -1.8417,3.95475 -4.87567,6.82566 -9.10128,8.8301 -2.60047,1.19215 -3.7381,1.40876 -7.90958,1.40876 -4.49649,0 -5.14655,-0.16256 -8.28861,-1.84186 -3.95492,-2.16717 -7.96383,-6.3387 -8.83056,-9.2097 l -0.59592,-2.059 -9.0473,-0.3789 c -4.92984,-0.1627 -43.23175,-0.43375 -85.10918,-0.59617 -41.87745,-0.16243 -80.01664,-0.37939 -84.7299,-0.54217 -7.85526,-0.21662 -8.77623,-0.32496 -10.40159,-1.46266 l -1.84182,-1.246 v -13.8146 l 1e-5,-13.81427 -2.60051,-1.02943 c -3.6838,-1.5167 -7.8011,-5.6341 -9.64301,-9.6972 -1.30035,-2.8713 -1.51706,-4.00915 -1.517064,-7.9635 -9.6e-5,-5.7971 1.191844,-8.66827 5.254844,-12.677 3.52149,-3.57556 5.201066,-4.44226 9.6432,-5.1469 3.84649,-0.6499 4.55073,-0.6499 8.1262,-0.0543 z m -8.50532,9.53446 c -6.98857,3.30499 -7.42196,12.40667 -0.81253,16.8493 2.38361,1.62494 6.82602,1.67908 9.75147,0.16194 5.79668,-2.92524 6.3926,-11.8642 1.08335,-15.8187 -3.62977,-2.709 -6.1759,-2.9799 -10.02229,-1.19254 z m 203.6985,45.12817 c -5.36344,3.30507 -6.55518,9.96807 -2.54627,14.73567 1.89606,2.22136 4.00885,3.1964 7.0427,3.1964 5.36337,-0.0541 9.48056,-4.2798 9.48056,-9.75147 -0.054,-3.79203 -1.84189,-6.66369 -5.25476,-8.55963 -1.78781,-1.0293 -6.82607,-0.75854 -8.72223,0.37903 z"
           id="path938"
           style="fill:#000000" />
      </g>
      <g
         style="fill:#000000;fill-opacity:1;stroke-linejoin:miter"
         id="g944">
        <path
           d="m 210.76663,660.558 c 1.78789,-5.4176 5.74277,-10.0764 10.56394,-12.29775 3.68406,-1.67932 11.75615,-1.62525 15.33203,0.10845 3.738,1.84205 7.0967,5.03834 8.99313,8.668 1.40802,2.6547 2.05826,3.30473 3.413,3.5758 0.92056,0.1624 7.25955,0.3248 13.97687,0.32494 l 12.29806,-4e-5 1.24576,-2.9256 c 1.46273,-3.52144 5.90545,-7.96377 9.58918,-9.589 3.4671,-1.571 9.53484,-1.9504 13.2723,-0.8667 7.96444,2.32934 13.2191,9.9682 13.05652,18.9615 -0.16227,6.7174 -4.17179,12.9476 -10.3469,15.9271 -2.65482,1.3003 -3.68417,1.4625 -8.18072,1.517 -4.4424,1e-4 -5.57968,-0.2167 -8.1803,-1.4085 -4.28,-2.0045 -7.2597,-4.93 -9.21008,-8.9389 l -1.62516,-3.4672 -13.65213,0.10833 -13.65225,0.16272 -0.97488,2.16681 c -2.65433,5.68854 -6.71767,9.20978 -12.51453,10.88924 -11.75607,3.3045 -23.13292,-4.71315 -23.94583,-17.01125 -0.10822,-2.27515 0.0543,-4.49635 0.54199,-5.90495 z m 10.02214,10.0223 c 2.97966,5.8511 13.54453,5.90536 16.4155,0.1088 1.46258,-2.8173 1.30034,-8.01814 -0.2711,-10.2935 -2.16692,-3.1964 -3.84642,-4.06326 -7.85538,-4.0631 -4.063,-1.6e-4 -6.39264,1.1915 -8.28902,4.27974 -1.40809,2.27536 -1.40809,7.25936 0,9.96806 z m 65.11885,0.0544 c 1.84211,3.3046 3.46692,4.11756 7.90952,4.11756 3.5217,0 4.0632,-0.16272 5.95941,-1.67981 1.1915,-0.97505 2.49222,-2.76282 3.08771,-4.22555 0.97522,-2.2212 1.02954,-2.8172 0.43356,-5.0384 -0.92129,-3.30453 -2.43802,-5.36325 -4.98437,-6.66354 -2.49195,-1.24591 -6.44665,-1.40833 -8.5593,-0.32496 -2.05865,1.0835 -4.38849,3.68397 -4.98437,5.5258 -0.70435,2.2212 -0.21702,5.9594 1.13784,8.2889 z"
           id="path942"
           style="fill:#000000" />
      </g>
      <g
         style="fill:#000000;fill-opacity:1;stroke-linejoin:miter"
         id="g948">
        <path
           d="m 288.45627,881.1874 c 4.92993,-1.29964 10.34729,-5.9049 12.51456,-10.56374 l 1.30027,-2.87126 15.71074,-0.2708 c 17.66086,-0.32504 17.98609,-0.37894 18.582,-4.0632 0.21676,-1.1376 0.37916,-13.2724 0.37916,-26.979 v -24.9753 l 2.9796,-1.4625 c 4.28,-2.11323 7.42197,-5.2013 9.26405,-9.21016 1.35452,-2.92494 1.5711,-4.00854 1.51699,-8.23454 -4e-5,-4.2796 -0.1625,-5.30885 -1.46289,-8.0176 -1.73349,-3.46746 -5.36337,-6.98864 -9.04739,-8.72204 -2.0044,-0.92146 -3.46713,-1.13786 -8.12598,-1.13769 -4.9299,0 -6.01358,0.16203 -8.01782,1.24609 -3.57574,1.89584 -6.98862,5.30884 -8.61404,8.66794 -2.11298,4.27957 -2.3837,10.50955 -0.65002,15.00625 1.51693,4.06305 5.14648,7.96381 9.48052,10.23925 l 3.19623,1.67945 0.16272,23.4582 0.10861,23.40365 -12.73138,-0.002 -12.6772,0.002 -1.46276,-2.9799 c -1.78778,-3.6295 -6.28421,-8.0176 -9.80572,-9.5888 -1.67932,-0.7042 -4.17108,-1.1918 -7.0968,-1.4079 -4.33382,-0.2172 -4.65909,-0.163 -8.50537,1.7332 -6.3927,3.14186 -9.80555,8.2346 -10.40162,15.43996 -0.92096,10.94304 6.66352,19.50244 17.60691,19.88204 2.27551,0.10813 4.87582,0 5.79663,-0.2713 z m -8.93863,-9.372 c -3.19664,-1.6251 -5.68874,-5.5802 -5.63449,-8.8849 0.16275,-8.1805 10.18495,-12.4059 16.09012,-6.8255 2.27536,2.1125 3.08789,4.06315 3.08789,7.15104 0,3.30481 -0.97519,5.41712 -3.35876,7.25936 -3.467,2.60057 -6.77204,2.9796 -10.18476,1.3 z m 47.99902,-70.5901 c -2.97946,-1.40883 -4.82153,-4.4964 -4.82153,-8.01796 0,-3.57554 1.1918,-5.90528 4.00894,-7.96364 6.82593,-4.92986 15.71073,0.0542 15.00643,8.45106 -0.59594,6.93439 -7.58443,10.67264 -14.19384,7.53054 z"
           id="path946"
           style="fill:#000000" />
      </g>
    </g>
  </g>
</svg>
